# Blender v3.1.2 OBJ File: ''
# www.blender.org
mtllib cubeOpen.mtl
o Cube_Cube.001
v -1.000000 0.818182 -0.818182
v -1.000000 1.000000 -1.000000
v -1.000000 0.818182 -1.000000
v 0.818182 0.818182 -1.000000
v 1.000000 1.000000 -1.000000
v 1.000000 0.818182 -1.000000
v 1.000000 1.000000 1.000000
v 1.000000 0.818182 1.000000
v -0.818182 0.818182 1.000000
v -1.000000 1.000000 1.000000
v -1.000000 0.818182 1.000000
v 0.818182 -1.000000 0.818182
v 1.000000 -1.000000 1.000000
v 0.818182 -1.000000 1.000000
v -0.818182 1.000000 0.818182
v -0.818182 1.000000 1.000000
v 1.000000 1.000000 0.818182
v 0.818182 1.000000 1.000000
v 0.818182 1.000000 0.818182
v 0.636364 1.000000 1.000000
v 0.636364 1.000000 0.818182
v 0.454545 1.000000 1.000000
v 0.454545 1.000000 0.818182
v 0.272727 1.000000 1.000000
v 0.272727 1.000000 0.818182
v 0.090909 1.000000 1.000000
v 0.090909 1.000000 0.818182
v -0.090909 1.000000 1.000000
v -0.090909 1.000000 0.818182
v -0.272727 1.000000 1.000000
v -0.272727 1.000000 0.818182
v -0.454545 1.000000 1.000000
v -0.454545 1.000000 0.818182
v -0.636364 1.000000 1.000000
v -0.636364 1.000000 0.818182
v 0.818182 1.000000 -0.818182
v 1.000000 1.000000 -0.818182
v 0.818182 1.000000 -0.636364
v 1.000000 1.000000 -0.636364
v 0.818182 1.000000 -0.454545
v 1.000000 1.000000 -0.454545
v 0.818182 1.000000 -0.272727
v 1.000000 1.000000 -0.272727
v 0.818182 1.000000 -0.090909
v 1.000000 1.000000 -0.090909
v 0.818182 1.000000 0.090909
v 1.000000 1.000000 0.090909
v 0.818182 1.000000 0.272727
v 1.000000 1.000000 0.272727
v 0.818182 1.000000 0.454545
v 1.000000 1.000000 0.454545
v 0.818182 1.000000 0.636364
v 1.000000 1.000000 0.636364
v 0.818182 1.000000 -1.000000
v 0.636364 1.000000 -0.818182
v 0.636364 1.000000 -0.636364
v 0.636364 1.000000 -0.454545
v 0.636364 1.000000 -0.272727
v 0.636364 1.000000 -0.090909
v 0.636364 1.000000 0.090909
v 0.636364 1.000000 0.272727
v 0.636364 1.000000 0.454545
v 0.636364 1.000000 0.636364
v 0.636364 1.000000 -1.000000
v 0.454545 1.000000 -0.818182
v 0.454545 1.000000 -0.636364
v 0.454545 1.000000 -0.454545
v 0.454545 1.000000 -0.272727
v 0.454545 1.000000 -0.090909
v 0.454545 1.000000 0.090909
v 0.454545 1.000000 0.272727
v 0.454545 1.000000 0.454545
v 0.454545 1.000000 0.636364
v 0.454545 1.000000 -1.000000
v 0.272727 1.000000 -0.818182
v 0.272727 1.000000 -0.636364
v 0.272727 1.000000 -0.454545
v 0.272727 1.000000 -0.272727
v 0.272727 1.000000 -0.090909
v 0.272727 1.000000 0.090909
v 0.272727 1.000000 0.272727
v 0.272727 1.000000 0.454545
v 0.272727 1.000000 0.636364
v 0.272727 1.000000 -1.000000
v 0.090909 1.000000 -0.818182
v 0.090909 1.000000 -0.636364
v 0.090909 1.000000 -0.454545
v 0.090909 1.000000 -0.272727
v 0.090909 1.000000 -0.090909
v 0.090909 1.000000 0.090909
v 0.090909 1.000000 0.272727
v 0.090909 1.000000 0.454545
v 0.090909 1.000000 0.636364
v 0.090909 1.000000 -1.000000
v -0.090909 1.000000 -0.818182
v -0.090909 1.000000 -0.636364
v -0.090909 1.000000 -0.454545
v -0.090909 1.000000 -0.272727
v -0.090909 1.000000 -0.090909
v -0.090909 1.000000 0.090909
v -0.090909 1.000000 0.272727
v -0.090909 1.000000 0.454545
v -0.090909 1.000000 0.636364
v -0.090909 1.000000 -1.000000
v -0.272727 1.000000 -0.818182
v -0.272727 1.000000 -0.636364
v -0.272727 1.000000 -0.454545
v -0.272727 1.000000 -0.272727
v -0.272727 1.000000 -0.090909
v -0.272727 1.000000 0.090909
v -0.272727 1.000000 0.272727
v -0.272727 1.000000 0.454545
v -0.272727 1.000000 0.636364
v -0.272727 1.000000 -1.000000
v -0.454545 1.000000 -0.818182
v -0.454545 1.000000 -0.636364
v -0.454545 1.000000 -0.454545
v -0.454545 1.000000 -0.272727
v -0.454545 1.000000 -0.090909
v -0.454545 1.000000 0.090909
v -0.454545 1.000000 0.272727
v -0.454545 1.000000 0.454545
v -0.454545 1.000000 0.636364
v -0.454545 1.000000 -1.000000
v -0.636364 1.000000 -0.818182
v -0.636364 1.000000 -0.636364
v -0.636364 1.000000 -0.454545
v -0.636364 1.000000 -0.272727
v -0.636364 1.000000 -0.090909
v -0.636364 1.000000 0.090909
v -0.636364 1.000000 0.272727
v -0.636364 1.000000 0.454545
v -0.636364 1.000000 0.636364
v -0.636364 1.000000 -1.000000
v -0.818182 1.000000 -0.818182
v -0.818182 1.000000 -0.636364
v -0.818182 1.000000 -0.454545
v -0.818182 1.000000 -0.272727
v -0.818182 1.000000 -0.090909
v -0.818182 1.000000 0.090909
v -0.818182 1.000000 0.272727
v -0.818182 1.000000 0.454545
v -0.818182 1.000000 0.636364
v -0.818182 1.000000 -1.000000
v -1.000000 1.000000 -0.818182
v -1.000000 1.000000 -0.636364
v -1.000000 1.000000 -0.454545
v -1.000000 1.000000 -0.272727
v -1.000000 1.000000 -0.090909
v -1.000000 1.000000 0.090909
v -1.000000 1.000000 0.272727
v -1.000000 1.000000 0.454545
v -1.000000 1.000000 0.636364
v -1.000000 1.000000 0.818182
v -1.000000 -1.000000 0.818182
v -0.818182 -1.000000 1.000000
v -1.000000 -1.000000 1.000000
v -0.818182 -1.000000 0.818182
v -0.636364 -1.000000 1.000000
v -0.636364 -1.000000 0.818182
v -0.454545 -1.000000 1.000000
v -0.454545 -1.000000 0.818182
v -0.272727 -1.000000 1.000000
v -0.272727 -1.000000 0.818182
v -0.090909 -1.000000 1.000000
v -0.090909 -1.000000 0.818182
v 0.090909 -1.000000 1.000000
v 0.090909 -1.000000 0.818182
v 0.272727 -1.000000 1.000000
v 0.272727 -1.000000 0.818182
v 0.454545 -1.000000 1.000000
v 0.454545 -1.000000 0.818182
v 0.636364 -1.000000 1.000000
v 0.636364 -1.000000 0.818182
v -1.000000 -1.000000 -1.000000
v -0.818182 -1.000000 -0.818182
v -1.000000 -1.000000 -0.818182
v -0.818182 -1.000000 -0.636364
v -1.000000 -1.000000 -0.636364
v -0.818182 -1.000000 -0.454545
v -1.000000 -1.000000 -0.454545
v -0.818182 -1.000000 -0.272727
v -1.000000 -1.000000 -0.272727
v -0.818182 -1.000000 -0.090909
v -1.000000 -1.000000 -0.090909
v -0.818182 -1.000000 0.090909
v -1.000000 -1.000000 0.090909
v -0.818182 -1.000000 0.272727
v -1.000000 -1.000000 0.272727
v -0.818182 -1.000000 0.454545
v -1.000000 -1.000000 0.454545
v -0.818182 -1.000000 0.636364
v -1.000000 -1.000000 0.636364
v -0.818182 -1.000000 -1.000000
v -0.636364 -1.000000 -0.818182
v -0.636364 -1.000000 -0.636364
v -0.636364 -1.000000 -0.454545
v -0.636364 -1.000000 -0.272727
v -0.636364 -1.000000 -0.090909
v -0.636364 -1.000000 0.090909
v -0.636364 -1.000000 0.272727
v -0.636364 -1.000000 0.454545
v -0.636364 -1.000000 0.636364
v -0.636364 -1.000000 -1.000000
v -0.454545 -1.000000 -0.818182
v -0.454545 -1.000000 -0.636364
v -0.454545 -1.000000 -0.454545
v -0.454545 -1.000000 -0.272727
v -0.454545 -1.000000 -0.090909
v -0.454545 -1.000000 0.090909
v -0.454545 -1.000000 0.272727
v -0.454545 -1.000000 0.454545
v -0.454545 -1.000000 0.636364
v -0.454545 -1.000000 -1.000000
v -0.272727 -1.000000 -0.818182
v -0.272727 -1.000000 -0.636364
v -0.272727 -1.000000 -0.454545
v -0.272727 -1.000000 -0.272727
v -0.272727 -1.000000 -0.090909
v -0.272727 -1.000000 0.090909
v -0.272727 -1.000000 0.272727
v -0.272727 -1.000000 0.454545
v -0.272727 -1.000000 0.636364
v -0.272727 -1.000000 -1.000000
v -0.090909 -1.000000 -0.818182
v -0.090909 -1.000000 -0.636364
v -0.090909 -1.000000 -0.454545
v -0.090909 -1.000000 -0.272727
v -0.090909 -1.000000 -0.090909
v -0.090909 -1.000000 0.090909
v -0.090909 -1.000000 0.272727
v -0.090909 -1.000000 0.454545
v -0.090909 -1.000000 0.636364
v -0.090909 -1.000000 -1.000000
v 0.090909 -1.000000 -0.818182
v 0.090909 -1.000000 -0.636364
v 0.090909 -1.000000 -0.454545
v 0.090909 -1.000000 -0.272727
v 0.090909 -1.000000 -0.090909
v 0.090909 -1.000000 0.090909
v 0.090909 -1.000000 0.272727
v 0.090909 -1.000000 0.454545
v 0.090909 -1.000000 0.636364
v 0.090909 -1.000000 -1.000000
v 0.272727 -1.000000 -0.818182
v 0.272727 -1.000000 -0.636364
v 0.272727 -1.000000 -0.454545
v 0.272727 -1.000000 -0.272727
v 0.272727 -1.000000 -0.090909
v 0.272727 -1.000000 0.090909
v 0.272727 -1.000000 0.272727
v 0.272727 -1.000000 0.454545
v 0.272727 -1.000000 0.636364
v 0.272727 -1.000000 -1.000000
v 0.454545 -1.000000 -0.818182
v 0.454545 -1.000000 -0.636364
v 0.454545 -1.000000 -0.454545
v 0.454545 -1.000000 -0.272727
v 0.454545 -1.000000 -0.090909
v 0.454545 -1.000000 0.090909
v 0.454545 -1.000000 0.272727
v 0.454545 -1.000000 0.454545
v 0.454545 -1.000000 0.636364
v 0.454545 -1.000000 -1.000000
v 0.636364 -1.000000 -0.818182
v 0.636364 -1.000000 -0.636364
v 0.636364 -1.000000 -0.454545
v 0.636364 -1.000000 -0.272727
v 0.636364 -1.000000 -0.090909
v 0.636364 -1.000000 0.090909
v 0.636364 -1.000000 0.272727
v 0.636364 -1.000000 0.454545
v 0.636364 -1.000000 0.636364
v 0.636364 -1.000000 -1.000000
v 0.818182 -1.000000 -0.818182
v 0.818182 -1.000000 -0.636364
v 0.818182 -1.000000 -0.454545
v 0.818182 -1.000000 -0.272727
v 0.818182 -1.000000 -0.090909
v 0.818182 -1.000000 0.090909
v 0.818182 -1.000000 0.272727
v 0.818182 -1.000000 0.454545
v 0.818182 -1.000000 0.636364
v 0.818182 -1.000000 -1.000000
v 1.000000 -1.000000 -0.818182
v 1.000000 -1.000000 -0.636364
v 1.000000 -1.000000 -0.454545
v 1.000000 -1.000000 -0.272727
v 1.000000 -1.000000 -0.090909
v 1.000000 -1.000000 0.090909
v 1.000000 -1.000000 0.272727
v 1.000000 -1.000000 0.454545
v 1.000000 -1.000000 0.636364
v 1.000000 -1.000000 0.818182
v -1.000000 -0.818182 1.000000
v -0.818182 -0.818182 1.000000
v -1.000000 -0.636364 1.000000
v -0.818182 -0.636364 1.000000
v -1.000000 -0.454545 1.000000
v -0.818182 -0.454545 1.000000
v -1.000000 -0.272727 1.000000
v -0.818182 -0.272727 1.000000
v -1.000000 -0.090909 1.000000
v -0.818182 -0.090909 1.000000
v -1.000000 0.090909 1.000000
v -0.818182 0.090909 1.000000
v -1.000000 0.272727 1.000000
v -0.818182 0.272727 1.000000
v -1.000000 0.454545 1.000000
v -0.818182 0.454545 1.000000
v -1.000000 0.636364 1.000000
v -0.818182 0.636364 1.000000
v 0.818182 -0.818182 1.000000
v 0.636364 -0.818182 1.000000
v 0.454545 -0.818182 1.000000
v 0.272727 -0.818182 1.000000
v 0.090909 -0.818182 1.000000
v -0.090909 -0.818182 1.000000
v -0.272727 -0.818182 1.000000
v -0.454545 -0.818182 1.000000
v -0.636364 -0.818182 1.000000
v 1.000000 -0.818182 1.000000
v 0.818182 -0.636364 1.000000
v 0.636364 -0.636364 1.000000
v 0.454545 -0.636364 1.000000
v 0.272727 -0.636364 1.000000
v 0.090909 -0.636364 1.000000
v -0.090909 -0.636364 1.000000
v -0.272727 -0.636364 1.000000
v -0.454545 -0.636364 1.000000
v -0.636364 -0.636364 1.000000
v 1.000000 -0.636364 1.000000
v 0.818182 -0.454545 1.000000
v 0.636364 -0.454545 1.000000
v 0.454545 -0.454545 1.000000
v 0.272727 -0.454545 1.000000
v 0.090909 -0.454545 1.000000
v -0.090909 -0.454545 1.000000
v -0.272727 -0.454545 1.000000
v -0.454545 -0.454545 1.000000
v -0.636364 -0.454545 1.000000
v 1.000000 -0.454545 1.000000
v 0.818182 -0.272727 1.000000
v 0.636364 -0.272727 1.000000
v 0.454545 -0.272727 1.000000
v 0.272727 -0.272727 1.000000
v 0.090909 -0.272727 1.000000
v -0.090909 -0.272727 1.000000
v -0.272727 -0.272727 1.000000
v -0.454545 -0.272727 1.000000
v -0.636364 -0.272727 1.000000
v 1.000000 -0.272727 1.000000
v 0.818182 -0.090909 1.000000
v 0.636364 -0.090909 1.000000
v 0.454545 -0.090909 1.000000
v 0.272727 -0.090909 1.000000
v 0.090909 -0.090909 1.000000
v -0.090909 -0.090909 1.000000
v -0.272727 -0.090909 1.000000
v -0.454545 -0.090909 1.000000
v -0.636364 -0.090909 1.000000
v 1.000000 -0.090909 1.000000
v 0.818182 0.090909 1.000000
v 0.636364 0.090909 1.000000
v 0.454545 0.090909 1.000000
v 0.272727 0.090909 1.000000
v 0.090909 0.090909 1.000000
v -0.090909 0.090909 1.000000
v -0.272727 0.090909 1.000000
v -0.454545 0.090909 1.000000
v -0.636364 0.090909 1.000000
v 1.000000 0.090909 1.000000
v 0.818182 0.272727 1.000000
v 0.636364 0.272727 1.000000
v 0.454545 0.272727 1.000000
v 0.272727 0.272727 1.000000
v 0.090909 0.272727 1.000000
v -0.090909 0.272727 1.000000
v -0.272727 0.272727 1.000000
v -0.454545 0.272727 1.000000
v -0.636364 0.272727 1.000000
v 1.000000 0.272727 1.000000
v 0.818182 0.454545 1.000000
v 0.636364 0.454545 1.000000
v 0.454545 0.454545 1.000000
v 0.272727 0.454545 1.000000
v 0.090909 0.454545 1.000000
v -0.090909 0.454545 1.000000
v -0.272727 0.454545 1.000000
v -0.454545 0.454545 1.000000
v -0.636364 0.454545 1.000000
v 1.000000 0.454545 1.000000
v 0.818182 0.636364 1.000000
v 0.636364 0.636364 1.000000
v 0.454545 0.636364 1.000000
v 0.272727 0.636364 1.000000
v 0.090909 0.636364 1.000000
v -0.090909 0.636364 1.000000
v -0.272727 0.636364 1.000000
v -0.454545 0.636364 1.000000
v -0.636364 0.636364 1.000000
v 1.000000 0.636364 1.000000
v 0.818182 0.818182 1.000000
v 0.636364 0.818182 1.000000
v 0.454545 0.818182 1.000000
v 0.272727 0.818182 1.000000
v 0.090909 0.818182 1.000000
v -0.090909 0.818182 1.000000
v -0.272727 0.818182 1.000000
v -0.454545 0.818182 1.000000
v -0.636364 0.818182 1.000000
v 1.000000 -1.000000 -1.000000
v 1.000000 -0.818182 -1.000000
v 1.000000 -0.636364 -1.000000
v 1.000000 -0.454545 -1.000000
v 1.000000 -0.272727 -1.000000
v 1.000000 -0.090909 -1.000000
v 1.000000 0.090909 -1.000000
v 1.000000 0.272727 -1.000000
v 1.000000 0.454545 -1.000000
v 1.000000 0.636364 -1.000000
v 0.818182 -0.818182 -1.000000
v 0.818182 -0.636364 -1.000000
v 0.818182 -0.454545 -1.000000
v 0.818182 -0.272727 -1.000000
v 0.818182 -0.090909 -1.000000
v 0.818182 0.090909 -1.000000
v 0.818182 0.272727 -1.000000
v 0.818182 0.454545 -1.000000
v 0.818182 0.636364 -1.000000
v -0.818182 -0.818182 -1.000000
v -0.636364 -0.818182 -1.000000
v -0.454545 -0.818182 -1.000000
v -0.272727 -0.818182 -1.000000
v -0.090909 -0.818182 -1.000000
v 0.090909 -0.818182 -1.000000
v 0.272727 -0.818182 -1.000000
v 0.454545 -0.818182 -1.000000
v 0.636364 -0.818182 -1.000000
v -1.000000 -0.818182 -1.000000
v -0.818182 -0.636364 -1.000000
v -0.636364 -0.636364 -1.000000
v -0.454545 -0.636364 -1.000000
v -0.272727 -0.636364 -1.000000
v -0.090909 -0.636364 -1.000000
v 0.090909 -0.636364 -1.000000
v 0.272727 -0.636364 -1.000000
v 0.454545 -0.636364 -1.000000
v 0.636364 -0.636364 -1.000000
v -1.000000 -0.636364 -1.000000
v -0.818182 -0.454545 -1.000000
v -0.636364 -0.454545 -1.000000
v -0.454545 -0.454545 -1.000000
v -0.272727 -0.454545 -1.000000
v -0.090909 -0.454545 -1.000000
v 0.090909 -0.454545 -1.000000
v 0.272727 -0.454545 -1.000000
v 0.454545 -0.454545 -1.000000
v 0.636364 -0.454545 -1.000000
v -1.000000 -0.454545 -1.000000
v -0.818182 -0.272727 -1.000000
v -0.636364 -0.272727 -1.000000
v -0.454545 -0.272727 -1.000000
v -0.272727 -0.272727 -1.000000
v -0.090909 -0.272727 -1.000000
v 0.090909 -0.272727 -1.000000
v 0.272727 -0.272727 -1.000000
v 0.454545 -0.272727 -1.000000
v 0.636364 -0.272727 -1.000000
v -1.000000 -0.272727 -1.000000
v -0.818182 -0.090909 -1.000000
v -0.636364 -0.090909 -1.000000
v -0.454545 -0.090909 -1.000000
v -0.272727 -0.090909 -1.000000
v -0.090909 -0.090909 -1.000000
v 0.090909 -0.090909 -1.000000
v 0.272727 -0.090909 -1.000000
v 0.454545 -0.090909 -1.000000
v 0.636364 -0.090909 -1.000000
v -1.000000 -0.090909 -1.000000
v -0.818182 0.090909 -1.000000
v -0.636364 0.090909 -1.000000
v -0.454545 0.090909 -1.000000
v -0.272727 0.090909 -1.000000
v -0.090909 0.090909 -1.000000
v 0.090909 0.090909 -1.000000
v 0.272727 0.090909 -1.000000
v 0.454545 0.090909 -1.000000
v 0.636364 0.090909 -1.000000
v -1.000000 0.090909 -1.000000
v -0.818182 0.272727 -1.000000
v -0.636364 0.272727 -1.000000
v -0.454545 0.272727 -1.000000
v -0.272727 0.272727 -1.000000
v -0.090909 0.272727 -1.000000
v 0.090909 0.272727 -1.000000
v 0.272727 0.272727 -1.000000
v 0.454545 0.272727 -1.000000
v 0.636364 0.272727 -1.000000
v -1.000000 0.272727 -1.000000
v -0.818182 0.454545 -1.000000
v -0.636364 0.454545 -1.000000
v -0.454545 0.454545 -1.000000
v -0.272727 0.454545 -1.000000
v -0.090909 0.454545 -1.000000
v 0.090909 0.454545 -1.000000
v 0.272727 0.454545 -1.000000
v 0.454545 0.454545 -1.000000
v 0.636364 0.454545 -1.000000
v -1.000000 0.454545 -1.000000
v -0.818182 0.636364 -1.000000
v -0.636364 0.636364 -1.000000
v -0.454545 0.636364 -1.000000
v -0.272727 0.636364 -1.000000
v -0.090909 0.636364 -1.000000
v 0.090909 0.636364 -1.000000
v 0.272727 0.636364 -1.000000
v 0.454545 0.636364 -1.000000
v 0.636364 0.636364 -1.000000
v -1.000000 0.636364 -1.000000
v -0.818182 0.818182 -1.000000
v -0.636364 0.818182 -1.000000
v -0.454545 0.818182 -1.000000
v -0.272727 0.818182 -1.000000
v -0.090909 0.818182 -1.000000
v 0.090909 0.818182 -1.000000
v 0.272727 0.818182 -1.000000
v 0.454545 0.818182 -1.000000
v 0.636364 0.818182 -1.000000
v -1.000000 -0.818182 -0.818182
v -1.000000 -0.636364 -0.818182
v -1.000000 -0.454545 -0.818182
v -1.000000 -0.272727 -0.818182
v -1.000000 -0.090909 -0.818182
v -1.000000 0.090909 -0.818182
v -1.000000 0.272727 -0.818182
v -1.000000 0.454545 -0.818182
v -1.000000 0.636364 -0.818182
v -1.000000 -0.818182 0.818182
v -1.000000 -0.818182 0.636364
v -1.000000 -0.818182 0.454545
v -1.000000 -0.818182 0.272727
v -1.000000 -0.818182 0.090909
v -1.000000 -0.818182 -0.090909
v -1.000000 -0.818182 -0.272727
v -1.000000 -0.818182 -0.454545
v -1.000000 -0.818182 -0.636364
v -1.000000 -0.636364 0.818182
v -1.000000 -0.636364 0.636364
v -1.000000 -0.636364 0.454545
v -1.000000 -0.636364 0.272727
v -1.000000 -0.636364 0.090909
v -1.000000 -0.636364 -0.090909
v -1.000000 -0.636364 -0.272727
v -1.000000 -0.636364 -0.454545
v -1.000000 -0.636364 -0.636364
v -1.000000 -0.454545 0.818182
v -1.000000 -0.454545 0.636364
v -1.000000 -0.454545 0.454545
v -1.000000 -0.454545 0.272727
v -1.000000 -0.454545 0.090909
v -1.000000 -0.454545 -0.090909
v -1.000000 -0.454545 -0.272727
v -1.000000 -0.454545 -0.454545
v -1.000000 -0.454545 -0.636364
v -1.000000 -0.272727 0.818182
v -1.000000 -0.272727 0.636364
v -1.000000 -0.272727 0.454545
v -1.000000 -0.272727 0.272727
v -1.000000 -0.272727 0.090909
v -1.000000 -0.272727 -0.090909
v -1.000000 -0.272727 -0.272727
v -1.000000 -0.272727 -0.454545
v -1.000000 -0.272727 -0.636364
v -1.000000 -0.090909 0.818182
v -1.000000 -0.090909 0.636364
v -1.000000 -0.090909 0.454545
v -1.000000 -0.090909 0.272727
v -1.000000 -0.090909 0.090909
v -1.000000 -0.090909 -0.090909
v -1.000000 -0.090909 -0.272727
v -1.000000 -0.090909 -0.454545
v -1.000000 -0.090909 -0.636364
v -1.000000 0.090909 0.818182
v -1.000000 0.090909 0.636364
v -1.000000 0.090909 0.454545
v -1.000000 0.090909 0.272727
v -1.000000 0.090909 0.090909
v -1.000000 0.090909 -0.090909
v -1.000000 0.090909 -0.272727
v -1.000000 0.090909 -0.454545
v -1.000000 0.090909 -0.636364
v -1.000000 0.272727 0.818182
v -1.000000 0.272727 0.636364
v -1.000000 0.272727 0.454545
v -1.000000 0.272727 0.272727
v -1.000000 0.272727 0.090909
v -1.000000 0.272727 -0.090909
v -1.000000 0.272727 -0.272727
v -1.000000 0.272727 -0.454545
v -1.000000 0.272727 -0.636364
v -1.000000 0.454545 0.818182
v -1.000000 0.454545 0.636364
v -1.000000 0.454545 0.454545
v -1.000000 0.454545 0.272727
v -1.000000 0.454545 0.090909
v -1.000000 0.454545 -0.090909
v -1.000000 0.454545 -0.272727
v -1.000000 0.454545 -0.454545
v -1.000000 0.454545 -0.636364
v -1.000000 0.636364 0.818182
v -1.000000 0.636364 0.636364
v -1.000000 0.636364 0.454545
v -1.000000 0.636364 0.272727
v -1.000000 0.636364 0.090909
v -1.000000 0.636364 -0.090909
v -1.000000 0.636364 -0.272727
v -1.000000 0.636364 -0.454545
v -1.000000 0.636364 -0.636364
v -1.000000 0.818182 0.818182
v -1.000000 0.818182 0.636364
v -1.000000 0.818182 0.454545
v -1.000000 0.818182 0.272727
v -1.000000 0.818182 0.090909
v -1.000000 0.818182 -0.090909
v -1.000000 0.818182 -0.272727
v -1.000000 0.818182 -0.454545
v -1.000000 0.818182 -0.636364
vt 0.602273 0.227273
vt 0.625000 0.250000
vt 0.602273 0.250000
vt 0.602273 0.477273
vt 0.625000 0.500000
vt 0.602273 0.500000
vt 0.602273 0.977273
vt 0.625000 1.000000
vt 0.602273 1.000000
vt 0.352273 0.727273
vt 0.375000 0.750000
vt 0.352273 0.750000
vt 0.852273 0.727273
vt 0.875000 0.750000
vt 0.852273 0.750000
vt 0.625000 0.727273
vt 0.647727 0.750000
vt 0.625000 0.750000
vt 0.647727 0.727273
vt 0.670455 0.750000
vt 0.670455 0.727273
vt 0.693182 0.750000
vt 0.693182 0.727273
vt 0.715909 0.750000
vt 0.715909 0.727273
vt 0.738636 0.750000
vt 0.738636 0.727273
vt 0.761364 0.750000
vt 0.761364 0.727273
vt 0.784091 0.750000
vt 0.784091 0.727273
vt 0.806818 0.750000
vt 0.806818 0.727273
vt 0.829545 0.750000
vt 0.829545 0.727273
vt 0.647727 0.522727
vt 0.625000 0.522727
vt 0.647727 0.545455
vt 0.625000 0.545455
vt 0.647727 0.568182
vt 0.625000 0.568182
vt 0.647727 0.590909
vt 0.625000 0.590909
vt 0.647727 0.613636
vt 0.625000 0.613636
vt 0.647727 0.636364
vt 0.625000 0.636364
vt 0.647727 0.659091
vt 0.625000 0.659091
vt 0.647727 0.681818
vt 0.625000 0.681818
vt 0.647727 0.704545
vt 0.625000 0.704545
vt 0.647727 0.500000
vt 0.670455 0.522727
vt 0.670455 0.545455
vt 0.670455 0.568182
vt 0.670455 0.590909
vt 0.670455 0.613636
vt 0.670455 0.636364
vt 0.670455 0.659091
vt 0.670455 0.681818
vt 0.670455 0.704545
vt 0.670455 0.500000
vt 0.693182 0.522727
vt 0.693182 0.545455
vt 0.693182 0.568182
vt 0.693182 0.590909
vt 0.693182 0.613636
vt 0.693182 0.636364
vt 0.693182 0.659091
vt 0.693182 0.681818
vt 0.693182 0.704545
vt 0.693182 0.500000
vt 0.715909 0.522727
vt 0.715909 0.545455
vt 0.715909 0.568182
vt 0.715909 0.590909
vt 0.715909 0.613636
vt 0.715909 0.636364
vt 0.715909 0.659091
vt 0.715909 0.681818
vt 0.715909 0.704545
vt 0.715909 0.500000
vt 0.738636 0.522727
vt 0.738636 0.545455
vt 0.738636 0.568182
vt 0.738636 0.590909
vt 0.738636 0.613636
vt 0.738636 0.636364
vt 0.738636 0.659091
vt 0.738636 0.681818
vt 0.738636 0.704545
vt 0.738636 0.500000
vt 0.761364 0.522727
vt 0.761364 0.545455
vt 0.761364 0.568182
vt 0.761364 0.590909
vt 0.761364 0.613636
vt 0.761364 0.636364
vt 0.761364 0.659091
vt 0.761364 0.681818
vt 0.761364 0.704545
vt 0.761364 0.500000
vt 0.784091 0.522727
vt 0.784091 0.545455
vt 0.784091 0.568182
vt 0.784091 0.590909
vt 0.784091 0.613636
vt 0.784091 0.636364
vt 0.784091 0.659091
vt 0.784091 0.681818
vt 0.784091 0.704545
vt 0.784091 0.500000
vt 0.806818 0.522727
vt 0.806818 0.545455
vt 0.806818 0.568182
vt 0.806818 0.590909
vt 0.806818 0.613636
vt 0.806818 0.636364
vt 0.806818 0.659091
vt 0.806818 0.681818
vt 0.806818 0.704545
vt 0.806818 0.500000
vt 0.829545 0.522727
vt 0.829545 0.545455
vt 0.829545 0.568182
vt 0.829545 0.590909
vt 0.829545 0.613636
vt 0.829545 0.636364
vt 0.829545 0.659091
vt 0.829545 0.681818
vt 0.829545 0.704545
vt 0.829545 0.500000
vt 0.852273 0.522727
vt 0.852273 0.545455
vt 0.852273 0.568182
vt 0.852273 0.590909
vt 0.852273 0.613636
vt 0.852273 0.636364
vt 0.852273 0.659091
vt 0.852273 0.681818
vt 0.852273 0.704545
vt 0.852273 0.500000
vt 0.875000 0.522727
vt 0.875000 0.545455
vt 0.875000 0.568182
vt 0.875000 0.590909
vt 0.875000 0.613636
vt 0.875000 0.636364
vt 0.875000 0.659091
vt 0.875000 0.681818
vt 0.875000 0.704545
vt 0.875000 0.727273
vt 0.125000 0.727273
vt 0.147727 0.750000
vt 0.125000 0.750000
vt 0.147727 0.727273
vt 0.170455 0.750000
vt 0.170455 0.727273
vt 0.193182 0.750000
vt 0.193182 0.727273
vt 0.215909 0.750000
vt 0.215909 0.727273
vt 0.238636 0.750000
vt 0.238636 0.727273
vt 0.261364 0.750000
vt 0.261364 0.727273
vt 0.284091 0.750000
vt 0.284091 0.727273
vt 0.306818 0.750000
vt 0.306818 0.727273
vt 0.329545 0.750000
vt 0.329545 0.727273
vt 0.125000 0.500000
vt 0.147727 0.522727
vt 0.125000 0.522727
vt 0.147727 0.545455
vt 0.125000 0.545455
vt 0.147727 0.568182
vt 0.125000 0.568182
vt 0.147727 0.590909
vt 0.125000 0.590909
vt 0.147727 0.613636
vt 0.125000 0.613636
vt 0.147727 0.636364
vt 0.125000 0.636364
vt 0.147727 0.659091
vt 0.125000 0.659091
vt 0.147727 0.681818
vt 0.125000 0.681818
vt 0.147727 0.704545
vt 0.125000 0.704545
vt 0.147727 0.500000
vt 0.170455 0.522727
vt 0.170455 0.545455
vt 0.170455 0.568182
vt 0.170455 0.590909
vt 0.170455 0.613636
vt 0.170455 0.636364
vt 0.170455 0.659091
vt 0.170455 0.681818
vt 0.170455 0.704545
vt 0.170455 0.500000
vt 0.193182 0.522727
vt 0.193182 0.545455
vt 0.193182 0.568182
vt 0.193182 0.590909
vt 0.193182 0.613636
vt 0.193182 0.636364
vt 0.193182 0.659091
vt 0.193182 0.681818
vt 0.193182 0.704545
vt 0.193182 0.500000
vt 0.215909 0.522727
vt 0.215909 0.545455
vt 0.215909 0.568182
vt 0.215909 0.590909
vt 0.215909 0.613636
vt 0.215909 0.636364
vt 0.215909 0.659091
vt 0.215909 0.681818
vt 0.215909 0.704545
vt 0.215909 0.500000
vt 0.238636 0.522727
vt 0.238636 0.545455
vt 0.238636 0.568182
vt 0.238636 0.590909
vt 0.238636 0.613636
vt 0.238636 0.636364
vt 0.238636 0.659091
vt 0.238636 0.681818
vt 0.238636 0.704545
vt 0.238636 0.500000
vt 0.261364 0.522727
vt 0.261364 0.545455
vt 0.261364 0.568182
vt 0.261364 0.590909
vt 0.261364 0.613636
vt 0.261364 0.636364
vt 0.261364 0.659091
vt 0.261364 0.681818
vt 0.261364 0.704545
vt 0.261364 0.500000
vt 0.284091 0.522727
vt 0.284091 0.545455
vt 0.284091 0.568182
vt 0.284091 0.590909
vt 0.284091 0.613636
vt 0.284091 0.636364
vt 0.284091 0.659091
vt 0.284091 0.681818
vt 0.284091 0.704545
vt 0.284091 0.500000
vt 0.306818 0.522727
vt 0.306818 0.545455
vt 0.306818 0.568182
vt 0.306818 0.590909
vt 0.306818 0.613636
vt 0.306818 0.636364
vt 0.306818 0.659091
vt 0.306818 0.681818
vt 0.306818 0.704545
vt 0.306818 0.500000
vt 0.329545 0.522727
vt 0.329545 0.545455
vt 0.329545 0.568182
vt 0.329545 0.590909
vt 0.329545 0.613636
vt 0.329545 0.636364
vt 0.329545 0.659091
vt 0.329545 0.681818
vt 0.329545 0.704545
vt 0.329545 0.500000
vt 0.352273 0.522727
vt 0.352273 0.545455
vt 0.352273 0.568182
vt 0.352273 0.590909
vt 0.352273 0.613636
vt 0.352273 0.636364
vt 0.352273 0.659091
vt 0.352273 0.681818
vt 0.352273 0.704545
vt 0.352273 0.500000
vt 0.375000 0.522727
vt 0.375000 0.545455
vt 0.375000 0.568182
vt 0.375000 0.590909
vt 0.375000 0.613636
vt 0.375000 0.636364
vt 0.375000 0.659091
vt 0.375000 0.681818
vt 0.375000 0.704545
vt 0.375000 0.727273
vt 0.375000 0.977273
vt 0.397727 1.000000
vt 0.375000 1.000000
vt 0.397727 0.977273
vt 0.420455 1.000000
vt 0.420455 0.977273
vt 0.443182 1.000000
vt 0.443182 0.977273
vt 0.465909 1.000000
vt 0.465909 0.977273
vt 0.488636 1.000000
vt 0.488636 0.977273
vt 0.511364 1.000000
vt 0.511364 0.977273
vt 0.534091 1.000000
vt 0.534091 0.977273
vt 0.556818 1.000000
vt 0.556818 0.977273
vt 0.579545 1.000000
vt 0.579545 0.977273
vt 0.397727 0.772727
vt 0.375000 0.772727
vt 0.397727 0.795455
vt 0.375000 0.795455
vt 0.397727 0.818182
vt 0.375000 0.818182
vt 0.397727 0.840909
vt 0.375000 0.840909
vt 0.397727 0.863636
vt 0.375000 0.863636
vt 0.397727 0.886364
vt 0.375000 0.886364
vt 0.397727 0.909091
vt 0.375000 0.909091
vt 0.397727 0.931818
vt 0.375000 0.931818
vt 0.397727 0.954545
vt 0.375000 0.954545
vt 0.397727 0.750000
vt 0.420455 0.772727
vt 0.420455 0.795455
vt 0.420455 0.818182
vt 0.420455 0.840909
vt 0.420455 0.863636
vt 0.420455 0.886364
vt 0.420455 0.909091
vt 0.420455 0.931818
vt 0.420455 0.954545
vt 0.420455 0.750000
vt 0.443182 0.772727
vt 0.443182 0.795455
vt 0.443182 0.818182
vt 0.443182 0.840909
vt 0.443182 0.863636
vt 0.443182 0.886364
vt 0.443182 0.909091
vt 0.443182 0.931818
vt 0.443182 0.954545
vt 0.443182 0.750000
vt 0.465909 0.772727
vt 0.465909 0.795455
vt 0.465909 0.818182
vt 0.465909 0.840909
vt 0.465909 0.863636
vt 0.465909 0.886364
vt 0.465909 0.909091
vt 0.465909 0.931818
vt 0.465909 0.954545
vt 0.465909 0.750000
vt 0.488636 0.772727
vt 0.488636 0.795455
vt 0.488636 0.818182
vt 0.488636 0.840909
vt 0.488636 0.863636
vt 0.488636 0.886364
vt 0.488636 0.909091
vt 0.488636 0.931818
vt 0.488636 0.954545
vt 0.488636 0.750000
vt 0.511364 0.772727
vt 0.511364 0.795455
vt 0.511364 0.818182
vt 0.511364 0.840909
vt 0.511364 0.863636
vt 0.511364 0.886364
vt 0.511364 0.909091
vt 0.511364 0.931818
vt 0.511364 0.954545
vt 0.511364 0.750000
vt 0.534091 0.772727
vt 0.534091 0.795455
vt 0.534091 0.818182
vt 0.534091 0.840909
vt 0.534091 0.863636
vt 0.534091 0.886364
vt 0.534091 0.909091
vt 0.534091 0.931818
vt 0.534091 0.954545
vt 0.534091 0.750000
vt 0.556818 0.772727
vt 0.556818 0.795455
vt 0.556818 0.818182
vt 0.556818 0.840909
vt 0.556818 0.863636
vt 0.556818 0.886364
vt 0.556818 0.909091
vt 0.556818 0.931818
vt 0.556818 0.954545
vt 0.556818 0.750000
vt 0.579545 0.772727
vt 0.579545 0.795455
vt 0.579545 0.818182
vt 0.579545 0.840909
vt 0.579545 0.863636
vt 0.579545 0.886364
vt 0.579545 0.909091
vt 0.579545 0.931818
vt 0.579545 0.954545
vt 0.579545 0.750000
vt 0.602273 0.772727
vt 0.602273 0.795455
vt 0.602273 0.818182
vt 0.602273 0.840909
vt 0.602273 0.863636
vt 0.602273 0.886364
vt 0.602273 0.909091
vt 0.602273 0.931818
vt 0.602273 0.954545
vt 0.602273 0.750000
vt 0.625000 0.772727
vt 0.625000 0.795455
vt 0.625000 0.818182
vt 0.625000 0.840909
vt 0.625000 0.863636
vt 0.625000 0.886364
vt 0.625000 0.909091
vt 0.625000 0.931818
vt 0.625000 0.954545
vt 0.625000 0.977273
vt 0.375000 0.477273
vt 0.397727 0.500000
vt 0.375000 0.500000
vt 0.397727 0.477273
vt 0.420455 0.500000
vt 0.420455 0.477273
vt 0.443182 0.500000
vt 0.443182 0.477273
vt 0.465909 0.500000
vt 0.465909 0.477273
vt 0.488636 0.500000
vt 0.488636 0.477273
vt 0.511364 0.500000
vt 0.511364 0.477273
vt 0.534091 0.500000
vt 0.534091 0.477273
vt 0.556818 0.500000
vt 0.556818 0.477273
vt 0.579545 0.500000
vt 0.579545 0.477273
vt 0.375000 0.250000
vt 0.397727 0.272727
vt 0.375000 0.272727
vt 0.397727 0.295455
vt 0.375000 0.295455
vt 0.397727 0.318182
vt 0.375000 0.318182
vt 0.397727 0.340909
vt 0.375000 0.340909
vt 0.397727 0.363636
vt 0.375000 0.363636
vt 0.397727 0.386364
vt 0.375000 0.386364
vt 0.397727 0.409091
vt 0.375000 0.409091
vt 0.397727 0.431818
vt 0.375000 0.431818
vt 0.397727 0.454545
vt 0.375000 0.454545
vt 0.397727 0.250000
vt 0.420455 0.272727
vt 0.420455 0.295455
vt 0.420455 0.318182
vt 0.420455 0.340909
vt 0.420455 0.363636
vt 0.420455 0.386364
vt 0.420455 0.409091
vt 0.420455 0.431818
vt 0.420455 0.454545
vt 0.420455 0.250000
vt 0.443182 0.272727
vt 0.443182 0.295455
vt 0.443182 0.318182
vt 0.443182 0.340909
vt 0.443182 0.363636
vt 0.443182 0.386364
vt 0.443182 0.409091
vt 0.443182 0.431818
vt 0.443182 0.454545
vt 0.443182 0.250000
vt 0.465909 0.272727
vt 0.465909 0.295455
vt 0.465909 0.318182
vt 0.465909 0.340909
vt 0.465909 0.363636
vt 0.465909 0.386364
vt 0.465909 0.409091
vt 0.465909 0.431818
vt 0.465909 0.454545
vt 0.465909 0.250000
vt 0.488636 0.272727
vt 0.488636 0.295455
vt 0.488636 0.318182
vt 0.488636 0.340909
vt 0.488636 0.363636
vt 0.488636 0.386364
vt 0.488636 0.409091
vt 0.488636 0.431818
vt 0.488636 0.454545
vt 0.488636 0.250000
vt 0.511364 0.272727
vt 0.511364 0.295455
vt 0.511364 0.318182
vt 0.511364 0.340909
vt 0.511364 0.363636
vt 0.511364 0.386364
vt 0.511364 0.409091
vt 0.511364 0.431818
vt 0.511364 0.454545
vt 0.511364 0.250000
vt 0.534091 0.272727
vt 0.534091 0.295455
vt 0.534091 0.318182
vt 0.534091 0.340909
vt 0.534091 0.363636
vt 0.534091 0.386364
vt 0.534091 0.409091
vt 0.534091 0.431818
vt 0.534091 0.454545
vt 0.534091 0.250000
vt 0.556818 0.272727
vt 0.556818 0.295455
vt 0.556818 0.318182
vt 0.556818 0.340909
vt 0.556818 0.363636
vt 0.556818 0.386364
vt 0.556818 0.409091
vt 0.556818 0.431818
vt 0.556818 0.454545
vt 0.556818 0.250000
vt 0.579545 0.272727
vt 0.579545 0.295455
vt 0.579545 0.318182
vt 0.579545 0.340909
vt 0.579545 0.363636
vt 0.579545 0.386364
vt 0.579545 0.409091
vt 0.579545 0.431818
vt 0.579545 0.454545
vt 0.579545 0.250000
vt 0.602273 0.272727
vt 0.602273 0.295455
vt 0.602273 0.318182
vt 0.602273 0.340909
vt 0.602273 0.363636
vt 0.602273 0.386364
vt 0.602273 0.409091
vt 0.602273 0.431818
vt 0.602273 0.454545
vt 0.625000 0.272727
vt 0.625000 0.295455
vt 0.625000 0.318182
vt 0.625000 0.340909
vt 0.625000 0.363636
vt 0.625000 0.386364
vt 0.625000 0.409091
vt 0.625000 0.431818
vt 0.625000 0.454545
vt 0.625000 0.477273
vt 0.375000 0.227273
vt 0.397727 0.227273
vt 0.420455 0.227273
vt 0.443182 0.227273
vt 0.465909 0.227273
vt 0.488636 0.227273
vt 0.511364 0.227273
vt 0.534091 0.227273
vt 0.556818 0.227273
vt 0.579545 0.227273
vt 0.375000 0.000000
vt 0.397727 0.022727
vt 0.375000 0.022727
vt 0.397727 0.045455
vt 0.375000 0.045455
vt 0.397727 0.068182
vt 0.375000 0.068182
vt 0.397727 0.090909
vt 0.375000 0.090909
vt 0.397727 0.113636
vt 0.375000 0.113636
vt 0.397727 0.136364
vt 0.375000 0.136364
vt 0.397727 0.159091
vt 0.375000 0.159091
vt 0.397727 0.181818
vt 0.375000 0.181818
vt 0.397727 0.204545
vt 0.375000 0.204545
vt 0.397727 0.000000
vt 0.420455 0.022727
vt 0.420454 0.045455
vt 0.420454 0.068182
vt 0.420454 0.090909
vt 0.420455 0.113636
vt 0.420455 0.136364
vt 0.420455 0.159091
vt 0.420455 0.181818
vt 0.420455 0.204545
vt 0.420455 0.000000
vt 0.443182 0.022727
vt 0.443182 0.045455
vt 0.443182 0.068182
vt 0.443182 0.090909
vt 0.443182 0.113636
vt 0.443182 0.136364
vt 0.443182 0.159091
vt 0.443182 0.181818
vt 0.443182 0.204545
vt 0.443182 0.000000
vt 0.465909 0.022727
vt 0.465909 0.045455
vt 0.465909 0.068182
vt 0.465909 0.090909
vt 0.465909 0.113636
vt 0.465909 0.136364
vt 0.465909 0.159091
vt 0.465909 0.181818
vt 0.465909 0.204545
vt 0.465909 0.000000
vt 0.488636 0.022727
vt 0.488636 0.045455
vt 0.488636 0.068182
vt 0.488636 0.090909
vt 0.488636 0.113636
vt 0.488636 0.136364
vt 0.488636 0.159091
vt 0.488636 0.181818
vt 0.488636 0.204545
vt 0.488636 0.000000
vt 0.511364 0.022727
vt 0.511364 0.045455
vt 0.511364 0.068182
vt 0.511364 0.090909
vt 0.511364 0.113636
vt 0.511364 0.136364
vt 0.511364 0.159091
vt 0.511364 0.181818
vt 0.511364 0.204545
vt 0.511364 0.000000
vt 0.534091 0.022727
vt 0.534091 0.045455
vt 0.534091 0.068182
vt 0.534091 0.090909
vt 0.534091 0.113636
vt 0.534091 0.136364
vt 0.534091 0.159091
vt 0.534091 0.181818
vt 0.534091 0.204545
vt 0.534091 0.000000
vt 0.556818 0.022727
vt 0.556818 0.045455
vt 0.556818 0.068182
vt 0.556818 0.090909
vt 0.556818 0.113636
vt 0.556818 0.136364
vt 0.556818 0.159091
vt 0.556818 0.181818
vt 0.556818 0.204545
vt 0.556818 0.000000
vt 0.579545 0.022727
vt 0.579545 0.045455
vt 0.579545 0.068182
vt 0.579545 0.090909
vt 0.579545 0.113636
vt 0.579545 0.136364
vt 0.579545 0.159091
vt 0.579545 0.181818
vt 0.579545 0.204545
vt 0.579545 0.000000
vt 0.602273 0.022727
vt 0.602273 0.045455
vt 0.602273 0.068182
vt 0.602273 0.090909
vt 0.602273 0.113636
vt 0.602273 0.136364
vt 0.602273 0.159091
vt 0.602273 0.181818
vt 0.602273 0.204545
vt 0.602273 0.000000
vt 0.625000 0.022727
vt 0.625000 0.045455
vt 0.625000 0.068182
vt 0.625000 0.090909
vt 0.625000 0.113636
vt 0.625000 0.136364
vt 0.625000 0.159091
vt 0.625000 0.181818
vt 0.625000 0.204545
vt 0.625000 0.227273
vt 0.875000 0.500000
vt 0.625000 0.000000
vn -1.0000 0.0000 0.0000
vn 0.0000 0.0000 -1.0000
vn 0.0000 0.0000 1.0000
vn 0.0000 -1.0000 0.0000
vn 0.0000 1.0000 0.0000
usemtl None
s 1
f 1/1/1 2/2/1 3/3/1
f 4/4/2 5/5/2 6/6/2
f 9/7/3 10/8/3 11/9/3
f 12/10/4 13/11/4 14/12/4
f 15/13/5 10/14/5 16/15/5
f 17/16/5 18/17/5 7/18/5
f 19/19/5 20/20/5 18/17/5
f 21/21/5 22/22/5 20/20/5
f 23/23/5 24/24/5 22/22/5
f 25/25/5 26/26/5 24/24/5
f 27/27/5 28/28/5 26/26/5
f 29/29/5 30/30/5 28/28/5
f 31/31/5 32/32/5 30/30/5
f 33/33/5 34/34/5 32/32/5
f 35/35/5 16/15/5 34/34/5
f 5/5/5 36/36/5 37/37/5
f 37/37/5 38/38/5 39/39/5
f 39/39/5 40/40/5 41/41/5
f 41/41/5 42/42/5 43/43/5
f 43/43/5 44/44/5 45/45/5
f 45/45/5 46/46/5 47/47/5
f 47/47/5 48/48/5 49/49/5
f 49/49/5 50/50/5 51/51/5
f 51/51/5 52/52/5 53/53/5
f 53/53/5 19/19/5 17/16/5
f 54/54/5 55/55/5 36/36/5
f 36/36/5 56/56/5 38/38/5
f 38/38/5 57/57/5 40/40/5
f 40/40/5 58/58/5 42/42/5
f 42/42/5 59/59/5 44/44/5
f 44/44/5 60/60/5 46/46/5
f 46/46/5 61/61/5 48/48/5
f 48/48/5 62/62/5 50/50/5
f 50/50/5 63/63/5 52/52/5
f 52/52/5 21/21/5 19/19/5
f 64/64/5 65/65/5 55/55/5
f 55/55/5 66/66/5 56/56/5
f 56/56/5 67/67/5 57/57/5
f 57/57/5 68/68/5 58/58/5
f 58/58/5 69/69/5 59/59/5
f 59/59/5 70/70/5 60/60/5
f 60/60/5 71/71/5 61/61/5
f 61/61/5 72/72/5 62/62/5
f 62/62/5 73/73/5 63/63/5
f 63/63/5 23/23/5 21/21/5
f 74/74/5 75/75/5 65/65/5
f 65/65/5 76/76/5 66/66/5
f 66/66/5 77/77/5 67/67/5
f 67/67/5 78/78/5 68/68/5
f 68/68/5 79/79/5 69/69/5
f 69/69/5 80/80/5 70/70/5
f 70/70/5 81/81/5 71/71/5
f 71/71/5 82/82/5 72/72/5
f 72/72/5 83/83/5 73/73/5
f 73/73/5 25/25/5 23/23/5
f 84/84/5 85/85/5 75/75/5
f 75/75/5 86/86/5 76/76/5
f 76/76/5 87/87/5 77/77/5
f 77/77/5 88/88/5 78/78/5
f 78/78/5 89/89/5 79/79/5
f 79/79/5 90/90/5 80/80/5
f 80/80/5 91/91/5 81/81/5
f 81/81/5 92/92/5 82/82/5
f 82/82/5 93/93/5 83/83/5
f 83/83/5 27/27/5 25/25/5
f 94/94/5 95/95/5 85/85/5
f 85/85/5 96/96/5 86/86/5
f 86/86/5 97/97/5 87/87/5
f 87/87/5 98/98/5 88/88/5
f 88/88/5 99/99/5 89/89/5
f 89/89/5 100/100/5 90/90/5
f 90/90/5 101/101/5 91/91/5
f 91/91/5 102/102/5 92/92/5
f 92/92/5 103/103/5 93/93/5
f 93/93/5 29/29/5 27/27/5
f 104/104/5 105/105/5 95/95/5
f 95/95/5 106/106/5 96/96/5
f 96/96/5 107/107/5 97/97/5
f 97/97/5 108/108/5 98/98/5
f 98/98/5 109/109/5 99/99/5
f 99/99/5 110/110/5 100/100/5
f 100/100/5 111/111/5 101/101/5
f 101/101/5 112/112/5 102/102/5
f 102/102/5 113/113/5 103/103/5
f 103/103/5 31/31/5 29/29/5
f 114/114/5 115/115/5 105/105/5
f 105/105/5 116/116/5 106/106/5
f 106/106/5 117/117/5 107/107/5
f 107/107/5 118/118/5 108/108/5
f 108/108/5 119/119/5 109/109/5
f 109/109/5 120/120/5 110/110/5
f 110/110/5 121/121/5 111/111/5
f 111/111/5 122/122/5 112/112/5
f 112/112/5 123/123/5 113/113/5
f 113/113/5 33/33/5 31/31/5
f 124/124/5 125/125/5 115/115/5
f 115/115/5 126/126/5 116/116/5
f 116/116/5 127/127/5 117/117/5
f 117/117/5 128/128/5 118/118/5
f 118/118/5 129/129/5 119/119/5
f 119/119/5 130/130/5 120/120/5
f 120/120/5 131/131/5 121/121/5
f 121/121/5 132/132/5 122/122/5
f 122/122/5 133/133/5 123/123/5
f 123/123/5 35/35/5 33/33/5
f 134/134/5 135/135/5 125/125/5
f 125/125/5 136/136/5 126/126/5
f 126/126/5 137/137/5 127/127/5
f 127/127/5 138/138/5 128/128/5
f 128/128/5 139/139/5 129/129/5
f 129/129/5 140/140/5 130/130/5
f 130/130/5 141/141/5 131/131/5
f 131/131/5 142/142/5 132/132/5
f 132/132/5 143/143/5 133/133/5
f 133/133/5 15/13/5 35/35/5
f 144/144/5 145/145/5 135/135/5
f 135/135/5 146/146/5 136/136/5
f 136/136/5 147/147/5 137/137/5
f 137/137/5 148/148/5 138/138/5
f 138/138/5 149/149/5 139/139/5
f 139/139/5 150/150/5 140/140/5
f 140/140/5 151/151/5 141/141/5
f 141/141/5 152/152/5 142/142/5
f 142/142/5 153/153/5 143/143/5
f 143/143/5 154/154/5 15/13/5
f 155/155/4 156/156/4 157/157/4
f 158/158/4 159/159/4 156/156/4
f 160/160/4 161/161/4 159/159/4
f 162/162/4 163/163/4 161/161/4
f 164/164/4 165/165/4 163/163/4
f 166/166/4 167/167/4 165/165/4
f 168/168/4 169/169/4 167/167/4
f 170/170/4 171/171/4 169/169/4
f 172/172/4 173/173/4 171/171/4
f 174/174/4 14/12/4 173/173/4
f 175/175/4 176/176/4 177/177/4
f 177/177/4 178/178/4 179/179/4
f 179/179/4 180/180/4 181/181/4
f 181/181/4 182/182/4 183/183/4
f 183/183/4 184/184/4 185/185/4
f 185/185/4 186/186/4 187/187/4
f 187/187/4 188/188/4 189/189/4
f 189/189/4 190/190/4 191/191/4
f 191/191/4 192/192/4 193/193/4
f 193/193/4 158/158/4 155/155/4
f 194/194/4 195/195/4 176/176/4
f 176/176/4 196/196/4 178/178/4
f 178/178/4 197/197/4 180/180/4
f 180/180/4 198/198/4 182/182/4
f 182/182/4 199/199/4 184/184/4
f 184/184/4 200/200/4 186/186/4
f 186/186/4 201/201/4 188/188/4
f 188/188/4 202/202/4 190/190/4
f 190/190/4 203/203/4 192/192/4
f 192/192/4 160/160/4 158/158/4
f 204/204/4 205/205/4 195/195/4
f 195/195/4 206/206/4 196/196/4
f 196/196/4 207/207/4 197/197/4
f 197/197/4 208/208/4 198/198/4
f 198/198/4 209/209/4 199/199/4
f 199/199/4 210/210/4 200/200/4
f 200/200/4 211/211/4 201/201/4
f 201/201/4 212/212/4 202/202/4
f 202/202/4 213/213/4 203/203/4
f 203/203/4 162/162/4 160/160/4
f 214/214/4 215/215/4 205/205/4
f 205/205/4 216/216/4 206/206/4
f 206/206/4 217/217/4 207/207/4
f 207/207/4 218/218/4 208/208/4
f 208/208/4 219/219/4 209/209/4
f 209/209/4 220/220/4 210/210/4
f 210/210/4 221/221/4 211/211/4
f 211/211/4 222/222/4 212/212/4
f 212/212/4 223/223/4 213/213/4
f 213/213/4 164/164/4 162/162/4
f 224/224/4 225/225/4 215/215/4
f 215/215/4 226/226/4 216/216/4
f 216/216/4 227/227/4 217/217/4
f 217/217/4 228/228/4 218/218/4
f 218/218/4 229/229/4 219/219/4
f 219/219/4 230/230/4 220/220/4
f 220/220/4 231/231/4 221/221/4
f 221/221/4 232/232/4 222/222/4
f 222/222/4 233/233/4 223/223/4
f 223/223/4 166/166/4 164/164/4
f 234/234/4 235/235/4 225/225/4
f 225/225/4 236/236/4 226/226/4
f 226/226/4 237/237/4 227/227/4
f 227/227/4 238/238/4 228/228/4
f 228/228/4 239/239/4 229/229/4
f 229/229/4 240/240/4 230/230/4
f 230/230/4 241/241/4 231/231/4
f 231/231/4 242/242/4 232/232/4
f 232/232/4 243/243/4 233/233/4
f 233/233/4 168/168/4 166/166/4
f 244/244/4 245/245/4 235/235/4
f 235/235/4 246/246/4 236/236/4
f 236/236/4 247/247/4 237/237/4
f 237/237/4 248/248/4 238/238/4
f 238/238/4 249/249/4 239/239/4
f 239/239/4 250/250/4 240/240/4
f 240/240/4 251/251/4 241/241/4
f 241/241/4 252/252/4 242/242/4
f 242/242/4 253/253/4 243/243/4
f 243/243/4 170/170/4 168/168/4
f 254/254/4 255/255/4 245/245/4
f 245/245/4 256/256/4 246/246/4
f 246/246/4 257/257/4 247/247/4
f 247/247/4 258/258/4 248/248/4
f 248/248/4 259/259/4 249/249/4
f 249/249/4 260/260/4 250/250/4
f 250/250/4 261/261/4 251/251/4
f 251/251/4 262/262/4 252/252/4
f 252/252/4 263/263/4 253/253/4
f 253/253/4 172/172/4 170/170/4
f 264/264/4 265/265/4 255/255/4
f 255/255/4 266/266/4 256/256/4
f 256/256/4 267/267/4 257/257/4
f 257/257/4 268/268/4 258/258/4
f 258/258/4 269/269/4 259/259/4
f 259/259/4 270/270/4 260/260/4
f 260/260/4 271/271/4 261/261/4
f 261/261/4 272/272/4 262/262/4
f 262/262/4 273/273/4 263/263/4
f 263/263/4 174/174/4 172/172/4
f 274/274/4 275/275/4 265/265/4
f 265/265/4 276/276/4 266/266/4
f 266/266/4 277/277/4 267/267/4
f 267/267/4 278/278/4 268/268/4
f 268/268/4 279/279/4 269/269/4
f 269/269/4 280/280/4 270/270/4
f 270/270/4 281/281/4 271/271/4
f 271/271/4 282/282/4 272/272/4
f 272/272/4 283/283/4 273/273/4
f 273/273/4 12/10/4 174/174/4
f 284/284/4 285/285/4 275/275/4
f 275/275/4 286/286/4 276/276/4
f 276/276/4 287/287/4 277/277/4
f 277/277/4 288/288/4 278/278/4
f 278/278/4 289/289/4 279/279/4
f 279/279/4 290/290/4 280/280/4
f 280/280/4 291/291/4 281/281/4
f 281/281/4 292/292/4 282/282/4
f 282/282/4 293/293/4 283/283/4
f 283/283/4 294/294/4 12/10/4
f 156/295/3 295/296/3 157/297/3
f 296/298/3 297/299/3 295/296/3
f 298/300/3 299/301/3 297/299/3
f 300/302/3 301/303/3 299/301/3
f 302/304/3 303/305/3 301/303/3
f 304/306/3 305/307/3 303/305/3
f 306/308/3 307/309/3 305/307/3
f 308/310/3 309/311/3 307/309/3
f 310/312/3 311/313/3 309/311/3
f 312/314/3 11/9/3 311/313/3
f 13/11/3 313/315/3 14/316/3
f 14/316/3 314/317/3 173/318/3
f 173/318/3 315/319/3 171/320/3
f 171/320/3 316/321/3 169/322/3
f 169/322/3 317/323/3 167/324/3
f 167/324/3 318/325/3 165/326/3
f 165/326/3 319/327/3 163/328/3
f 163/328/3 320/329/3 161/330/3
f 161/330/3 321/331/3 159/332/3
f 159/332/3 296/298/3 156/295/3
f 322/333/3 323/334/3 313/315/3
f 313/315/3 324/335/3 314/317/3
f 314/317/3 325/336/3 315/319/3
f 315/319/3 326/337/3 316/321/3
f 316/321/3 327/338/3 317/323/3
f 317/323/3 328/339/3 318/325/3
f 318/325/3 329/340/3 319/327/3
f 319/327/3 330/341/3 320/329/3
f 320/329/3 331/342/3 321/331/3
f 321/331/3 298/300/3 296/298/3
f 332/343/3 333/344/3 323/334/3
f 323/334/3 334/345/3 324/335/3
f 324/335/3 335/346/3 325/336/3
f 325/336/3 336/347/3 326/337/3
f 326/337/3 337/348/3 327/338/3
f 327/338/3 338/349/3 328/339/3
f 328/339/3 339/350/3 329/340/3
f 329/340/3 340/351/3 330/341/3
f 330/341/3 341/352/3 331/342/3
f 331/342/3 300/302/3 298/300/3
f 342/353/3 343/354/3 333/344/3
f 333/344/3 344/355/3 334/345/3
f 334/345/3 345/356/3 335/346/3
f 335/346/3 346/357/3 336/347/3
f 336/347/3 347/358/3 337/348/3
f 337/348/3 348/359/3 338/349/3
f 338/349/3 349/360/3 339/350/3
f 339/350/3 350/361/3 340/351/3
f 340/351/3 351/362/3 341/352/3
f 341/352/3 302/304/3 300/302/3
f 352/363/3 353/364/3 343/354/3
f 343/354/3 354/365/3 344/355/3
f 344/355/3 355/366/3 345/356/3
f 345/356/3 356/367/3 346/357/3
f 346/357/3 357/368/3 347/358/3
f 347/358/3 358/369/3 348/359/3
f 348/359/3 359/370/3 349/360/3
f 349/360/3 360/371/3 350/361/3
f 350/361/3 361/372/3 351/362/3
f 351/362/3 304/306/3 302/304/3
f 362/373/3 363/374/3 353/364/3
f 353/364/3 364/375/3 354/365/3
f 354/365/3 365/376/3 355/366/3
f 355/366/3 366/377/3 356/367/3
f 356/367/3 367/378/3 357/368/3
f 357/368/3 368/379/3 358/369/3
f 358/369/3 369/380/3 359/370/3
f 359/370/3 370/381/3 360/371/3
f 360/371/3 371/382/3 361/372/3
f 361/372/3 306/308/3 304/306/3
f 372/383/3 373/384/3 363/374/3
f 363/374/3 374/385/3 364/375/3
f 364/375/3 375/386/3 365/376/3
f 365/376/3 376/387/3 366/377/3
f 366/377/3 377/388/3 367/378/3
f 367/378/3 378/389/3 368/379/3
f 368/379/3 379/390/3 369/380/3
f 369/380/3 380/391/3 370/381/3
f 370/381/3 381/392/3 371/382/3
f 371/382/3 308/310/3 306/308/3
f 382/393/3 383/394/3 373/384/3
f 373/384/3 384/395/3 374/385/3
f 374/385/3 385/396/3 375/386/3
f 375/386/3 386/397/3 376/387/3
f 376/387/3 387/398/3 377/388/3
f 377/388/3 388/399/3 378/389/3
f 378/389/3 389/400/3 379/390/3
f 379/390/3 390/401/3 380/391/3
f 380/391/3 391/402/3 381/392/3
f 381/392/3 310/312/3 308/310/3
f 392/403/3 393/404/3 383/394/3
f 383/394/3 394/405/3 384/395/3
f 384/395/3 395/406/3 385/396/3
f 385/396/3 396/407/3 386/397/3
f 386/397/3 397/408/3 387/398/3
f 387/398/3 398/409/3 388/399/3
f 388/399/3 399/410/3 389/400/3
f 389/400/3 400/411/3 390/401/3
f 390/401/3 401/412/3 391/402/3
f 391/402/3 312/314/3 310/312/3
f 402/413/3 403/414/3 393/404/3
f 393/404/3 404/415/3 394/405/3
f 394/405/3 405/416/3 395/406/3
f 395/406/3 406/417/3 396/407/3
f 396/407/3 407/418/3 397/408/3
f 397/408/3 408/419/3 398/409/3
f 398/409/3 409/420/3 399/410/3
f 399/410/3 410/421/3 400/411/3
f 400/411/3 411/422/3 401/412/3
f 401/412/3 9/7/3 312/314/3
f 8/423/3 18/424/3 403/414/3
f 403/414/3 20/425/3 404/415/3
f 404/415/3 22/426/3 405/416/3
f 405/416/3 24/427/3 406/417/3
f 406/417/3 26/428/3 407/418/3
f 407/418/3 28/429/3 408/419/3
f 408/419/3 30/430/3 409/420/3
f 409/420/3 32/431/3 410/421/3
f 410/421/3 34/432/3 411/422/3
f 411/422/3 16/433/3 9/7/3
f 284/434/2 413/435/2 412/436/2
f 422/437/2 414/438/2 413/435/2
f 423/439/2 415/440/2 414/438/2
f 424/441/2 416/442/2 415/440/2
f 425/443/2 417/444/2 416/442/2
f 426/445/2 418/446/2 417/444/2
f 427/447/2 419/448/2 418/446/2
f 428/449/2 420/450/2 419/448/2
f 429/451/2 421/452/2 420/450/2
f 430/453/2 6/6/2 421/452/2
f 175/454/2 431/455/2 194/456/2
f 194/456/2 432/457/2 204/458/2
f 204/458/2 433/459/2 214/460/2
f 214/460/2 434/461/2 224/462/2
f 224/462/2 435/463/2 234/464/2
f 234/464/2 436/465/2 244/466/2
f 244/466/2 437/467/2 254/468/2
f 254/468/2 438/469/2 264/470/2
f 264/470/2 439/471/2 274/472/2
f 274/472/2 422/437/2 284/434/2
f 440/473/2 441/474/2 431/455/2
f 431/455/2 442/475/2 432/457/2
f 432/457/2 443/476/2 433/459/2
f 433/459/2 444/477/2 434/461/2
f 434/461/2 445/478/2 435/463/2
f 435/463/2 446/479/2 436/465/2
f 436/465/2 447/480/2 437/467/2
f 437/467/2 448/481/2 438/469/2
f 438/469/2 449/482/2 439/471/2
f 439/471/2 423/439/2 422/437/2
f 450/483/2 451/484/2 441/474/2
f 441/474/2 452/485/2 442/475/2
f 442/475/2 453/486/2 443/476/2
f 443/476/2 454/487/2 444/477/2
f 444/477/2 455/488/2 445/478/2
f 445/478/2 456/489/2 446/479/2
f 446/479/2 457/490/2 447/480/2
f 447/480/2 458/491/2 448/481/2
f 448/481/2 459/492/2 449/482/2
f 449/482/2 424/441/2 423/439/2
f 460/493/2 461/494/2 451/484/2
f 451/484/2 462/495/2 452/485/2
f 452/485/2 463/496/2 453/486/2
f 453/486/2 464/497/2 454/487/2
f 454/487/2 465/498/2 455/488/2
f 455/488/2 466/499/2 456/489/2
f 456/489/2 467/500/2 457/490/2
f 457/490/2 468/501/2 458/491/2
f 458/491/2 469/502/2 459/492/2
f 459/492/2 425/443/2 424/441/2
f 470/503/2 471/504/2 461/494/2
f 461/494/2 472/505/2 462/495/2
f 462/495/2 473/506/2 463/496/2
f 463/496/2 474/507/2 464/497/2
f 464/497/2 475/508/2 465/498/2
f 465/498/2 476/509/2 466/499/2
f 466/499/2 477/510/2 467/500/2
f 467/500/2 478/511/2 468/501/2
f 468/501/2 479/512/2 469/502/2
f 469/502/2 426/445/2 425/443/2
f 480/513/2 481/514/2 471/504/2
f 471/504/2 482/515/2 472/505/2
f 472/505/2 483/516/2 473/506/2
f 473/506/2 484/517/2 474/507/2
f 474/507/2 485/518/2 475/508/2
f 475/508/2 486/519/2 476/509/2
f 476/509/2 487/520/2 477/510/2
f 477/510/2 488/521/2 478/511/2
f 478/511/2 489/522/2 479/512/2
f 479/512/2 427/447/2 426/445/2
f 490/523/2 491/524/2 481/514/2
f 481/514/2 492/525/2 482/515/2
f 482/515/2 493/526/2 483/516/2
f 483/516/2 494/527/2 484/517/2
f 484/517/2 495/528/2 485/518/2
f 485/518/2 496/529/2 486/519/2
f 486/519/2 497/530/2 487/520/2
f 487/520/2 498/531/2 488/521/2
f 488/521/2 499/532/2 489/522/2
f 489/522/2 428/449/2 427/447/2
f 500/533/2 501/534/2 491/524/2
f 491/524/2 502/535/2 492/525/2
f 492/525/2 503/536/2 493/526/2
f 493/526/2 504/537/2 494/527/2
f 494/527/2 505/538/2 495/528/2
f 495/528/2 506/539/2 496/529/2
f 496/529/2 507/540/2 497/530/2
f 497/530/2 508/541/2 498/531/2
f 498/531/2 509/542/2 499/532/2
f 499/532/2 429/451/2 428/449/2
f 510/543/2 511/544/2 501/534/2
f 501/534/2 512/545/2 502/535/2
f 502/535/2 513/546/2 503/536/2
f 503/536/2 514/547/2 504/537/2
f 504/537/2 515/548/2 505/538/2
f 505/538/2 516/549/2 506/539/2
f 506/539/2 517/550/2 507/540/2
f 507/540/2 518/551/2 508/541/2
f 508/541/2 519/552/2 509/542/2
f 509/542/2 430/453/2 429/451/2
f 520/553/2 521/554/2 511/544/2
f 511/544/2 522/555/2 512/545/2
f 512/545/2 523/556/2 513/546/2
f 513/546/2 524/557/2 514/547/2
f 514/547/2 525/558/2 515/548/2
f 515/548/2 526/559/2 516/549/2
f 516/549/2 527/560/2 517/550/2
f 517/550/2 528/561/2 518/551/2
f 518/551/2 529/562/2 519/552/2
f 519/552/2 4/4/2 430/453/2
f 3/3/2 144/563/2 521/554/2
f 521/554/2 134/564/2 522/555/2
f 522/555/2 124/565/2 523/556/2
f 523/556/2 114/566/2 524/557/2
f 524/557/2 104/567/2 525/558/2
f 525/558/2 94/568/2 526/559/2
f 526/559/2 84/569/2 527/560/2
f 527/560/2 74/570/2 528/561/2
f 528/561/2 64/571/2 529/562/2
f 529/562/2 54/572/2 4/4/2
f 177/573/1 440/473/1 175/454/1
f 530/574/1 450/483/1 440/473/1
f 531/575/1 460/493/1 450/483/1
f 532/576/1 470/503/1 460/493/1
f 533/577/1 480/513/1 470/503/1
f 534/578/1 490/523/1 480/513/1
f 535/579/1 500/533/1 490/523/1
f 536/580/1 510/543/1 500/533/1
f 537/581/1 520/553/1 510/543/1
f 538/582/1 3/3/1 520/553/1
f 157/583/1 539/584/1 155/585/1
f 155/585/1 540/586/1 193/587/1
f 193/587/1 541/588/1 191/589/1
f 191/589/1 542/590/1 189/591/1
f 189/591/1 543/592/1 187/593/1
f 187/593/1 544/594/1 185/595/1
f 185/595/1 545/596/1 183/597/1
f 183/597/1 546/598/1 181/599/1
f 181/599/1 547/600/1 179/601/1
f 179/601/1 530/574/1 177/573/1
f 295/602/1 548/603/1 539/584/1
f 539/584/1 549/604/1 540/586/1
f 540/586/1 550/605/1 541/588/1
f 541/588/1 551/606/1 542/590/1
f 542/590/1 552/607/1 543/592/1
f 543/592/1 553/608/1 544/594/1
f 544/594/1 554/609/1 545/596/1
f 545/596/1 555/610/1 546/598/1
f 546/598/1 556/611/1 547/600/1
f 547/600/1 531/575/1 530/574/1
f 297/612/1 557/613/1 548/603/1
f 548/603/1 558/614/1 549/604/1
f 549/604/1 559/615/1 550/605/1
f 550/605/1 560/616/1 551/606/1
f 551/606/1 561/617/1 552/607/1
f 552/607/1 562/618/1 553/608/1
f 553/608/1 563/619/1 554/609/1
f 554/609/1 564/620/1 555/610/1
f 555/610/1 565/621/1 556/611/1
f 556/611/1 532/576/1 531/575/1
f 299/622/1 566/623/1 557/613/1
f 557/613/1 567/624/1 558/614/1
f 558/614/1 568/625/1 559/615/1
f 559/615/1 569/626/1 560/616/1
f 560/616/1 570/627/1 561/617/1
f 561/617/1 571/628/1 562/618/1
f 562/618/1 572/629/1 563/619/1
f 563/619/1 573/630/1 564/620/1
f 564/620/1 574/631/1 565/621/1
f 565/621/1 533/577/1 532/576/1
f 301/632/1 575/633/1 566/623/1
f 566/623/1 576/634/1 567/624/1
f 567/624/1 577/635/1 568/625/1
f 568/625/1 578/636/1 569/626/1
f 569/626/1 579/637/1 570/627/1
f 570/627/1 580/638/1 571/628/1
f 571/628/1 581/639/1 572/629/1
f 572/629/1 582/640/1 573/630/1
f 573/630/1 583/641/1 574/631/1
f 574/631/1 534/578/1 533/577/1
f 303/642/1 584/643/1 575/633/1
f 575/633/1 585/644/1 576/634/1
f 576/634/1 586/645/1 577/635/1
f 577/635/1 587/646/1 578/636/1
f 578/636/1 588/647/1 579/637/1
f 579/637/1 589/648/1 580/638/1
f 580/638/1 590/649/1 581/639/1
f 581/639/1 591/650/1 582/640/1
f 582/640/1 592/651/1 583/641/1
f 583/641/1 535/579/1 534/578/1
f 305/652/1 593/653/1 584/643/1
f 584/643/1 594/654/1 585/644/1
f 585/644/1 595/655/1 586/645/1
f 586/645/1 596/656/1 587/646/1
f 587/646/1 597/657/1 588/647/1
f 588/647/1 598/658/1 589/648/1
f 589/648/1 599/659/1 590/649/1
f 590/649/1 600/660/1 591/650/1
f 591/650/1 601/661/1 592/651/1
f 592/651/1 536/580/1 535/579/1
f 307/662/1 602/663/1 593/653/1
f 593/653/1 603/664/1 594/654/1
f 594/654/1 604/665/1 595/655/1
f 595/655/1 605/666/1 596/656/1
f 596/656/1 606/667/1 597/657/1
f 597/657/1 607/668/1 598/658/1
f 598/658/1 608/669/1 599/659/1
f 599/659/1 609/670/1 600/660/1
f 600/660/1 610/671/1 601/661/1
f 601/661/1 537/581/1 536/580/1
f 309/672/1 611/673/1 602/663/1
f 602/663/1 612/674/1 603/664/1
f 603/664/1 613/675/1 604/665/1
f 604/665/1 614/676/1 605/666/1
f 605/666/1 615/677/1 606/667/1
f 606/667/1 616/678/1 607/668/1
f 607/668/1 617/679/1 608/669/1
f 608/669/1 618/680/1 609/670/1
f 609/670/1 619/681/1 610/671/1
f 610/671/1 538/582/1 537/581/1
f 311/682/1 620/683/1 611/673/1
f 611/673/1 621/684/1 612/674/1
f 612/674/1 622/685/1 613/675/1
f 613/675/1 623/686/1 614/676/1
f 614/676/1 624/687/1 615/677/1
f 615/677/1 625/688/1 616/678/1
f 616/678/1 626/689/1 617/679/1
f 617/679/1 627/690/1 618/680/1
f 618/680/1 628/691/1 619/681/1
f 619/681/1 1/1/1 538/582/1
f 11/692/1 154/693/1 620/683/1
f 620/683/1 153/694/1 621/684/1
f 621/684/1 152/695/1 622/685/1
f 622/685/1 151/696/1 623/686/1
f 623/686/1 150/697/1 624/687/1
f 624/687/1 149/698/1 625/688/1
f 625/688/1 148/699/1 626/689/1
f 626/689/1 147/700/1 627/690/1
f 627/690/1 146/701/1 628/691/1
f 628/691/1 145/702/1 1/1/1
f 1/1/1 145/702/1 2/2/1
f 4/4/2 54/572/2 5/5/2
f 9/7/3 16/433/3 10/8/3
f 12/10/4 294/294/4 13/11/4
f 15/13/5 154/154/5 10/14/5
f 17/16/5 19/19/5 18/17/5
f 19/19/5 21/21/5 20/20/5
f 21/21/5 23/23/5 22/22/5
f 23/23/5 25/25/5 24/24/5
f 25/25/5 27/27/5 26/26/5
f 27/27/5 29/29/5 28/28/5
f 29/29/5 31/31/5 30/30/5
f 31/31/5 33/33/5 32/32/5
f 33/33/5 35/35/5 34/34/5
f 35/35/5 15/13/5 16/15/5
f 5/5/5 54/54/5 36/36/5
f 37/37/5 36/36/5 38/38/5
f 39/39/5 38/38/5 40/40/5
f 41/41/5 40/40/5 42/42/5
f 43/43/5 42/42/5 44/44/5
f 45/45/5 44/44/5 46/46/5
f 47/47/5 46/46/5 48/48/5
f 49/49/5 48/48/5 50/50/5
f 51/51/5 50/50/5 52/52/5
f 53/53/5 52/52/5 19/19/5
f 54/54/5 64/64/5 55/55/5
f 36/36/5 55/55/5 56/56/5
f 38/38/5 56/56/5 57/57/5
f 40/40/5 57/57/5 58/58/5
f 42/42/5 58/58/5 59/59/5
f 44/44/5 59/59/5 60/60/5
f 46/46/5 60/60/5 61/61/5
f 48/48/5 61/61/5 62/62/5
f 50/50/5 62/62/5 63/63/5
f 52/52/5 63/63/5 21/21/5
f 64/64/5 74/74/5 65/65/5
f 55/55/5 65/65/5 66/66/5
f 56/56/5 66/66/5 67/67/5
f 57/57/5 67/67/5 68/68/5
f 58/58/5 68/68/5 69/69/5
f 59/59/5 69/69/5 70/70/5
f 60/60/5 70/70/5 71/71/5
f 61/61/5 71/71/5 72/72/5
f 62/62/5 72/72/5 73/73/5
f 63/63/5 73/73/5 23/23/5
f 74/74/5 84/84/5 75/75/5
f 65/65/5 75/75/5 76/76/5
f 66/66/5 76/76/5 77/77/5
f 67/67/5 77/77/5 78/78/5
f 68/68/5 78/78/5 79/79/5
f 69/69/5 79/79/5 80/80/5
f 70/70/5 80/80/5 81/81/5
f 71/71/5 81/81/5 82/82/5
f 72/72/5 82/82/5 83/83/5
f 73/73/5 83/83/5 25/25/5
f 84/84/5 94/94/5 85/85/5
f 75/75/5 85/85/5 86/86/5
f 76/76/5 86/86/5 87/87/5
f 77/77/5 87/87/5 88/88/5
f 78/78/5 88/88/5 89/89/5
f 79/79/5 89/89/5 90/90/5
f 80/80/5 90/90/5 91/91/5
f 81/81/5 91/91/5 92/92/5
f 82/82/5 92/92/5 93/93/5
f 83/83/5 93/93/5 27/27/5
f 94/94/5 104/104/5 95/95/5
f 85/85/5 95/95/5 96/96/5
f 86/86/5 96/96/5 97/97/5
f 87/87/5 97/97/5 98/98/5
f 88/88/5 98/98/5 99/99/5
f 89/89/5 99/99/5 100/100/5
f 90/90/5 100/100/5 101/101/5
f 91/91/5 101/101/5 102/102/5
f 92/92/5 102/102/5 103/103/5
f 93/93/5 103/103/5 29/29/5
f 104/104/5 114/114/5 105/105/5
f 95/95/5 105/105/5 106/106/5
f 96/96/5 106/106/5 107/107/5
f 97/97/5 107/107/5 108/108/5
f 98/98/5 108/108/5 109/109/5
f 99/99/5 109/109/5 110/110/5
f 100/100/5 110/110/5 111/111/5
f 101/101/5 111/111/5 112/112/5
f 102/102/5 112/112/5 113/113/5
f 103/103/5 113/113/5 31/31/5
f 114/114/5 124/124/5 115/115/5
f 105/105/5 115/115/5 116/116/5
f 106/106/5 116/116/5 117/117/5
f 107/107/5 117/117/5 118/118/5
f 108/108/5 118/118/5 119/119/5
f 109/109/5 119/119/5 120/120/5
f 110/110/5 120/120/5 121/121/5
f 111/111/5 121/121/5 122/122/5
f 112/112/5 122/122/5 123/123/5
f 113/113/5 123/123/5 33/33/5
f 124/124/5 134/134/5 125/125/5
f 115/115/5 125/125/5 126/126/5
f 116/116/5 126/126/5 127/127/5
f 117/117/5 127/127/5 128/128/5
f 118/118/5 128/128/5 129/129/5
f 119/119/5 129/129/5 130/130/5
f 120/120/5 130/130/5 131/131/5
f 121/121/5 131/131/5 132/132/5
f 122/122/5 132/132/5 133/133/5
f 123/123/5 133/133/5 35/35/5
f 134/134/5 144/144/5 135/135/5
f 125/125/5 135/135/5 136/136/5
f 126/126/5 136/136/5 137/137/5
f 127/127/5 137/137/5 138/138/5
f 128/128/5 138/138/5 139/139/5
f 129/129/5 139/139/5 140/140/5
f 130/130/5 140/140/5 141/141/5
f 131/131/5 141/141/5 142/142/5
f 132/132/5 142/142/5 143/143/5
f 133/133/5 143/143/5 15/13/5
f 144/144/5 2/703/5 145/145/5
f 135/135/5 145/145/5 146/146/5
f 136/136/5 146/146/5 147/147/5
f 137/137/5 147/147/5 148/148/5
f 138/138/5 148/148/5 149/149/5
f 139/139/5 149/149/5 150/150/5
f 140/140/5 150/150/5 151/151/5
f 141/141/5 151/151/5 152/152/5
f 142/142/5 152/152/5 153/153/5
f 143/143/5 153/153/5 154/154/5
f 155/155/4 158/158/4 156/156/4
f 158/158/4 160/160/4 159/159/4
f 160/160/4 162/162/4 161/161/4
f 162/162/4 164/164/4 163/163/4
f 164/164/4 166/166/4 165/165/4
f 166/166/4 168/168/4 167/167/4
f 168/168/4 170/170/4 169/169/4
f 170/170/4 172/172/4 171/171/4
f 172/172/4 174/174/4 173/173/4
f 174/174/4 12/10/4 14/12/4
f 175/175/4 194/194/4 176/176/4
f 177/177/4 176/176/4 178/178/4
f 179/179/4 178/178/4 180/180/4
f 181/181/4 180/180/4 182/182/4
f 183/183/4 182/182/4 184/184/4
f 185/185/4 184/184/4 186/186/4
f 187/187/4 186/186/4 188/188/4
f 189/189/4 188/188/4 190/190/4
f 191/191/4 190/190/4 192/192/4
f 193/193/4 192/192/4 158/158/4
f 194/194/4 204/204/4 195/195/4
f 176/176/4 195/195/4 196/196/4
f 178/178/4 196/196/4 197/197/4
f 180/180/4 197/197/4 198/198/4
f 182/182/4 198/198/4 199/199/4
f 184/184/4 199/199/4 200/200/4
f 186/186/4 200/200/4 201/201/4
f 188/188/4 201/201/4 202/202/4
f 190/190/4 202/202/4 203/203/4
f 192/192/4 203/203/4 160/160/4
f 204/204/4 214/214/4 205/205/4
f 195/195/4 205/205/4 206/206/4
f 196/196/4 206/206/4 207/207/4
f 197/197/4 207/207/4 208/208/4
f 198/198/4 208/208/4 209/209/4
f 199/199/4 209/209/4 210/210/4
f 200/200/4 210/210/4 211/211/4
f 201/201/4 211/211/4 212/212/4
f 202/202/4 212/212/4 213/213/4
f 203/203/4 213/213/4 162/162/4
f 214/214/4 224/224/4 215/215/4
f 205/205/4 215/215/4 216/216/4
f 206/206/4 216/216/4 217/217/4
f 207/207/4 217/217/4 218/218/4
f 208/208/4 218/218/4 219/219/4
f 209/209/4 219/219/4 220/220/4
f 210/210/4 220/220/4 221/221/4
f 211/211/4 221/221/4 222/222/4
f 212/212/4 222/222/4 223/223/4
f 213/213/4 223/223/4 164/164/4
f 224/224/4 234/234/4 225/225/4
f 215/215/4 225/225/4 226/226/4
f 216/216/4 226/226/4 227/227/4
f 217/217/4 227/227/4 228/228/4
f 218/218/4 228/228/4 229/229/4
f 219/219/4 229/229/4 230/230/4
f 220/220/4 230/230/4 231/231/4
f 221/221/4 231/231/4 232/232/4
f 222/222/4 232/232/4 233/233/4
f 223/223/4 233/233/4 166/166/4
f 234/234/4 244/244/4 235/235/4
f 225/225/4 235/235/4 236/236/4
f 226/226/4 236/236/4 237/237/4
f 227/227/4 237/237/4 238/238/4
f 228/228/4 238/238/4 239/239/4
f 229/229/4 239/239/4 240/240/4
f 230/230/4 240/240/4 241/241/4
f 231/231/4 241/241/4 242/242/4
f 232/232/4 242/242/4 243/243/4
f 233/233/4 243/243/4 168/168/4
f 244/244/4 254/254/4 245/245/4
f 235/235/4 245/245/4 246/246/4
f 236/236/4 246/246/4 247/247/4
f 237/237/4 247/247/4 248/248/4
f 238/238/4 248/248/4 249/249/4
f 239/239/4 249/249/4 250/250/4
f 240/240/4 250/250/4 251/251/4
f 241/241/4 251/251/4 252/252/4
f 242/242/4 252/252/4 253/253/4
f 243/243/4 253/253/4 170/170/4
f 254/254/4 264/264/4 255/255/4
f 245/245/4 255/255/4 256/256/4
f 246/246/4 256/256/4 257/257/4
f 247/247/4 257/257/4 258/258/4
f 248/248/4 258/258/4 259/259/4
f 249/249/4 259/259/4 260/260/4
f 250/250/4 260/260/4 261/261/4
f 251/251/4 261/261/4 262/262/4
f 252/252/4 262/262/4 263/263/4
f 253/253/4 263/263/4 172/172/4
f 264/264/4 274/274/4 265/265/4
f 255/255/4 265/265/4 266/266/4
f 256/256/4 266/266/4 267/267/4
f 257/257/4 267/267/4 268/268/4
f 258/258/4 268/268/4 269/269/4
f 259/259/4 269/269/4 270/270/4
f 260/260/4 270/270/4 271/271/4
f 261/261/4 271/271/4 272/272/4
f 262/262/4 272/272/4 273/273/4
f 263/263/4 273/273/4 174/174/4
f 274/274/4 284/284/4 275/275/4
f 265/265/4 275/275/4 276/276/4
f 266/266/4 276/276/4 277/277/4
f 267/267/4 277/277/4 278/278/4
f 268/268/4 278/278/4 279/279/4
f 269/269/4 279/279/4 280/280/4
f 270/270/4 280/280/4 281/281/4
f 271/271/4 281/281/4 282/282/4
f 272/272/4 282/282/4 283/283/4
f 273/273/4 283/283/4 12/10/4
f 284/284/4 412/436/4 285/285/4
f 275/275/4 285/285/4 286/286/4
f 276/276/4 286/286/4 287/287/4
f 277/277/4 287/287/4 288/288/4
f 278/278/4 288/288/4 289/289/4
f 279/279/4 289/289/4 290/290/4
f 280/280/4 290/290/4 291/291/4
f 281/281/4 291/291/4 292/292/4
f 282/282/4 292/292/4 293/293/4
f 283/283/4 293/293/4 294/294/4
f 156/295/3 296/298/3 295/296/3
f 296/298/3 298/300/3 297/299/3
f 298/300/3 300/302/3 299/301/3
f 300/302/3 302/304/3 301/303/3
f 302/304/3 304/306/3 303/305/3
f 304/306/3 306/308/3 305/307/3
f 306/308/3 308/310/3 307/309/3
f 308/310/3 310/312/3 309/311/3
f 310/312/3 312/314/3 311/313/3
f 312/314/3 9/7/3 11/9/3
f 13/11/3 322/333/3 313/315/3
f 14/316/3 313/315/3 314/317/3
f 173/318/3 314/317/3 315/319/3
f 171/320/3 315/319/3 316/321/3
f 169/322/3 316/321/3 317/323/3
f 167/324/3 317/323/3 318/325/3
f 165/326/3 318/325/3 319/327/3
f 163/328/3 319/327/3 320/329/3
f 161/330/3 320/329/3 321/331/3
f 159/332/3 321/331/3 296/298/3
f 322/333/3 332/343/3 323/334/3
f 313/315/3 323/334/3 324/335/3
f 314/317/3 324/335/3 325/336/3
f 315/319/3 325/336/3 326/337/3
f 316/321/3 326/337/3 327/338/3
f 317/323/3 327/338/3 328/339/3
f 318/325/3 328/339/3 329/340/3
f 319/327/3 329/340/3 330/341/3
f 320/329/3 330/341/3 331/342/3
f 321/331/3 331/342/3 298/300/3
f 332/343/3 342/353/3 333/344/3
f 323/334/3 333/344/3 334/345/3
f 324/335/3 334/345/3 335/346/3
f 325/336/3 335/346/3 336/347/3
f 326/337/3 336/347/3 337/348/3
f 327/338/3 337/348/3 338/349/3
f 328/339/3 338/349/3 339/350/3
f 329/340/3 339/350/3 340/351/3
f 330/341/3 340/351/3 341/352/3
f 331/342/3 341/352/3 300/302/3
f 342/353/3 352/363/3 343/354/3
f 333/344/3 343/354/3 344/355/3
f 334/345/3 344/355/3 345/356/3
f 335/346/3 345/356/3 346/357/3
f 336/347/3 346/357/3 347/358/3
f 337/348/3 347/358/3 348/359/3
f 338/349/3 348/359/3 349/360/3
f 339/350/3 349/360/3 350/361/3
f 340/351/3 350/361/3 351/362/3
f 341/352/3 351/362/3 302/304/3
f 352/363/3 362/373/3 353/364/3
f 343/354/3 353/364/3 354/365/3
f 344/355/3 354/365/3 355/366/3
f 345/356/3 355/366/3 356/367/3
f 346/357/3 356/367/3 357/368/3
f 347/358/3 357/368/3 358/369/3
f 348/359/3 358/369/3 359/370/3
f 349/360/3 359/370/3 360/371/3
f 350/361/3 360/371/3 361/372/3
f 351/362/3 361/372/3 304/306/3
f 362/373/3 372/383/3 363/374/3
f 353/364/3 363/374/3 364/375/3
f 354/365/3 364/375/3 365/376/3
f 355/366/3 365/376/3 366/377/3
f 356/367/3 366/377/3 367/378/3
f 357/368/3 367/378/3 368/379/3
f 358/369/3 368/379/3 369/380/3
f 359/370/3 369/380/3 370/381/3
f 360/371/3 370/381/3 371/382/3
f 361/372/3 371/382/3 306/308/3
f 372/383/3 382/393/3 373/384/3
f 363/374/3 373/384/3 374/385/3
f 364/375/3 374/385/3 375/386/3
f 365/376/3 375/386/3 376/387/3
f 366/377/3 376/387/3 377/388/3
f 367/378/3 377/388/3 378/389/3
f 368/379/3 378/389/3 379/390/3
f 369/380/3 379/390/3 380/391/3
f 370/381/3 380/391/3 381/392/3
f 371/382/3 381/392/3 308/310/3
f 382/393/3 392/403/3 383/394/3
f 373/384/3 383/394/3 384/395/3
f 374/385/3 384/395/3 385/396/3
f 375/386/3 385/396/3 386/397/3
f 376/387/3 386/397/3 387/398/3
f 377/388/3 387/398/3 388/399/3
f 378/389/3 388/399/3 389/400/3
f 379/390/3 389/400/3 390/401/3
f 380/391/3 390/401/3 391/402/3
f 381/392/3 391/402/3 310/312/3
f 392/403/3 402/413/3 393/404/3
f 383/394/3 393/404/3 394/405/3
f 384/395/3 394/405/3 395/406/3
f 385/396/3 395/406/3 396/407/3
f 386/397/3 396/407/3 397/408/3
f 387/398/3 397/408/3 398/409/3
f 388/399/3 398/409/3 399/410/3
f 389/400/3 399/410/3 400/411/3
f 390/401/3 400/411/3 401/412/3
f 391/402/3 401/412/3 312/314/3
f 402/413/3 8/423/3 403/414/3
f 393/404/3 403/414/3 404/415/3
f 394/405/3 404/415/3 405/416/3
f 395/406/3 405/416/3 406/417/3
f 396/407/3 406/417/3 407/418/3
f 397/408/3 407/418/3 408/419/3
f 398/409/3 408/419/3 409/420/3
f 399/410/3 409/420/3 410/421/3
f 400/411/3 410/421/3 411/422/3
f 401/412/3 411/422/3 9/7/3
f 8/423/3 7/18/3 18/424/3
f 403/414/3 18/424/3 20/425/3
f 404/415/3 20/425/3 22/426/3
f 405/416/3 22/426/3 24/427/3
f 406/417/3 24/427/3 26/428/3
f 407/418/3 26/428/3 28/429/3
f 408/419/3 28/429/3 30/430/3
f 409/420/3 30/430/3 32/431/3
f 410/421/3 32/431/3 34/432/3
f 411/422/3 34/432/3 16/433/3
f 284/434/2 422/437/2 413/435/2
f 422/437/2 423/439/2 414/438/2
f 423/439/2 424/441/2 415/440/2
f 424/441/2 425/443/2 416/442/2
f 425/443/2 426/445/2 417/444/2
f 426/445/2 427/447/2 418/446/2
f 427/447/2 428/449/2 419/448/2
f 428/449/2 429/451/2 420/450/2
f 429/451/2 430/453/2 421/452/2
f 430/453/2 4/4/2 6/6/2
f 175/454/2 440/473/2 431/455/2
f 194/456/2 431/455/2 432/457/2
f 204/458/2 432/457/2 433/459/2
f 214/460/2 433/459/2 434/461/2
f 224/462/2 434/461/2 435/463/2
f 234/464/2 435/463/2 436/465/2
f 244/466/2 436/465/2 437/467/2
f 254/468/2 437/467/2 438/469/2
f 264/470/2 438/469/2 439/471/2
f 274/472/2 439/471/2 422/437/2
f 440/473/2 450/483/2 441/474/2
f 431/455/2 441/474/2 442/475/2
f 432/457/2 442/475/2 443/476/2
f 433/459/2 443/476/2 444/477/2
f 434/461/2 444/477/2 445/478/2
f 435/463/2 445/478/2 446/479/2
f 436/465/2 446/479/2 447/480/2
f 437/467/2 447/480/2 448/481/2
f 438/469/2 448/481/2 449/482/2
f 439/471/2 449/482/2 423/439/2
f 450/483/2 460/493/2 451/484/2
f 441/474/2 451/484/2 452/485/2
f 442/475/2 452/485/2 453/486/2
f 443/476/2 453/486/2 454/487/2
f 444/477/2 454/487/2 455/488/2
f 445/478/2 455/488/2 456/489/2
f 446/479/2 456/489/2 457/490/2
f 447/480/2 457/490/2 458/491/2
f 448/481/2 458/491/2 459/492/2
f 449/482/2 459/492/2 424/441/2
f 460/493/2 470/503/2 461/494/2
f 451/484/2 461/494/2 462/495/2
f 452/485/2 462/495/2 463/496/2
f 453/486/2 463/496/2 464/497/2
f 454/487/2 464/497/2 465/498/2
f 455/488/2 465/498/2 466/499/2
f 456/489/2 466/499/2 467/500/2
f 457/490/2 467/500/2 468/501/2
f 458/491/2 468/501/2 469/502/2
f 459/492/2 469/502/2 425/443/2
f 470/503/2 480/513/2 471/504/2
f 461/494/2 471/504/2 472/505/2
f 462/495/2 472/505/2 473/506/2
f 463/496/2 473/506/2 474/507/2
f 464/497/2 474/507/2 475/508/2
f 465/498/2 475/508/2 476/509/2
f 466/499/2 476/509/2 477/510/2
f 467/500/2 477/510/2 478/511/2
f 468/501/2 478/511/2 479/512/2
f 469/502/2 479/512/2 426/445/2
f 480/513/2 490/523/2 481/514/2
f 471/504/2 481/514/2 482/515/2
f 472/505/2 482/515/2 483/516/2
f 473/506/2 483/516/2 484/517/2
f 474/507/2 484/517/2 485/518/2
f 475/508/2 485/518/2 486/519/2
f 476/509/2 486/519/2 487/520/2
f 477/510/2 487/520/2 488/521/2
f 478/511/2 488/521/2 489/522/2
f 479/512/2 489/522/2 427/447/2
f 490/523/2 500/533/2 491/524/2
f 481/514/2 491/524/2 492/525/2
f 482/515/2 492/525/2 493/526/2
f 483/516/2 493/526/2 494/527/2
f 484/517/2 494/527/2 495/528/2
f 485/518/2 495/528/2 496/529/2
f 486/519/2 496/529/2 497/530/2
f 487/520/2 497/530/2 498/531/2
f 488/521/2 498/531/2 499/532/2
f 489/522/2 499/532/2 428/449/2
f 500/533/2 510/543/2 501/534/2
f 491/524/2 501/534/2 502/535/2
f 492/525/2 502/535/2 503/536/2
f 493/526/2 503/536/2 504/537/2
f 494/527/2 504/537/2 505/538/2
f 495/528/2 505/538/2 506/539/2
f 496/529/2 506/539/2 507/540/2
f 497/530/2 507/540/2 508/541/2
f 498/531/2 508/541/2 509/542/2
f 499/532/2 509/542/2 429/451/2
f 510/543/2 520/553/2 511/544/2
f 501/534/2 511/544/2 512/545/2
f 502/535/2 512/545/2 513/546/2
f 503/536/2 513/546/2 514/547/2
f 504/537/2 514/547/2 515/548/2
f 505/538/2 515/548/2 516/549/2
f 506/539/2 516/549/2 517/550/2
f 507/540/2 517/550/2 518/551/2
f 508/541/2 518/551/2 519/552/2
f 509/542/2 519/552/2 430/453/2
f 520/553/2 3/3/2 521/554/2
f 511/544/2 521/554/2 522/555/2
f 512/545/2 522/555/2 523/556/2
f 513/546/2 523/556/2 524/557/2
f 514/547/2 524/557/2 525/558/2
f 515/548/2 525/558/2 526/559/2
f 516/549/2 526/559/2 527/560/2
f 517/550/2 527/560/2 528/561/2
f 518/551/2 528/561/2 529/562/2
f 519/552/2 529/562/2 4/4/2
f 3/3/2 2/2/2 144/563/2
f 521/554/2 144/563/2 134/564/2
f 522/555/2 134/564/2 124/565/2
f 523/556/2 124/565/2 114/566/2
f 524/557/2 114/566/2 104/567/2
f 525/558/2 104/567/2 94/568/2
f 526/559/2 94/568/2 84/569/2
f 527/560/2 84/569/2 74/570/2
f 528/561/2 74/570/2 64/571/2
f 529/562/2 64/571/2 54/572/2
f 177/573/1 530/574/1 440/473/1
f 530/574/1 531/575/1 450/483/1
f 531/575/1 532/576/1 460/493/1
f 532/576/1 533/577/1 470/503/1
f 533/577/1 534/578/1 480/513/1
f 534/578/1 535/579/1 490/523/1
f 535/579/1 536/580/1 500/533/1
f 536/580/1 537/581/1 510/543/1
f 537/581/1 538/582/1 520/553/1
f 538/582/1 1/1/1 3/3/1
f 157/583/1 295/602/1 539/584/1
f 155/585/1 539/584/1 540/586/1
f 193/587/1 540/586/1 541/588/1
f 191/589/1 541/588/1 542/590/1
f 189/591/1 542/590/1 543/592/1
f 187/593/1 543/592/1 544/594/1
f 185/595/1 544/594/1 545/596/1
f 183/597/1 545/596/1 546/598/1
f 181/599/1 546/598/1 547/600/1
f 179/601/1 547/600/1 530/574/1
f 295/602/1 297/612/1 548/603/1
f 539/584/1 548/603/1 549/604/1
f 540/586/1 549/604/1 550/605/1
f 541/588/1 550/605/1 551/606/1
f 542/590/1 551/606/1 552/607/1
f 543/592/1 552/607/1 553/608/1
f 544/594/1 553/608/1 554/609/1
f 545/596/1 554/609/1 555/610/1
f 546/598/1 555/610/1 556/611/1
f 547/600/1 556/611/1 531/575/1
f 297/612/1 299/622/1 557/613/1
f 548/603/1 557/613/1 558/614/1
f 549/604/1 558/614/1 559/615/1
f 550/605/1 559/615/1 560/616/1
f 551/606/1 560/616/1 561/617/1
f 552/607/1 561/617/1 562/618/1
f 553/608/1 562/618/1 563/619/1
f 554/609/1 563/619/1 564/620/1
f 555/610/1 564/620/1 565/621/1
f 556/611/1 565/621/1 532/576/1
f 299/622/1 301/632/1 566/623/1
f 557/613/1 566/623/1 567/624/1
f 558/614/1 567/624/1 568/625/1
f 559/615/1 568/625/1 569/626/1
f 560/616/1 569/626/1 570/627/1
f 561/617/1 570/627/1 571/628/1
f 562/618/1 571/628/1 572/629/1
f 563/619/1 572/629/1 573/630/1
f 564/620/1 573/630/1 574/631/1
f 565/621/1 574/631/1 533/577/1
f 301/632/1 303/642/1 575/633/1
f 566/623/1 575/633/1 576/634/1
f 567/624/1 576/634/1 577/635/1
f 568/625/1 577/635/1 578/636/1
f 569/626/1 578/636/1 579/637/1
f 570/627/1 579/637/1 580/638/1
f 571/628/1 580/638/1 581/639/1
f 572/629/1 581/639/1 582/640/1
f 573/630/1 582/640/1 583/641/1
f 574/631/1 583/641/1 534/578/1
f 303/642/1 305/652/1 584/643/1
f 575/633/1 584/643/1 585/644/1
f 576/634/1 585/644/1 586/645/1
f 577/635/1 586/645/1 587/646/1
f 578/636/1 587/646/1 588/647/1
f 579/637/1 588/647/1 589/648/1
f 580/638/1 589/648/1 590/649/1
f 581/639/1 590/649/1 591/650/1
f 582/640/1 591/650/1 592/651/1
f 583/641/1 592/651/1 535/579/1
f 305/652/1 307/662/1 593/653/1
f 584/643/1 593/653/1 594/654/1
f 585/644/1 594/654/1 595/655/1
f 586/645/1 595/655/1 596/656/1
f 587/646/1 596/656/1 597/657/1
f 588/647/1 597/657/1 598/658/1
f 589/648/1 598/658/1 599/659/1
f 590/649/1 599/659/1 600/660/1
f 591/650/1 600/660/1 601/661/1
f 592/651/1 601/661/1 536/580/1
f 307/662/1 309/672/1 602/663/1
f 593/653/1 602/663/1 603/664/1
f 594/654/1 603/664/1 604/665/1
f 595/655/1 604/665/1 605/666/1
f 596/656/1 605/666/1 606/667/1
f 597/657/1 606/667/1 607/668/1
f 598/658/1 607/668/1 608/669/1
f 599/659/1 608/669/1 609/670/1
f 600/660/1 609/670/1 610/671/1
f 601/661/1 610/671/1 537/581/1
f 309/672/1 311/682/1 611/673/1
f 602/663/1 611/673/1 612/674/1
f 603/664/1 612/674/1 613/675/1
f 604/665/1 613/675/1 614/676/1
f 605/666/1 614/676/1 615/677/1
f 606/667/1 615/677/1 616/678/1
f 607/668/1 616/678/1 617/679/1
f 608/669/1 617/679/1 618/680/1
f 609/670/1 618/680/1 619/681/1
f 610/671/1 619/681/1 538/582/1
f 311/682/1 11/692/1 620/683/1
f 611/673/1 620/683/1 621/684/1
f 612/674/1 621/684/1 622/685/1
f 613/675/1 622/685/1 623/686/1
f 614/676/1 623/686/1 624/687/1
f 615/677/1 624/687/1 625/688/1
f 616/678/1 625/688/1 626/689/1
f 617/679/1 626/689/1 627/690/1
f 618/680/1 627/690/1 628/691/1
f 619/681/1 628/691/1 1/1/1
f 11/692/1 10/704/1 154/693/1
f 620/683/1 154/693/1 153/694/1
f 621/684/1 153/694/1 152/695/1
f 622/685/1 152/695/1 151/696/1
f 623/686/1 151/696/1 150/697/1
f 624/687/1 150/697/1 149/698/1
f 625/688/1 149/698/1 148/699/1
f 626/689/1 148/699/1 147/700/1
f 627/690/1 147/700/1 146/701/1
f 628/691/1 146/701/1 145/702/1
