# Blender v3.1.2 OBJ File: ''
# www.blender.org
mtllib cubeOpenCut.mtl
o Cube_Cube.001
v -1.000000 0.818182 -0.818182
v -1.000000 1.000000 -1.000000
v -1.000000 0.818182 -1.000000
v 0.818182 0.818182 -1.000000
v 1.000000 0.818182 -1.000000
v 1.000000 0.818182 1.000000
v -0.818182 0.818182 1.000000
v -1.000000 1.000000 1.000000
v -1.000000 0.818182 1.000000
v 0.818182 -1.000000 0.818182
v -0.818182 1.000000 0.818182
v 1.000000 1.000000 0.818182
v 0.818182 1.000000 0.818182
v 0.636364 1.000000 0.818182
v 0.454545 1.000000 0.818182
v 0.272727 1.000000 0.818182
v 0.090909 1.000000 0.818182
v -0.090909 1.000000 0.818182
v -0.272727 1.000000 0.818182
v -0.454545 1.000000 0.818182
v -0.636364 1.000000 0.818182
v 0.818182 1.000000 -0.818182
v 1.000000 1.000000 -0.818182
v 0.818182 1.000000 -0.636364
v 1.000000 1.000000 -0.636364
v 0.818182 1.000000 -0.454545
v 1.000000 1.000000 -0.454545
v 0.818182 1.000000 -0.272727
v 1.000000 1.000000 -0.272727
v 0.818182 1.000000 -0.090909
v 1.000000 1.000000 -0.090909
v 0.818182 1.000000 0.090909
v 1.000000 1.000000 0.090909
v 0.818182 1.000000 0.272727
v 1.000000 1.000000 0.272727
v 0.818182 1.000000 0.454545
v 1.000000 1.000000 0.454545
v 0.818182 1.000000 0.636364
v 1.000000 1.000000 0.636364
v 0.636364 1.000000 -0.818182
v 0.636364 1.000000 -0.636364
v 0.636364 1.000000 -0.454545
v 0.636364 1.000000 -0.272727
v 0.636364 1.000000 -0.090909
v 0.636364 1.000000 0.090909
v 0.636364 1.000000 0.272727
v 0.636364 1.000000 0.454545
v 0.636364 1.000000 0.636364
v 0.454545 1.000000 -0.818182
v 0.454545 1.000000 -0.636364
v 0.454545 1.000000 -0.454545
v 0.454545 1.000000 -0.272727
v 0.454545 1.000000 -0.090909
v 0.454545 1.000000 0.090909
v 0.454545 1.000000 0.272727
v 0.454545 1.000000 0.454545
v 0.454545 1.000000 0.636364
v 0.272727 1.000000 -0.818182
v 0.272727 1.000000 -0.636364
v 0.272727 1.000000 -0.454545
v 0.272727 1.000000 -0.272727
v 0.272727 1.000000 -0.090909
v 0.272727 1.000000 0.090909
v 0.272727 1.000000 0.272727
v 0.272727 1.000000 0.454545
v 0.272727 1.000000 0.636364
v 0.090909 1.000000 -0.818182
v 0.090909 1.000000 -0.636364
v 0.090909 1.000000 -0.454545
v 0.090909 1.000000 -0.272727
v 0.090909 1.000000 -0.090909
v 0.090909 1.000000 0.090909
v 0.090909 1.000000 0.272727
v 0.090909 1.000000 0.454545
v 0.090909 1.000000 0.636364
v -0.090909 1.000000 -0.818182
v -0.090909 1.000000 -0.636364
v -0.090909 1.000000 -0.454545
v -0.090909 1.000000 -0.272727
v -0.090909 1.000000 -0.090909
v -0.090909 1.000000 0.090909
v -0.090909 1.000000 0.272727
v -0.090909 1.000000 0.454545
v -0.090909 1.000000 0.636364
v -0.272727 1.000000 -0.818182
v -0.272727 1.000000 -0.636364
v -0.272727 1.000000 -0.454545
v -0.272727 1.000000 -0.272727
v -0.272727 1.000000 -0.090909
v -0.272727 1.000000 0.090909
v -0.272727 1.000000 0.272727
v -0.272727 1.000000 0.454545
v -0.272727 1.000000 0.636364
v -0.454545 1.000000 -0.818182
v -0.454545 1.000000 -0.636364
v -0.454545 1.000000 -0.454545
v -0.454545 1.000000 -0.272727
v -0.454545 1.000000 -0.090909
v -0.454545 1.000000 0.090909
v -0.454545 1.000000 0.272727
v -0.454545 1.000000 0.454545
v -0.454545 1.000000 0.636364
v -0.636364 1.000000 -0.818182
v -0.636364 1.000000 -0.636364
v -0.636364 1.000000 -0.454545
v -0.636364 1.000000 -0.272727
v -0.636364 1.000000 -0.090909
v -0.636364 1.000000 0.090909
v -0.636364 1.000000 0.272727
v -0.636364 1.000000 0.454545
v -0.636364 1.000000 0.636364
v -0.818182 1.000000 -0.818182
v -0.818182 1.000000 -0.636364
v -0.818182 1.000000 -0.454545
v -0.818182 1.000000 -0.272727
v -0.818182 1.000000 -0.090909
v -0.818182 1.000000 0.090909
v -0.818182 1.000000 0.272727
v -0.818182 1.000000 0.454545
v -0.818182 1.000000 0.636364
v -1.000000 1.000000 -0.818182
v -1.000000 1.000000 -0.636364
v -1.000000 1.000000 -0.454545
v -1.000000 1.000000 -0.272727
v -1.000000 1.000000 -0.090909
v -1.000000 1.000000 0.090909
v -1.000000 1.000000 0.272727
v -1.000000 1.000000 0.454545
v -1.000000 1.000000 0.636364
v -1.000000 1.000000 0.818182
v -1.000000 -1.000000 0.818182
v -1.000000 -1.000000 1.000000
v -0.818182 -1.000000 0.818182
v -0.636364 -1.000000 0.818182
v -0.454545 -1.000000 0.818182
v -0.272727 -1.000000 0.818182
v -0.090909 -1.000000 0.818182
v 0.090909 -1.000000 0.818182
v 0.272727 -1.000000 0.818182
v 0.454545 -1.000000 0.818182
v 0.636364 -1.000000 0.818182
v -1.000000 -1.000000 -1.000000
v -0.818182 -1.000000 -0.818182
v -1.000000 -1.000000 -0.818182
v -0.818182 -1.000000 -0.636364
v -1.000000 -1.000000 -0.636364
v -0.818182 -1.000000 -0.454545
v -1.000000 -1.000000 -0.454545
v -0.818182 -1.000000 -0.272727
v -1.000000 -1.000000 -0.272727
v -0.818182 -1.000000 -0.090909
v -1.000000 -1.000000 -0.090909
v -0.818182 -1.000000 0.090909
v -1.000000 -1.000000 0.090909
v -0.818182 -1.000000 0.272727
v -1.000000 -1.000000 0.272727
v -0.818182 -1.000000 0.454545
v -1.000000 -1.000000 0.454545
v -0.818182 -1.000000 0.636364
v -1.000000 -1.000000 0.636364
v -0.636364 -1.000000 -0.818182
v -0.636364 -1.000000 -0.636364
v -0.636364 -1.000000 -0.454545
v -0.636364 -1.000000 -0.272727
v -0.636364 -1.000000 -0.090909
v -0.636364 -1.000000 0.090909
v -0.636364 -1.000000 0.272727
v -0.636364 -1.000000 0.454545
v -0.636364 -1.000000 0.636364
v -0.454545 -1.000000 -0.818182
v -0.454545 -1.000000 -0.636364
v -0.454545 -1.000000 -0.454545
v -0.454545 -1.000000 -0.272727
v -0.454545 -1.000000 -0.090909
v -0.454545 -1.000000 0.090909
v -0.454545 -1.000000 0.272727
v -0.454545 -1.000000 0.454545
v -0.454545 -1.000000 0.636364
v -0.272727 -1.000000 -0.818182
v -0.272727 -1.000000 -0.636364
v -0.272727 -1.000000 -0.454545
v -0.272727 -1.000000 -0.272727
v -0.272727 -1.000000 -0.090909
v -0.272727 -1.000000 0.090909
v -0.272727 -1.000000 0.272727
v -0.272727 -1.000000 0.454545
v -0.272727 -1.000000 0.636364
v -0.090909 -1.000000 -0.818182
v -0.090909 -1.000000 -0.636364
v -0.090909 -1.000000 -0.454545
v -0.090909 -1.000000 -0.272727
v -0.090909 -1.000000 -0.090909
v -0.090909 -1.000000 0.090909
v -0.090909 -1.000000 0.272727
v -0.090909 -1.000000 0.454545
v -0.090909 -1.000000 0.636364
v 0.090909 -1.000000 -0.818182
v 0.090909 -1.000000 -0.636364
v 0.090909 -1.000000 -0.454545
v 0.090909 -1.000000 -0.272727
v 0.090909 -1.000000 -0.090909
v 0.090909 -1.000000 0.090909
v 0.090909 -1.000000 0.272727
v 0.090909 -1.000000 0.454545
v 0.090909 -1.000000 0.636364
v 0.272727 -1.000000 -0.818182
v 0.272727 -1.000000 -0.636364
v 0.272727 -1.000000 -0.454545
v 0.272727 -1.000000 -0.272727
v 0.272727 -1.000000 -0.090909
v 0.272727 -1.000000 0.090909
v 0.272727 -1.000000 0.272727
v 0.272727 -1.000000 0.454545
v 0.272727 -1.000000 0.636364
v 0.454545 -1.000000 -0.818182
v 0.454545 -1.000000 -0.636364
v 0.454545 -1.000000 -0.454545
v 0.454545 -1.000000 -0.272727
v 0.454545 -1.000000 -0.090909
v 0.454545 -1.000000 0.090909
v 0.454545 -1.000000 0.272727
v 0.454545 -1.000000 0.454545
v 0.454545 -1.000000 0.636364
v 0.636364 -1.000000 -0.818182
v 0.636364 -1.000000 -0.636364
v 0.636364 -1.000000 -0.454545
v 0.636364 -1.000000 -0.272727
v 0.636364 -1.000000 -0.090909
v 0.636364 -1.000000 0.090909
v 0.636364 -1.000000 0.272727
v 0.636364 -1.000000 0.454545
v 0.636364 -1.000000 0.636364
v 0.818182 -1.000000 -0.818182
v 0.818182 -1.000000 -0.636364
v 0.818182 -1.000000 -0.454545
v 0.818182 -1.000000 -0.272727
v 0.818182 -1.000000 -0.090909
v 0.818182 -1.000000 0.090909
v 0.818182 -1.000000 0.272727
v 0.818182 -1.000000 0.454545
v 0.818182 -1.000000 0.636364
v 1.000000 -1.000000 -0.818182
v 1.000000 -1.000000 -0.636364
v 1.000000 -1.000000 -0.454545
v 1.000000 -1.000000 -0.272727
v 1.000000 -1.000000 -0.090909
v 1.000000 -1.000000 0.090909
v 1.000000 -1.000000 0.272727
v 1.000000 -1.000000 0.454545
v 1.000000 -1.000000 0.636364
v 1.000000 -1.000000 0.818182
v -1.000000 -0.818182 1.000000
v -0.818182 -0.818182 1.000000
v -1.000000 -0.636364 1.000000
v -0.818182 -0.636364 1.000000
v -1.000000 -0.454545 1.000000
v -0.818182 -0.454545 1.000000
v -1.000000 -0.272727 1.000000
v -0.818182 -0.272727 1.000000
v -1.000000 -0.090909 1.000000
v -0.818182 -0.090909 1.000000
v -1.000000 0.090909 1.000000
v -0.818182 0.090909 1.000000
v -1.000000 0.272727 1.000000
v -0.818182 0.272727 1.000000
v -1.000000 0.454545 1.000000
v -0.818182 0.454545 1.000000
v -1.000000 0.636364 1.000000
v -0.818182 0.636364 1.000000
v 0.818182 -0.818182 1.000000
v 0.636364 -0.818182 1.000000
v 0.454545 -0.818182 1.000000
v 0.272727 -0.818182 1.000000
v 0.090909 -0.818182 1.000000
v -0.090909 -0.818182 1.000000
v -0.272727 -0.818182 1.000000
v -0.454545 -0.818182 1.000000
v -0.636364 -0.818182 1.000000
v 1.000000 -0.818182 1.000000
v 0.818182 -0.636364 1.000000
v 0.636364 -0.636364 1.000000
v 0.454545 -0.636364 1.000000
v 0.272727 -0.636364 1.000000
v 0.090909 -0.636364 1.000000
v -0.090909 -0.636364 1.000000
v -0.272727 -0.636364 1.000000
v -0.454545 -0.636364 1.000000
v -0.636364 -0.636364 1.000000
v 1.000000 -0.636364 1.000000
v 0.818182 -0.454545 1.000000
v 0.636364 -0.454545 1.000000
v 0.454545 -0.454545 1.000000
v 0.272727 -0.454545 1.000000
v 0.090909 -0.454545 1.000000
v -0.090909 -0.454545 1.000000
v -0.272727 -0.454545 1.000000
v -0.454545 -0.454545 1.000000
v -0.636364 -0.454545 1.000000
v 1.000000 -0.454545 1.000000
v 0.818182 -0.272727 1.000000
v 0.636364 -0.272727 1.000000
v 0.454545 -0.272727 1.000000
v 0.272727 -0.272727 1.000000
v 0.090909 -0.272727 1.000000
v -0.090909 -0.272727 1.000000
v -0.272727 -0.272727 1.000000
v -0.454545 -0.272727 1.000000
v -0.636364 -0.272727 1.000000
v 1.000000 -0.272727 1.000000
v 0.818182 -0.090909 1.000000
v 0.636364 -0.090909 1.000000
v 0.454545 -0.090909 1.000000
v 0.272727 -0.090909 1.000000
v 0.090909 -0.090909 1.000000
v -0.090909 -0.090909 1.000000
v -0.272727 -0.090909 1.000000
v -0.454545 -0.090909 1.000000
v -0.636364 -0.090909 1.000000
v 1.000000 -0.090909 1.000000
v 0.818182 0.090909 1.000000
v 0.636364 0.090909 1.000000
v 0.454545 0.090909 1.000000
v 0.272727 0.090909 1.000000
v 0.090909 0.090909 1.000000
v -0.090909 0.090909 1.000000
v -0.272727 0.090909 1.000000
v -0.454545 0.090909 1.000000
v -0.636364 0.090909 1.000000
v 1.000000 0.090909 1.000000
v 0.818182 0.272727 1.000000
v 0.636364 0.272727 1.000000
v 0.454545 0.272727 1.000000
v 0.272727 0.272727 1.000000
v 0.090909 0.272727 1.000000
v -0.090909 0.272727 1.000000
v -0.272727 0.272727 1.000000
v -0.454545 0.272727 1.000000
v -0.636364 0.272727 1.000000
v 1.000000 0.272727 1.000000
v 0.818182 0.454545 1.000000
v 0.636364 0.454545 1.000000
v 0.454545 0.454545 1.000000
v 0.272727 0.454545 1.000000
v 0.090909 0.454545 1.000000
v -0.090909 0.454545 1.000000
v -0.272727 0.454545 1.000000
v -0.454545 0.454545 1.000000
v -0.636364 0.454545 1.000000
v 1.000000 0.454545 1.000000
v 0.818182 0.636364 1.000000
v 0.636364 0.636364 1.000000
v 0.454545 0.636364 1.000000
v 0.272727 0.636364 1.000000
v 0.090909 0.636364 1.000000
v -0.090909 0.636364 1.000000
v -0.272727 0.636364 1.000000
v -0.454545 0.636364 1.000000
v -0.636364 0.636364 1.000000
v 1.000000 0.636364 1.000000
v 0.818182 0.818182 1.000000
v 0.636364 0.818182 1.000000
v 0.454545 0.818182 1.000000
v 0.272727 0.818182 1.000000
v 0.090909 0.818182 1.000000
v -0.090909 0.818182 1.000000
v -0.272727 0.818182 1.000000
v -0.454545 0.818182 1.000000
v -0.636364 0.818182 1.000000
v 1.000000 -0.818182 -1.000000
v 1.000000 -0.636364 -1.000000
v 1.000000 -0.454545 -1.000000
v 1.000000 -0.272727 -1.000000
v 1.000000 -0.090909 -1.000000
v 1.000000 0.090909 -1.000000
v 1.000000 0.272727 -1.000000
v 1.000000 0.454545 -1.000000
v 1.000000 0.636364 -1.000000
v 0.818182 -0.818182 -1.000000
v 0.818182 -0.636364 -1.000000
v 0.818182 -0.454545 -1.000000
v 0.818182 -0.272727 -1.000000
v 0.818182 -0.090909 -1.000000
v 0.818182 0.090909 -1.000000
v 0.818182 0.272727 -1.000000
v 0.818182 0.454545 -1.000000
v 0.818182 0.636364 -1.000000
v -0.818182 -0.818182 -1.000000
v -0.636364 -0.818182 -1.000000
v -0.454545 -0.818182 -1.000000
v -0.272727 -0.818182 -1.000000
v -0.090909 -0.818182 -1.000000
v 0.090909 -0.818182 -1.000000
v 0.272727 -0.818182 -1.000000
v 0.454545 -0.818182 -1.000000
v 0.636364 -0.818182 -1.000000
v -1.000000 -0.818182 -1.000000
v -0.818182 -0.636364 -1.000000
v -0.636364 -0.636364 -1.000000
v -0.454545 -0.636364 -1.000000
v -0.272727 -0.636364 -1.000000
v -0.090909 -0.636364 -1.000000
v 0.090909 -0.636364 -1.000000
v 0.272727 -0.636364 -1.000000
v 0.454545 -0.636364 -1.000000
v 0.636364 -0.636364 -1.000000
v -1.000000 -0.636364 -1.000000
v -0.818182 -0.454545 -1.000000
v -0.636364 -0.454545 -1.000000
v -0.454545 -0.454545 -1.000000
v -0.272727 -0.454545 -1.000000
v -0.090909 -0.454545 -1.000000
v 0.090909 -0.454545 -1.000000
v 0.272727 -0.454545 -1.000000
v 0.454545 -0.454545 -1.000000
v 0.636364 -0.454545 -1.000000
v -1.000000 -0.454545 -1.000000
v -0.818182 -0.272727 -1.000000
v -0.636364 -0.272727 -1.000000
v -0.454545 -0.272727 -1.000000
v -0.272727 -0.272727 -1.000000
v -0.090909 -0.272727 -1.000000
v 0.090909 -0.272727 -1.000000
v 0.272727 -0.272727 -1.000000
v 0.454545 -0.272727 -1.000000
v 0.636364 -0.272727 -1.000000
v -1.000000 -0.272727 -1.000000
v -0.818182 -0.090909 -1.000000
v -0.636364 -0.090909 -1.000000
v -0.454545 -0.090909 -1.000000
v -0.272727 -0.090909 -1.000000
v -0.090909 -0.090909 -1.000000
v 0.090909 -0.090909 -1.000000
v 0.272727 -0.090909 -1.000000
v 0.454545 -0.090909 -1.000000
v 0.636364 -0.090909 -1.000000
v -1.000000 -0.090909 -1.000000
v -0.818182 0.090909 -1.000000
v -0.636364 0.090909 -1.000000
v -0.454545 0.090909 -1.000000
v -0.272727 0.090909 -1.000000
v -0.090909 0.090909 -1.000000
v 0.090909 0.090909 -1.000000
v 0.272727 0.090909 -1.000000
v 0.454545 0.090909 -1.000000
v 0.636364 0.090909 -1.000000
v -1.000000 0.090909 -1.000000
v -0.818182 0.272727 -1.000000
v -0.636364 0.272727 -1.000000
v -0.454545 0.272727 -1.000000
v -0.272727 0.272727 -1.000000
v -0.090909 0.272727 -1.000000
v 0.090909 0.272727 -1.000000
v 0.272727 0.272727 -1.000000
v 0.454545 0.272727 -1.000000
v 0.636364 0.272727 -1.000000
v -1.000000 0.272727 -1.000000
v -0.818182 0.454545 -1.000000
v -0.636364 0.454545 -1.000000
v -0.454545 0.454545 -1.000000
v -0.272727 0.454545 -1.000000
v -0.090909 0.454545 -1.000000
v 0.090909 0.454545 -1.000000
v 0.272727 0.454545 -1.000000
v 0.454545 0.454545 -1.000000
v 0.636364 0.454545 -1.000000
v -1.000000 0.454545 -1.000000
v -0.818182 0.636364 -1.000000
v -0.636364 0.636364 -1.000000
v -0.454545 0.636364 -1.000000
v -0.272727 0.636364 -1.000000
v -0.090909 0.636364 -1.000000
v 0.090909 0.636364 -1.000000
v 0.272727 0.636364 -1.000000
v 0.454545 0.636364 -1.000000
v 0.636364 0.636364 -1.000000
v -1.000000 0.636364 -1.000000
v -0.818182 0.818182 -1.000000
v -0.636364 0.818182 -1.000000
v -0.454545 0.818182 -1.000000
v -0.272727 0.818182 -1.000000
v -0.090909 0.818182 -1.000000
v 0.090909 0.818182 -1.000000
v 0.272727 0.818182 -1.000000
v 0.454545 0.818182 -1.000000
v 0.636364 0.818182 -1.000000
v -1.000000 -0.818182 -0.818182
v -1.000000 -0.636364 -0.818182
v -1.000000 -0.454545 -0.818182
v -1.000000 -0.272727 -0.818182
v -1.000000 -0.090909 -0.818182
v -1.000000 0.090909 -0.818182
v -1.000000 0.272727 -0.818182
v -1.000000 0.454545 -0.818182
v -1.000000 0.636364 -0.818182
v -1.000000 -0.818182 0.818182
v -1.000000 -0.818182 0.636364
v -1.000000 -0.818182 0.454545
v -1.000000 -0.818182 0.272727
v -1.000000 -0.818182 0.090909
v -1.000000 -0.818182 -0.090909
v -1.000000 -0.818182 -0.272727
v -1.000000 -0.818182 -0.454545
v -1.000000 -0.818182 -0.636364
v -1.000000 -0.636364 0.818182
v -1.000000 -0.636364 0.636364
v -1.000000 -0.636364 0.454545
v -1.000000 -0.636364 0.272727
v -1.000000 -0.636364 0.090909
v -1.000000 -0.636364 -0.090909
v -1.000000 -0.636364 -0.272727
v -1.000000 -0.636364 -0.454545
v -1.000000 -0.636364 -0.636364
v -1.000000 -0.454545 0.818182
v -1.000000 -0.454545 0.636364
v -1.000000 -0.454545 0.454545
v -1.000000 -0.454545 0.272727
v -1.000000 -0.454545 0.090909
v -1.000000 -0.454545 -0.090909
v -1.000000 -0.454545 -0.272727
v -1.000000 -0.454545 -0.454545
v -1.000000 -0.454545 -0.636364
v -1.000000 -0.272727 0.818182
v -1.000000 -0.272727 0.636364
v -1.000000 -0.272727 0.454545
v -1.000000 -0.272727 0.272727
v -1.000000 -0.272727 0.090909
v -1.000000 -0.272727 -0.090909
v -1.000000 -0.272727 -0.272727
v -1.000000 -0.272727 -0.454545
v -1.000000 -0.272727 -0.636364
v -1.000000 -0.090909 0.818182
v -1.000000 -0.090909 0.636364
v -1.000000 -0.090909 0.454545
v -1.000000 -0.090909 0.272727
v -1.000000 -0.090909 0.090909
v -1.000000 -0.090909 -0.090909
v -1.000000 -0.090909 -0.272727
v -1.000000 -0.090909 -0.454545
v -1.000000 -0.090909 -0.636364
v -1.000000 0.090909 0.818182
v -1.000000 0.090909 0.636364
v -1.000000 0.090909 0.454545
v -1.000000 0.090909 0.272727
v -1.000000 0.090909 0.090909
v -1.000000 0.090909 -0.090909
v -1.000000 0.090909 -0.272727
v -1.000000 0.090909 -0.454545
v -1.000000 0.090909 -0.636364
v -1.000000 0.272727 0.818182
v -1.000000 0.272727 0.636364
v -1.000000 0.272727 0.454545
v -1.000000 0.272727 0.272727
v -1.000000 0.272727 0.090909
v -1.000000 0.272727 -0.090909
v -1.000000 0.272727 -0.272727
v -1.000000 0.272727 -0.454545
v -1.000000 0.272727 -0.636364
v -1.000000 0.454545 0.818182
v -1.000000 0.454545 0.636364
v -1.000000 0.454545 0.454545
v -1.000000 0.454545 0.272727
v -1.000000 0.454545 0.090909
v -1.000000 0.454545 -0.090909
v -1.000000 0.454545 -0.272727
v -1.000000 0.454545 -0.454545
v -1.000000 0.454545 -0.636364
v -1.000000 0.636364 0.818182
v -1.000000 0.636364 0.636364
v -1.000000 0.636364 0.454545
v -1.000000 0.636364 0.272727
v -1.000000 0.636364 0.090909
v -1.000000 0.636364 -0.090909
v -1.000000 0.636364 -0.272727
v -1.000000 0.636364 -0.454545
v -1.000000 0.636364 -0.636364
v -1.000000 0.818182 0.818182
v -1.000000 0.818182 0.636364
v -1.000000 0.818182 0.454545
v -1.000000 0.818182 0.272727
v -1.000000 0.818182 0.090909
v -1.000000 0.818182 -0.090909
v -1.000000 0.818182 -0.272727
v -1.000000 0.818182 -0.454545
v -1.000000 0.818182 -0.636364
vt 0.602273 0.227273
vt 0.625000 0.250000
vt 0.602273 0.250000
vt 0.602273 0.977273
vt 0.625000 1.000000
vt 0.602273 1.000000
vt 0.625000 0.522727
vt 0.647727 0.545455
vt 0.625000 0.545455
vt 0.647727 0.568182
vt 0.625000 0.568182
vt 0.647727 0.590909
vt 0.625000 0.590909
vt 0.647727 0.613636
vt 0.625000 0.613636
vt 0.647727 0.636364
vt 0.625000 0.636364
vt 0.647727 0.659091
vt 0.625000 0.659091
vt 0.647727 0.681818
vt 0.625000 0.681818
vt 0.647727 0.704545
vt 0.625000 0.704545
vt 0.647727 0.727273
vt 0.625000 0.727273
vt 0.647727 0.522727
vt 0.670455 0.545455
vt 0.670455 0.568182
vt 0.670455 0.590909
vt 0.670455 0.613636
vt 0.670455 0.636364
vt 0.670455 0.659091
vt 0.670455 0.681818
vt 0.670455 0.704545
vt 0.670455 0.727273
vt 0.670455 0.522727
vt 0.693182 0.545455
vt 0.693182 0.568182
vt 0.693182 0.590909
vt 0.693182 0.613636
vt 0.693182 0.636364
vt 0.693182 0.659091
vt 0.693182 0.681818
vt 0.693182 0.704545
vt 0.693182 0.727273
vt 0.693182 0.522727
vt 0.715909 0.545455
vt 0.715909 0.568182
vt 0.715909 0.590909
vt 0.715909 0.613636
vt 0.715909 0.636364
vt 0.715909 0.659091
vt 0.715909 0.681818
vt 0.715909 0.704545
vt 0.715909 0.727273
vt 0.715909 0.522727
vt 0.738636 0.545455
vt 0.738636 0.568182
vt 0.738636 0.590909
vt 0.738636 0.613636
vt 0.738636 0.636364
vt 0.738636 0.659091
vt 0.738636 0.681818
vt 0.738636 0.704545
vt 0.738636 0.727273
vt 0.738636 0.522727
vt 0.761364 0.545455
vt 0.761364 0.568182
vt 0.761364 0.590909
vt 0.761364 0.613636
vt 0.761364 0.636364
vt 0.761364 0.659091
vt 0.761364 0.681818
vt 0.761364 0.704545
vt 0.761364 0.727273
vt 0.761364 0.522727
vt 0.784091 0.545455
vt 0.784091 0.568182
vt 0.784091 0.590909
vt 0.784091 0.613636
vt 0.784091 0.636364
vt 0.784091 0.659091
vt 0.784091 0.681818
vt 0.784091 0.704545
vt 0.784091 0.727273
vt 0.784091 0.522727
vt 0.806818 0.545455
vt 0.806818 0.568182
vt 0.806818 0.590909
vt 0.806818 0.613636
vt 0.806818 0.636364
vt 0.806818 0.659091
vt 0.806818 0.681818
vt 0.806818 0.704545
vt 0.806818 0.727273
vt 0.806818 0.522727
vt 0.829545 0.545455
vt 0.829545 0.568182
vt 0.829545 0.590909
vt 0.829545 0.613636
vt 0.829545 0.636364
vt 0.829545 0.659091
vt 0.829545 0.681818
vt 0.829545 0.704545
vt 0.829545 0.727273
vt 0.829545 0.522727
vt 0.852273 0.545455
vt 0.852273 0.568182
vt 0.852273 0.590909
vt 0.852273 0.613636
vt 0.852273 0.636364
vt 0.852273 0.659091
vt 0.852273 0.681818
vt 0.852273 0.704545
vt 0.852273 0.727273
vt 0.852273 0.522727
vt 0.875000 0.545455
vt 0.875000 0.568182
vt 0.875000 0.590909
vt 0.875000 0.613636
vt 0.875000 0.636364
vt 0.875000 0.659091
vt 0.875000 0.681818
vt 0.875000 0.704545
vt 0.875000 0.727273
vt 0.125000 0.500000
vt 0.147727 0.522727
vt 0.125000 0.522727
vt 0.147727 0.545455
vt 0.125000 0.545455
vt 0.147727 0.568182
vt 0.125000 0.568182
vt 0.147727 0.590909
vt 0.125000 0.590909
vt 0.147727 0.613636
vt 0.125000 0.613636
vt 0.147727 0.636364
vt 0.125000 0.636364
vt 0.147727 0.659091
vt 0.125000 0.659091
vt 0.147727 0.681818
vt 0.125000 0.681818
vt 0.147727 0.704545
vt 0.125000 0.704545
vt 0.147727 0.727273
vt 0.125000 0.727273
vt 0.170455 0.545455
vt 0.170455 0.568182
vt 0.170455 0.590909
vt 0.170455 0.613636
vt 0.170455 0.636364
vt 0.170455 0.659091
vt 0.170455 0.681818
vt 0.170455 0.704545
vt 0.170455 0.727273
vt 0.170455 0.522727
vt 0.193182 0.545455
vt 0.193182 0.568182
vt 0.193182 0.590909
vt 0.193182 0.613636
vt 0.193182 0.636364
vt 0.193182 0.659091
vt 0.193182 0.681818
vt 0.193182 0.704545
vt 0.193182 0.727273
vt 0.193182 0.522727
vt 0.215909 0.545455
vt 0.215909 0.568182
vt 0.215909 0.590909
vt 0.215909 0.613636
vt 0.215909 0.636364
vt 0.215909 0.659091
vt 0.215909 0.681818
vt 0.215909 0.704545
vt 0.215909 0.727273
vt 0.215909 0.522727
vt 0.238636 0.545455
vt 0.238636 0.568182
vt 0.238636 0.590909
vt 0.238636 0.613636
vt 0.238636 0.636364
vt 0.238636 0.659091
vt 0.238636 0.681818
vt 0.238636 0.704545
vt 0.238636 0.727273
vt 0.238636 0.522727
vt 0.261364 0.545455
vt 0.261364 0.568182
vt 0.261364 0.590909
vt 0.261364 0.613636
vt 0.261364 0.636364
vt 0.261364 0.659091
vt 0.261364 0.681818
vt 0.261364 0.704545
vt 0.261364 0.727273
vt 0.261364 0.522727
vt 0.284091 0.545455
vt 0.284091 0.568182
vt 0.284091 0.590909
vt 0.284091 0.613636
vt 0.284091 0.636364
vt 0.284091 0.659091
vt 0.284091 0.681818
vt 0.284091 0.704545
vt 0.284091 0.727273
vt 0.284091 0.522727
vt 0.306818 0.545455
vt 0.306818 0.568182
vt 0.306818 0.590909
vt 0.306818 0.613636
vt 0.306818 0.636364
vt 0.306818 0.659091
vt 0.306818 0.681818
vt 0.306818 0.704545
vt 0.306818 0.727273
vt 0.306818 0.522727
vt 0.329545 0.545455
vt 0.329545 0.568182
vt 0.329545 0.590909
vt 0.329545 0.613636
vt 0.329545 0.636364
vt 0.329545 0.659091
vt 0.329545 0.681818
vt 0.329545 0.704545
vt 0.329545 0.727273
vt 0.329545 0.522727
vt 0.352273 0.545455
vt 0.352273 0.568182
vt 0.352273 0.590909
vt 0.352273 0.613636
vt 0.352273 0.636364
vt 0.352273 0.659091
vt 0.352273 0.681818
vt 0.352273 0.704545
vt 0.352273 0.727273
vt 0.352273 0.522727
vt 0.375000 0.545455
vt 0.375000 0.568182
vt 0.375000 0.590909
vt 0.375000 0.613636
vt 0.375000 0.636364
vt 0.375000 0.659091
vt 0.375000 0.681818
vt 0.375000 0.704545
vt 0.375000 0.727273
vt 0.397727 0.977273
vt 0.420455 1.000000
vt 0.397727 1.000000
vt 0.420455 0.977273
vt 0.443182 1.000000
vt 0.443182 0.977273
vt 0.465909 1.000000
vt 0.465909 0.977273
vt 0.488636 1.000000
vt 0.488636 0.977273
vt 0.511364 1.000000
vt 0.511364 0.977273
vt 0.534091 1.000000
vt 0.534091 0.977273
vt 0.556818 1.000000
vt 0.556818 0.977273
vt 0.579545 1.000000
vt 0.579545 0.977273
vt 0.397727 0.750000
vt 0.420455 0.772727
vt 0.397727 0.772727
vt 0.420455 0.795455
vt 0.397727 0.795455
vt 0.420455 0.818182
vt 0.397727 0.818182
vt 0.420455 0.840909
vt 0.397727 0.840909
vt 0.420455 0.863636
vt 0.397727 0.863636
vt 0.420455 0.886364
vt 0.397727 0.886364
vt 0.420455 0.909091
vt 0.397727 0.909091
vt 0.420455 0.931818
vt 0.397727 0.931818
vt 0.420455 0.954545
vt 0.397727 0.954545
vt 0.420455 0.750000
vt 0.443182 0.772727
vt 0.443182 0.795455
vt 0.443182 0.818182
vt 0.443182 0.840909
vt 0.443182 0.863636
vt 0.443182 0.886364
vt 0.443182 0.909091
vt 0.443182 0.931818
vt 0.443182 0.954545
vt 0.443182 0.750000
vt 0.465909 0.772727
vt 0.465909 0.795455
vt 0.465909 0.818182
vt 0.465909 0.840909
vt 0.465909 0.863636
vt 0.465909 0.886364
vt 0.465909 0.909091
vt 0.465909 0.931818
vt 0.465909 0.954545
vt 0.465909 0.750000
vt 0.488636 0.772727
vt 0.488636 0.795455
vt 0.488636 0.818182
vt 0.488636 0.840909
vt 0.488636 0.863636
vt 0.488636 0.886364
vt 0.488636 0.909091
vt 0.488636 0.931818
vt 0.488636 0.954545
vt 0.488636 0.750000
vt 0.511364 0.772727
vt 0.511364 0.795455
vt 0.511364 0.818182
vt 0.511364 0.840909
vt 0.511364 0.863636
vt 0.511364 0.886364
vt 0.511364 0.909091
vt 0.511364 0.931818
vt 0.511364 0.954545
vt 0.511364 0.750000
vt 0.534091 0.772727
vt 0.534091 0.795455
vt 0.534091 0.818182
vt 0.534091 0.840909
vt 0.534091 0.863636
vt 0.534091 0.886364
vt 0.534091 0.909091
vt 0.534091 0.931818
vt 0.534091 0.954545
vt 0.534091 0.750000
vt 0.556818 0.772727
vt 0.556818 0.795455
vt 0.556818 0.818182
vt 0.556818 0.840909
vt 0.556818 0.863636
vt 0.556818 0.886364
vt 0.556818 0.909091
vt 0.556818 0.931818
vt 0.556818 0.954545
vt 0.556818 0.750000
vt 0.579545 0.772727
vt 0.579545 0.795455
vt 0.579545 0.818182
vt 0.579545 0.840909
vt 0.579545 0.863636
vt 0.579545 0.886364
vt 0.579545 0.909091
vt 0.579545 0.931818
vt 0.579545 0.954545
vt 0.579545 0.750000
vt 0.602273 0.772727
vt 0.602273 0.795455
vt 0.602273 0.818182
vt 0.602273 0.840909
vt 0.602273 0.863636
vt 0.602273 0.886364
vt 0.602273 0.909091
vt 0.602273 0.931818
vt 0.602273 0.954545
vt 0.397727 0.477273
vt 0.420455 0.500000
vt 0.397727 0.500000
vt 0.420455 0.477273
vt 0.443182 0.500000
vt 0.443182 0.477273
vt 0.465909 0.500000
vt 0.465909 0.477273
vt 0.488636 0.500000
vt 0.488636 0.477273
vt 0.511364 0.500000
vt 0.511364 0.477273
vt 0.534091 0.500000
vt 0.534091 0.477273
vt 0.556818 0.500000
vt 0.556818 0.477273
vt 0.579545 0.500000
vt 0.579545 0.477273
vt 0.602273 0.500000
vt 0.397727 0.250000
vt 0.420455 0.272727
vt 0.397727 0.272727
vt 0.420455 0.295455
vt 0.397727 0.295455
vt 0.420455 0.318182
vt 0.397727 0.318182
vt 0.420455 0.340909
vt 0.397727 0.340909
vt 0.420455 0.363636
vt 0.397727 0.363636
vt 0.420455 0.386364
vt 0.397727 0.386364
vt 0.420455 0.409091
vt 0.397727 0.409091
vt 0.420455 0.431818
vt 0.397727 0.431818
vt 0.420455 0.454545
vt 0.397727 0.454545
vt 0.420455 0.250000
vt 0.443182 0.272727
vt 0.443182 0.295455
vt 0.443182 0.318182
vt 0.443182 0.340909
vt 0.443182 0.363636
vt 0.443182 0.386364
vt 0.443182 0.409091
vt 0.443182 0.431818
vt 0.443182 0.454545
vt 0.443182 0.250000
vt 0.465909 0.272727
vt 0.465909 0.295455
vt 0.465909 0.318182
vt 0.465909 0.340909
vt 0.465909 0.363636
vt 0.465909 0.386364
vt 0.465909 0.409091
vt 0.465909 0.431818
vt 0.465909 0.454545
vt 0.465909 0.250000
vt 0.488636 0.272727
vt 0.488636 0.295455
vt 0.488636 0.318182
vt 0.488636 0.340909
vt 0.488636 0.363636
vt 0.488636 0.386364
vt 0.488636 0.409091
vt 0.488636 0.431818
vt 0.488636 0.454545
vt 0.488636 0.250000
vt 0.511364 0.272727
vt 0.511364 0.295455
vt 0.511364 0.318182
vt 0.511364 0.340909
vt 0.511364 0.363636
vt 0.511364 0.386364
vt 0.511364 0.409091
vt 0.511364 0.431818
vt 0.511364 0.454545
vt 0.511364 0.250000
vt 0.534091 0.272727
vt 0.534091 0.295455
vt 0.534091 0.318182
vt 0.534091 0.340909
vt 0.534091 0.363636
vt 0.534091 0.386364
vt 0.534091 0.409091
vt 0.534091 0.431818
vt 0.534091 0.454545
vt 0.534091 0.250000
vt 0.556818 0.272727
vt 0.556818 0.295455
vt 0.556818 0.318182
vt 0.556818 0.340909
vt 0.556818 0.363636
vt 0.556818 0.386364
vt 0.556818 0.409091
vt 0.556818 0.431818
vt 0.556818 0.454545
vt 0.556818 0.250000
vt 0.579545 0.272727
vt 0.579545 0.295455
vt 0.579545 0.318182
vt 0.579545 0.340909
vt 0.579545 0.363636
vt 0.579545 0.386364
vt 0.579545 0.409091
vt 0.579545 0.431818
vt 0.579545 0.454545
vt 0.579545 0.250000
vt 0.602273 0.272727
vt 0.602273 0.295455
vt 0.602273 0.318182
vt 0.602273 0.340909
vt 0.602273 0.363636
vt 0.602273 0.386364
vt 0.602273 0.409091
vt 0.602273 0.431818
vt 0.602273 0.454545
vt 0.602273 0.477273
vt 0.375000 0.227273
vt 0.375000 0.250000
vt 0.397727 0.227273
vt 0.420455 0.227273
vt 0.443182 0.227273
vt 0.465909 0.227273
vt 0.488636 0.227273
vt 0.511364 0.227273
vt 0.534091 0.227273
vt 0.556818 0.227273
vt 0.579545 0.227273
vt 0.375000 0.000000
vt 0.397727 0.022727
vt 0.375000 0.022727
vt 0.397727 0.045455
vt 0.375000 0.045455
vt 0.397727 0.068182
vt 0.375000 0.068182
vt 0.397727 0.090909
vt 0.375000 0.090909
vt 0.397727 0.113636
vt 0.375000 0.113636
vt 0.397727 0.136364
vt 0.375000 0.136364
vt 0.397727 0.159091
vt 0.375000 0.159091
vt 0.397727 0.181818
vt 0.375000 0.181818
vt 0.397727 0.204545
vt 0.375000 0.204545
vt 0.397727 0.000000
vt 0.420455 0.022727
vt 0.420454 0.045455
vt 0.420454 0.068182
vt 0.420454 0.090909
vt 0.420455 0.113636
vt 0.420455 0.136364
vt 0.420455 0.159091
vt 0.420455 0.181818
vt 0.420455 0.204545
vt 0.420455 0.000000
vt 0.443182 0.022727
vt 0.443182 0.045455
vt 0.443182 0.068182
vt 0.443182 0.090909
vt 0.443182 0.113636
vt 0.443182 0.136364
vt 0.443182 0.159091
vt 0.443182 0.181818
vt 0.443182 0.204545
vt 0.443182 0.000000
vt 0.465909 0.022727
vt 0.465909 0.045455
vt 0.465909 0.068182
vt 0.465909 0.090909
vt 0.465909 0.113636
vt 0.465909 0.136364
vt 0.465909 0.159091
vt 0.465909 0.181818
vt 0.465909 0.204545
vt 0.465909 0.000000
vt 0.488636 0.022727
vt 0.488636 0.045455
vt 0.488636 0.068182
vt 0.488636 0.090909
vt 0.488636 0.113636
vt 0.488636 0.136364
vt 0.488636 0.159091
vt 0.488636 0.181818
vt 0.488636 0.204545
vt 0.488636 0.000000
vt 0.511364 0.022727
vt 0.511364 0.045455
vt 0.511364 0.068182
vt 0.511364 0.090909
vt 0.511364 0.113636
vt 0.511364 0.136364
vt 0.511364 0.159091
vt 0.511364 0.181818
vt 0.511364 0.204545
vt 0.511364 0.000000
vt 0.534091 0.022727
vt 0.534091 0.045455
vt 0.534091 0.068182
vt 0.534091 0.090909
vt 0.534091 0.113636
vt 0.534091 0.136364
vt 0.534091 0.159091
vt 0.534091 0.181818
vt 0.534091 0.204545
vt 0.534091 0.000000
vt 0.556818 0.022727
vt 0.556818 0.045455
vt 0.556818 0.068182
vt 0.556818 0.090909
vt 0.556818 0.113636
vt 0.556818 0.136364
vt 0.556818 0.159091
vt 0.556818 0.181818
vt 0.556818 0.204545
vt 0.556818 0.000000
vt 0.579545 0.022727
vt 0.579545 0.045455
vt 0.579545 0.068182
vt 0.579545 0.090909
vt 0.579545 0.113636
vt 0.579545 0.136364
vt 0.579545 0.159091
vt 0.579545 0.181818
vt 0.579545 0.204545
vt 0.579545 0.000000
vt 0.602273 0.022727
vt 0.602273 0.045455
vt 0.602273 0.068182
vt 0.602273 0.090909
vt 0.602273 0.113636
vt 0.602273 0.136364
vt 0.602273 0.159091
vt 0.602273 0.181818
vt 0.602273 0.204545
vt 0.602273 0.000000
vt 0.625000 0.022727
vt 0.625000 0.045455
vt 0.625000 0.068182
vt 0.625000 0.090909
vt 0.625000 0.113636
vt 0.625000 0.136364
vt 0.625000 0.159091
vt 0.625000 0.181818
vt 0.625000 0.204545
vt 0.625000 0.227273
vt 0.875000 0.750000
vt 0.875000 0.522727
vt 0.375000 0.522727
vt 0.602273 0.750000
vt 0.625000 0.000000
vn -1.0000 0.0000 0.0000
vn 0.0000 0.0000 1.0000
vn 0.0000 1.0000 0.0000
vn 0.0000 -1.0000 0.0000
vn 0.0000 0.0000 -1.0000
usemtl None
s 1
f 1/1/1 2/2/1 3/3/1
f 7/4/2 8/5/2 9/6/2
f 23/7/3 24/8/3 25/9/3
f 25/9/3 26/10/3 27/11/3
f 27/11/3 28/12/3 29/13/3
f 29/13/3 30/14/3 31/15/3
f 31/15/3 32/16/3 33/17/3
f 33/17/3 34/18/3 35/19/3
f 35/19/3 36/20/3 37/21/3
f 37/21/3 38/22/3 39/23/3
f 39/23/3 13/24/3 12/25/3
f 22/26/3 41/27/3 24/8/3
f 24/8/3 42/28/3 26/10/3
f 26/10/3 43/29/3 28/12/3
f 28/12/3 44/30/3 30/14/3
f 30/14/3 45/31/3 32/16/3
f 32/16/3 46/32/3 34/18/3
f 34/18/3 47/33/3 36/20/3
f 36/20/3 48/34/3 38/22/3
f 38/22/3 14/35/3 13/24/3
f 40/36/3 50/37/3 41/27/3
f 41/27/3 51/38/3 42/28/3
f 42/28/3 52/39/3 43/29/3
f 43/29/3 53/40/3 44/30/3
f 44/30/3 54/41/3 45/31/3
f 45/31/3 55/42/3 46/32/3
f 46/32/3 56/43/3 47/33/3
f 47/33/3 57/44/3 48/34/3
f 48/34/3 15/45/3 14/35/3
f 49/46/3 59/47/3 50/37/3
f 50/37/3 60/48/3 51/38/3
f 51/38/3 61/49/3 52/39/3
f 52/39/3 62/50/3 53/40/3
f 53/40/3 63/51/3 54/41/3
f 54/41/3 64/52/3 55/42/3
f 55/42/3 65/53/3 56/43/3
f 56/43/3 66/54/3 57/44/3
f 57/44/3 16/55/3 15/45/3
f 58/56/3 68/57/3 59/47/3
f 59/47/3 69/58/3 60/48/3
f 60/48/3 70/59/3 61/49/3
f 61/49/3 71/60/3 62/50/3
f 62/50/3 72/61/3 63/51/3
f 63/51/3 73/62/3 64/52/3
f 64/52/3 74/63/3 65/53/3
f 65/53/3 75/64/3 66/54/3
f 66/54/3 17/65/3 16/55/3
f 67/66/3 77/67/3 68/57/3
f 68/57/3 78/68/3 69/58/3
f 69/58/3 79/69/3 70/59/3
f 70/59/3 80/70/3 71/60/3
f 71/60/3 81/71/3 72/61/3
f 72/61/3 82/72/3 73/62/3
f 73/62/3 83/73/3 74/63/3
f 74/63/3 84/74/3 75/64/3
f 75/64/3 18/75/3 17/65/3
f 76/76/3 86/77/3 77/67/3
f 77/67/3 87/78/3 78/68/3
f 78/68/3 88/79/3 79/69/3
f 79/69/3 89/80/3 80/70/3
f 80/70/3 90/81/3 81/71/3
f 81/71/3 91/82/3 82/72/3
f 82/72/3 92/83/3 83/73/3
f 83/73/3 93/84/3 84/74/3
f 84/74/3 19/85/3 18/75/3
f 85/86/3 95/87/3 86/77/3
f 86/77/3 96/88/3 87/78/3
f 87/78/3 97/89/3 88/79/3
f 88/79/3 98/90/3 89/80/3
f 89/80/3 99/91/3 90/81/3
f 90/81/3 100/92/3 91/82/3
f 91/82/3 101/93/3 92/83/3
f 92/83/3 102/94/3 93/84/3
f 93/84/3 20/95/3 19/85/3
f 94/96/3 104/97/3 95/87/3
f 95/87/3 105/98/3 96/88/3
f 96/88/3 106/99/3 97/89/3
f 97/89/3 107/100/3 98/90/3
f 98/90/3 108/101/3 99/91/3
f 99/91/3 109/102/3 100/92/3
f 100/92/3 110/103/3 101/93/3
f 101/93/3 111/104/3 102/94/3
f 102/94/3 21/105/3 20/95/3
f 103/106/3 113/107/3 104/97/3
f 104/97/3 114/108/3 105/98/3
f 105/98/3 115/109/3 106/99/3
f 106/99/3 116/110/3 107/100/3
f 107/100/3 117/111/3 108/101/3
f 108/101/3 118/112/3 109/102/3
f 109/102/3 119/113/3 110/103/3
f 110/103/3 120/114/3 111/104/3
f 111/104/3 11/115/3 21/105/3
f 112/116/3 122/117/3 113/107/3
f 113/107/3 123/118/3 114/108/3
f 114/108/3 124/119/3 115/109/3
f 115/109/3 125/120/3 116/110/3
f 116/110/3 126/121/3 117/111/3
f 117/111/3 127/122/3 118/112/3
f 118/112/3 128/123/3 119/113/3
f 119/113/3 129/124/3 120/114/3
f 120/114/3 130/125/3 11/115/3
f 142/126/4 143/127/4 144/128/4
f 144/128/4 145/129/4 146/130/4
f 146/130/4 147/131/4 148/132/4
f 148/132/4 149/133/4 150/134/4
f 150/134/4 151/135/4 152/136/4
f 152/136/4 153/137/4 154/138/4
f 154/138/4 155/139/4 156/140/4
f 156/140/4 157/141/4 158/142/4
f 158/142/4 159/143/4 160/144/4
f 160/144/4 133/145/4 131/146/4
f 143/127/4 162/147/4 145/129/4
f 145/129/4 163/148/4 147/131/4
f 147/131/4 164/149/4 149/133/4
f 149/133/4 165/150/4 151/135/4
f 151/135/4 166/151/4 153/137/4
f 153/137/4 167/152/4 155/139/4
f 155/139/4 168/153/4 157/141/4
f 157/141/4 169/154/4 159/143/4
f 159/143/4 134/155/4 133/145/4
f 161/156/4 171/157/4 162/147/4
f 162/147/4 172/158/4 163/148/4
f 163/148/4 173/159/4 164/149/4
f 164/149/4 174/160/4 165/150/4
f 165/150/4 175/161/4 166/151/4
f 166/151/4 176/162/4 167/152/4
f 167/152/4 177/163/4 168/153/4
f 168/153/4 178/164/4 169/154/4
f 169/154/4 135/165/4 134/155/4
f 170/166/4 180/167/4 171/157/4
f 171/157/4 181/168/4 172/158/4
f 172/158/4 182/169/4 173/159/4
f 173/159/4 183/170/4 174/160/4
f 174/160/4 184/171/4 175/161/4
f 175/161/4 185/172/4 176/162/4
f 176/162/4 186/173/4 177/163/4
f 177/163/4 187/174/4 178/164/4
f 178/164/4 136/175/4 135/165/4
f 179/176/4 189/177/4 180/167/4
f 180/167/4 190/178/4 181/168/4
f 181/168/4 191/179/4 182/169/4
f 182/169/4 192/180/4 183/170/4
f 183/170/4 193/181/4 184/171/4
f 184/171/4 194/182/4 185/172/4
f 185/172/4 195/183/4 186/173/4
f 186/173/4 196/184/4 187/174/4
f 187/174/4 137/185/4 136/175/4
f 188/186/4 198/187/4 189/177/4
f 189/177/4 199/188/4 190/178/4
f 190/178/4 200/189/4 191/179/4
f 191/179/4 201/190/4 192/180/4
f 192/180/4 202/191/4 193/181/4
f 193/181/4 203/192/4 194/182/4
f 194/182/4 204/193/4 195/183/4
f 195/183/4 205/194/4 196/184/4
f 196/184/4 138/195/4 137/185/4
f 197/196/4 207/197/4 198/187/4
f 198/187/4 208/198/4 199/188/4
f 199/188/4 209/199/4 200/189/4
f 200/189/4 210/200/4 201/190/4
f 201/190/4 211/201/4 202/191/4
f 202/191/4 212/202/4 203/192/4
f 203/192/4 213/203/4 204/193/4
f 204/193/4 214/204/4 205/194/4
f 205/194/4 139/205/4 138/195/4
f 206/206/4 216/207/4 207/197/4
f 207/197/4 217/208/4 208/198/4
f 208/198/4 218/209/4 209/199/4
f 209/199/4 219/210/4 210/200/4
f 210/200/4 220/211/4 211/201/4
f 211/201/4 221/212/4 212/202/4
f 212/202/4 222/213/4 213/203/4
f 213/203/4 223/214/4 214/204/4
f 214/204/4 140/215/4 139/205/4
f 215/216/4 225/217/4 216/207/4
f 216/207/4 226/218/4 217/208/4
f 217/208/4 227/219/4 218/209/4
f 218/209/4 228/220/4 219/210/4
f 219/210/4 229/221/4 220/211/4
f 220/211/4 230/222/4 221/212/4
f 221/212/4 231/223/4 222/213/4
f 222/213/4 232/224/4 223/214/4
f 223/214/4 141/225/4 140/215/4
f 224/226/4 234/227/4 225/217/4
f 225/217/4 235/228/4 226/218/4
f 226/218/4 236/229/4 227/219/4
f 227/219/4 237/230/4 228/220/4
f 228/220/4 238/231/4 229/221/4
f 229/221/4 239/232/4 230/222/4
f 230/222/4 240/233/4 231/223/4
f 231/223/4 241/234/4 232/224/4
f 232/224/4 10/235/4 141/225/4
f 233/236/4 243/237/4 234/227/4
f 234/227/4 244/238/4 235/228/4
f 235/228/4 245/239/4 236/229/4
f 236/229/4 246/240/4 237/230/4
f 237/230/4 247/241/4 238/231/4
f 238/231/4 248/242/4 239/232/4
f 239/232/4 249/243/4 240/233/4
f 240/233/4 250/244/4 241/234/4
f 241/234/4 251/245/4 10/235/4
f 253/246/2 254/247/2 252/248/2
f 255/249/2 256/250/2 254/247/2
f 257/251/2 258/252/2 256/250/2
f 259/253/2 260/254/2 258/252/2
f 261/255/2 262/256/2 260/254/2
f 263/257/2 264/258/2 262/256/2
f 265/259/2 266/260/2 264/258/2
f 267/261/2 268/262/2 266/260/2
f 269/263/2 9/6/2 268/262/2
f 279/264/2 280/265/2 270/266/2
f 270/266/2 281/267/2 271/268/2
f 271/268/2 282/269/2 272/270/2
f 272/270/2 283/271/2 273/272/2
f 273/272/2 284/273/2 274/274/2
f 274/274/2 285/275/2 275/276/2
f 275/276/2 286/277/2 276/278/2
f 276/278/2 287/279/2 277/280/2
f 277/280/2 288/281/2 278/282/2
f 278/282/2 255/249/2 253/246/2
f 289/283/2 290/284/2 280/265/2
f 280/265/2 291/285/2 281/267/2
f 281/267/2 292/286/2 282/269/2
f 282/269/2 293/287/2 283/271/2
f 283/271/2 294/288/2 284/273/2
f 284/273/2 295/289/2 285/275/2
f 285/275/2 296/290/2 286/277/2
f 286/277/2 297/291/2 287/279/2
f 287/279/2 298/292/2 288/281/2
f 288/281/2 257/251/2 255/249/2
f 299/293/2 300/294/2 290/284/2
f 290/284/2 301/295/2 291/285/2
f 291/285/2 302/296/2 292/286/2
f 292/286/2 303/297/2 293/287/2
f 293/287/2 304/298/2 294/288/2
f 294/288/2 305/299/2 295/289/2
f 295/289/2 306/300/2 296/290/2
f 296/290/2 307/301/2 297/291/2
f 297/291/2 308/302/2 298/292/2
f 298/292/2 259/253/2 257/251/2
f 309/303/2 310/304/2 300/294/2
f 300/294/2 311/305/2 301/295/2
f 301/295/2 312/306/2 302/296/2
f 302/296/2 313/307/2 303/297/2
f 303/297/2 314/308/2 304/298/2
f 304/298/2 315/309/2 305/299/2
f 305/299/2 316/310/2 306/300/2
f 306/300/2 317/311/2 307/301/2
f 307/301/2 318/312/2 308/302/2
f 308/302/2 261/255/2 259/253/2
f 319/313/2 320/314/2 310/304/2
f 310/304/2 321/315/2 311/305/2
f 311/305/2 322/316/2 312/306/2
f 312/306/2 323/317/2 313/307/2
f 313/307/2 324/318/2 314/308/2
f 314/308/2 325/319/2 315/309/2
f 315/309/2 326/320/2 316/310/2
f 316/310/2 327/321/2 317/311/2
f 317/311/2 328/322/2 318/312/2
f 318/312/2 263/257/2 261/255/2
f 329/323/2 330/324/2 320/314/2
f 320/314/2 331/325/2 321/315/2
f 321/315/2 332/326/2 322/316/2
f 322/316/2 333/327/2 323/317/2
f 323/317/2 334/328/2 324/318/2
f 324/318/2 335/329/2 325/319/2
f 325/319/2 336/330/2 326/320/2
f 326/320/2 337/331/2 327/321/2
f 327/321/2 338/332/2 328/322/2
f 328/322/2 265/259/2 263/257/2
f 339/333/2 340/334/2 330/324/2
f 330/324/2 341/335/2 331/325/2
f 331/325/2 342/336/2 332/326/2
f 332/326/2 343/337/2 333/327/2
f 333/327/2 344/338/2 334/328/2
f 334/328/2 345/339/2 335/329/2
f 335/329/2 346/340/2 336/330/2
f 336/330/2 347/341/2 337/331/2
f 337/331/2 348/342/2 338/332/2
f 338/332/2 267/261/2 265/259/2
f 349/343/2 350/344/2 340/334/2
f 340/334/2 351/345/2 341/335/2
f 341/335/2 352/346/2 342/336/2
f 342/336/2 353/347/2 343/337/2
f 343/337/2 354/348/2 344/338/2
f 344/338/2 355/349/2 345/339/2
f 345/339/2 356/350/2 346/340/2
f 346/340/2 357/351/2 347/341/2
f 347/341/2 358/352/2 348/342/2
f 348/342/2 269/263/2 267/261/2
f 359/353/2 360/354/2 350/344/2
f 350/344/2 361/355/2 351/345/2
f 351/345/2 362/356/2 352/346/2
f 352/346/2 363/357/2 353/347/2
f 353/347/2 364/358/2 354/348/2
f 354/348/2 365/359/2 355/349/2
f 355/349/2 366/360/2 356/350/2
f 356/350/2 367/361/2 357/351/2
f 357/351/2 368/362/2 358/352/2
f 358/352/2 7/4/2 269/263/2
f 378/363/5 370/364/5 369/365/5
f 379/366/5 371/367/5 370/364/5
f 380/368/5 372/369/5 371/367/5
f 381/370/5 373/371/5 372/369/5
f 382/372/5 374/373/5 373/371/5
f 383/374/5 375/375/5 374/373/5
f 384/376/5 376/377/5 375/375/5
f 385/378/5 377/379/5 376/377/5
f 386/380/5 5/381/5 377/379/5
f 396/382/5 397/383/5 387/384/5
f 387/384/5 398/385/5 388/386/5
f 388/386/5 399/387/5 389/388/5
f 389/388/5 400/389/5 390/390/5
f 390/390/5 401/391/5 391/392/5
f 391/392/5 402/393/5 392/394/5
f 392/394/5 403/395/5 393/396/5
f 393/396/5 404/397/5 394/398/5
f 394/398/5 405/399/5 395/400/5
f 395/400/5 379/366/5 378/363/5
f 406/401/5 407/402/5 397/383/5
f 397/383/5 408/403/5 398/385/5
f 398/385/5 409/404/5 399/387/5
f 399/387/5 410/405/5 400/389/5
f 400/389/5 411/406/5 401/391/5
f 401/391/5 412/407/5 402/393/5
f 402/393/5 413/408/5 403/395/5
f 403/395/5 414/409/5 404/397/5
f 404/397/5 415/410/5 405/399/5
f 405/399/5 380/368/5 379/366/5
f 416/411/5 417/412/5 407/402/5
f 407/402/5 418/413/5 408/403/5
f 408/403/5 419/414/5 409/404/5
f 409/404/5 420/415/5 410/405/5
f 410/405/5 421/416/5 411/406/5
f 411/406/5 422/417/5 412/407/5
f 412/407/5 423/418/5 413/408/5
f 413/408/5 424/419/5 414/409/5
f 414/409/5 425/420/5 415/410/5
f 415/410/5 381/370/5 380/368/5
f 426/421/5 427/422/5 417/412/5
f 417/412/5 428/423/5 418/413/5
f 418/413/5 429/424/5 419/414/5
f 419/414/5 430/425/5 420/415/5
f 420/415/5 431/426/5 421/416/5
f 421/416/5 432/427/5 422/417/5
f 422/417/5 433/428/5 423/418/5
f 423/418/5 434/429/5 424/419/5
f 424/419/5 435/430/5 425/420/5
f 425/420/5 382/372/5 381/370/5
f 436/431/5 437/432/5 427/422/5
f 427/422/5 438/433/5 428/423/5
f 428/423/5 439/434/5 429/424/5
f 429/424/5 440/435/5 430/425/5
f 430/425/5 441/436/5 431/426/5
f 431/426/5 442/437/5 432/427/5
f 432/427/5 443/438/5 433/428/5
f 433/428/5 444/439/5 434/429/5
f 434/429/5 445/440/5 435/430/5
f 435/430/5 383/374/5 382/372/5
f 446/441/5 447/442/5 437/432/5
f 437/432/5 448/443/5 438/433/5
f 438/433/5 449/444/5 439/434/5
f 439/434/5 450/445/5 440/435/5
f 440/435/5 451/446/5 441/436/5
f 441/436/5 452/447/5 442/437/5
f 442/437/5 453/448/5 443/438/5
f 443/438/5 454/449/5 444/439/5
f 444/439/5 455/450/5 445/440/5
f 445/440/5 384/376/5 383/374/5
f 456/451/5 457/452/5 447/442/5
f 447/442/5 458/453/5 448/443/5
f 448/443/5 459/454/5 449/444/5
f 449/444/5 460/455/5 450/445/5
f 450/445/5 461/456/5 451/446/5
f 451/446/5 462/457/5 452/447/5
f 452/447/5 463/458/5 453/448/5
f 453/448/5 464/459/5 454/449/5
f 454/449/5 465/460/5 455/450/5
f 455/450/5 385/378/5 384/376/5
f 466/461/5 467/462/5 457/452/5
f 457/452/5 468/463/5 458/453/5
f 458/453/5 469/464/5 459/454/5
f 459/454/5 470/465/5 460/455/5
f 460/455/5 471/466/5 461/456/5
f 461/456/5 472/467/5 462/457/5
f 462/457/5 473/468/5 463/458/5
f 463/458/5 474/469/5 464/459/5
f 464/459/5 475/470/5 465/460/5
f 465/460/5 386/380/5 385/378/5
f 476/471/5 477/472/5 467/462/5
f 467/462/5 478/473/5 468/463/5
f 468/463/5 479/474/5 469/464/5
f 469/464/5 480/475/5 470/465/5
f 470/465/5 481/476/5 471/466/5
f 471/466/5 482/477/5 472/467/5
f 472/467/5 483/478/5 473/468/5
f 473/468/5 484/479/5 474/469/5
f 474/469/5 485/480/5 475/470/5
f 475/470/5 4/481/5 386/380/5
f 144/482/1 396/382/1 142/483/1
f 486/484/1 406/401/1 396/382/1
f 487/485/1 416/411/1 406/401/1
f 488/486/1 426/421/1 416/411/1
f 489/487/1 436/431/1 426/421/1
f 490/488/1 446/441/1 436/431/1
f 491/489/1 456/451/1 446/441/1
f 492/490/1 466/461/1 456/451/1
f 493/491/1 476/471/1 466/461/1
f 494/492/1 3/3/1 476/471/1
f 132/493/1 495/494/1 131/495/1
f 131/495/1 496/496/1 160/497/1
f 160/497/1 497/498/1 158/499/1
f 158/499/1 498/500/1 156/501/1
f 156/501/1 499/502/1 154/503/1
f 154/503/1 500/504/1 152/505/1
f 152/505/1 501/506/1 150/507/1
f 150/507/1 502/508/1 148/509/1
f 148/509/1 503/510/1 146/511/1
f 146/511/1 486/484/1 144/482/1
f 252/512/1 504/513/1 495/494/1
f 495/494/1 505/514/1 496/496/1
f 496/496/1 506/515/1 497/498/1
f 497/498/1 507/516/1 498/500/1
f 498/500/1 508/517/1 499/502/1
f 499/502/1 509/518/1 500/504/1
f 500/504/1 510/519/1 501/506/1
f 501/506/1 511/520/1 502/508/1
f 502/508/1 512/521/1 503/510/1
f 503/510/1 487/485/1 486/484/1
f 254/522/1 513/523/1 504/513/1
f 504/513/1 514/524/1 505/514/1
f 505/514/1 515/525/1 506/515/1
f 506/515/1 516/526/1 507/516/1
f 507/516/1 517/527/1 508/517/1
f 508/517/1 518/528/1 509/518/1
f 509/518/1 519/529/1 510/519/1
f 510/519/1 520/530/1 511/520/1
f 511/520/1 521/531/1 512/521/1
f 512/521/1 488/486/1 487/485/1
f 256/532/1 522/533/1 513/523/1
f 513/523/1 523/534/1 514/524/1
f 514/524/1 524/535/1 515/525/1
f 515/525/1 525/536/1 516/526/1
f 516/526/1 526/537/1 517/527/1
f 517/527/1 527/538/1 518/528/1
f 518/528/1 528/539/1 519/529/1
f 519/529/1 529/540/1 520/530/1
f 520/530/1 530/541/1 521/531/1
f 521/531/1 489/487/1 488/486/1
f 258/542/1 531/543/1 522/533/1
f 522/533/1 532/544/1 523/534/1
f 523/534/1 533/545/1 524/535/1
f 524/535/1 534/546/1 525/536/1
f 525/536/1 535/547/1 526/537/1
f 526/537/1 536/548/1 527/538/1
f 527/538/1 537/549/1 528/539/1
f 528/539/1 538/550/1 529/540/1
f 529/540/1 539/551/1 530/541/1
f 530/541/1 490/488/1 489/487/1
f 260/552/1 540/553/1 531/543/1
f 531/543/1 541/554/1 532/544/1
f 532/544/1 542/555/1 533/545/1
f 533/545/1 543/556/1 534/546/1
f 534/546/1 544/557/1 535/547/1
f 535/547/1 545/558/1 536/548/1
f 536/548/1 546/559/1 537/549/1
f 537/549/1 547/560/1 538/550/1
f 538/550/1 548/561/1 539/551/1
f 539/551/1 491/489/1 490/488/1
f 262/562/1 549/563/1 540/553/1
f 540/553/1 550/564/1 541/554/1
f 541/554/1 551/565/1 542/555/1
f 542/555/1 552/566/1 543/556/1
f 543/556/1 553/567/1 544/557/1
f 544/557/1 554/568/1 545/558/1
f 545/558/1 555/569/1 546/559/1
f 546/559/1 556/570/1 547/560/1
f 547/560/1 557/571/1 548/561/1
f 548/561/1 492/490/1 491/489/1
f 264/572/1 558/573/1 549/563/1
f 549/563/1 559/574/1 550/564/1
f 550/564/1 560/575/1 551/565/1
f 551/565/1 561/576/1 552/566/1
f 552/566/1 562/577/1 553/567/1
f 553/567/1 563/578/1 554/568/1
f 554/568/1 564/579/1 555/569/1
f 555/569/1 565/580/1 556/570/1
f 556/570/1 566/581/1 557/571/1
f 557/571/1 493/491/1 492/490/1
f 266/582/1 567/583/1 558/573/1
f 558/573/1 568/584/1 559/574/1
f 559/574/1 569/585/1 560/575/1
f 560/575/1 570/586/1 561/576/1
f 561/576/1 571/587/1 562/577/1
f 562/577/1 572/588/1 563/578/1
f 563/578/1 573/589/1 564/579/1
f 564/579/1 574/590/1 565/580/1
f 565/580/1 575/591/1 566/581/1
f 566/581/1 494/492/1 493/491/1
f 268/592/1 576/593/1 567/583/1
f 567/583/1 577/594/1 568/584/1
f 568/584/1 578/595/1 569/585/1
f 569/585/1 579/596/1 570/586/1
f 570/586/1 580/597/1 571/587/1
f 571/587/1 581/598/1 572/588/1
f 572/588/1 582/599/1 573/589/1
f 573/589/1 583/600/1 574/590/1
f 574/590/1 584/601/1 575/591/1
f 575/591/1 1/1/1 494/492/1
f 9/602/1 130/603/1 576/593/1
f 576/593/1 129/604/1 577/594/1
f 577/594/1 128/605/1 578/595/1
f 578/595/1 127/606/1 579/596/1
f 579/596/1 126/607/1 580/597/1
f 580/597/1 125/608/1 581/598/1
f 581/598/1 124/609/1 582/599/1
f 582/599/1 123/610/1 583/600/1
f 583/600/1 122/611/1 584/601/1
f 584/601/1 121/612/1 1/1/1
f 1/1/1 121/612/1 2/2/1
f 11/115/3 130/125/3 8/613/3
f 23/7/3 22/26/3 24/8/3
f 25/9/3 24/8/3 26/10/3
f 27/11/3 26/10/3 28/12/3
f 29/13/3 28/12/3 30/14/3
f 31/15/3 30/14/3 32/16/3
f 33/17/3 32/16/3 34/18/3
f 35/19/3 34/18/3 36/20/3
f 37/21/3 36/20/3 38/22/3
f 39/23/3 38/22/3 13/24/3
f 22/26/3 40/36/3 41/27/3
f 24/8/3 41/27/3 42/28/3
f 26/10/3 42/28/3 43/29/3
f 28/12/3 43/29/3 44/30/3
f 30/14/3 44/30/3 45/31/3
f 32/16/3 45/31/3 46/32/3
f 34/18/3 46/32/3 47/33/3
f 36/20/3 47/33/3 48/34/3
f 38/22/3 48/34/3 14/35/3
f 40/36/3 49/46/3 50/37/3
f 41/27/3 50/37/3 51/38/3
f 42/28/3 51/38/3 52/39/3
f 43/29/3 52/39/3 53/40/3
f 44/30/3 53/40/3 54/41/3
f 45/31/3 54/41/3 55/42/3
f 46/32/3 55/42/3 56/43/3
f 47/33/3 56/43/3 57/44/3
f 48/34/3 57/44/3 15/45/3
f 49/46/3 58/56/3 59/47/3
f 50/37/3 59/47/3 60/48/3
f 51/38/3 60/48/3 61/49/3
f 52/39/3 61/49/3 62/50/3
f 53/40/3 62/50/3 63/51/3
f 54/41/3 63/51/3 64/52/3
f 55/42/3 64/52/3 65/53/3
f 56/43/3 65/53/3 66/54/3
f 57/44/3 66/54/3 16/55/3
f 58/56/3 67/66/3 68/57/3
f 59/47/3 68/57/3 69/58/3
f 60/48/3 69/58/3 70/59/3
f 61/49/3 70/59/3 71/60/3
f 62/50/3 71/60/3 72/61/3
f 63/51/3 72/61/3 73/62/3
f 64/52/3 73/62/3 74/63/3
f 65/53/3 74/63/3 75/64/3
f 66/54/3 75/64/3 17/65/3
f 67/66/3 76/76/3 77/67/3
f 68/57/3 77/67/3 78/68/3
f 69/58/3 78/68/3 79/69/3
f 70/59/3 79/69/3 80/70/3
f 71/60/3 80/70/3 81/71/3
f 72/61/3 81/71/3 82/72/3
f 73/62/3 82/72/3 83/73/3
f 74/63/3 83/73/3 84/74/3
f 75/64/3 84/74/3 18/75/3
f 76/76/3 85/86/3 86/77/3
f 77/67/3 86/77/3 87/78/3
f 78/68/3 87/78/3 88/79/3
f 79/69/3 88/79/3 89/80/3
f 80/70/3 89/80/3 90/81/3
f 81/71/3 90/81/3 91/82/3
f 82/72/3 91/82/3 92/83/3
f 83/73/3 92/83/3 93/84/3
f 84/74/3 93/84/3 19/85/3
f 85/86/3 94/96/3 95/87/3
f 86/77/3 95/87/3 96/88/3
f 87/78/3 96/88/3 97/89/3
f 88/79/3 97/89/3 98/90/3
f 89/80/3 98/90/3 99/91/3
f 90/81/3 99/91/3 100/92/3
f 91/82/3 100/92/3 101/93/3
f 92/83/3 101/93/3 102/94/3
f 93/84/3 102/94/3 20/95/3
f 94/96/3 103/106/3 104/97/3
f 95/87/3 104/97/3 105/98/3
f 96/88/3 105/98/3 106/99/3
f 97/89/3 106/99/3 107/100/3
f 98/90/3 107/100/3 108/101/3
f 99/91/3 108/101/3 109/102/3
f 100/92/3 109/102/3 110/103/3
f 101/93/3 110/103/3 111/104/3
f 102/94/3 111/104/3 21/105/3
f 103/106/3 112/116/3 113/107/3
f 104/97/3 113/107/3 114/108/3
f 105/98/3 114/108/3 115/109/3
f 106/99/3 115/109/3 116/110/3
f 107/100/3 116/110/3 117/111/3
f 108/101/3 117/111/3 118/112/3
f 109/102/3 118/112/3 119/113/3
f 110/103/3 119/113/3 120/114/3
f 111/104/3 120/114/3 11/115/3
f 112/116/3 121/614/3 122/117/3
f 113/107/3 122/117/3 123/118/3
f 114/108/3 123/118/3 124/119/3
f 115/109/3 124/119/3 125/120/3
f 116/110/3 125/120/3 126/121/3
f 117/111/3 126/121/3 127/122/3
f 118/112/3 127/122/3 128/123/3
f 119/113/3 128/123/3 129/124/3
f 120/114/3 129/124/3 130/125/3
f 144/128/4 143/127/4 145/129/4
f 146/130/4 145/129/4 147/131/4
f 148/132/4 147/131/4 149/133/4
f 150/134/4 149/133/4 151/135/4
f 152/136/4 151/135/4 153/137/4
f 154/138/4 153/137/4 155/139/4
f 156/140/4 155/139/4 157/141/4
f 158/142/4 157/141/4 159/143/4
f 160/144/4 159/143/4 133/145/4
f 143/127/4 161/156/4 162/147/4
f 145/129/4 162/147/4 163/148/4
f 147/131/4 163/148/4 164/149/4
f 149/133/4 164/149/4 165/150/4
f 151/135/4 165/150/4 166/151/4
f 153/137/4 166/151/4 167/152/4
f 155/139/4 167/152/4 168/153/4
f 157/141/4 168/153/4 169/154/4
f 159/143/4 169/154/4 134/155/4
f 161/156/4 170/166/4 171/157/4
f 162/147/4 171/157/4 172/158/4
f 163/148/4 172/158/4 173/159/4
f 164/149/4 173/159/4 174/160/4
f 165/150/4 174/160/4 175/161/4
f 166/151/4 175/161/4 176/162/4
f 167/152/4 176/162/4 177/163/4
f 168/153/4 177/163/4 178/164/4
f 169/154/4 178/164/4 135/165/4
f 170/166/4 179/176/4 180/167/4
f 171/157/4 180/167/4 181/168/4
f 172/158/4 181/168/4 182/169/4
f 173/159/4 182/169/4 183/170/4
f 174/160/4 183/170/4 184/171/4
f 175/161/4 184/171/4 185/172/4
f 176/162/4 185/172/4 186/173/4
f 177/163/4 186/173/4 187/174/4
f 178/164/4 187/174/4 136/175/4
f 179/176/4 188/186/4 189/177/4
f 180/167/4 189/177/4 190/178/4
f 181/168/4 190/178/4 191/179/4
f 182/169/4 191/179/4 192/180/4
f 183/170/4 192/180/4 193/181/4
f 184/171/4 193/181/4 194/182/4
f 185/172/4 194/182/4 195/183/4
f 186/173/4 195/183/4 196/184/4
f 187/174/4 196/184/4 137/185/4
f 188/186/4 197/196/4 198/187/4
f 189/177/4 198/187/4 199/188/4
f 190/178/4 199/188/4 200/189/4
f 191/179/4 200/189/4 201/190/4
f 192/180/4 201/190/4 202/191/4
f 193/181/4 202/191/4 203/192/4
f 194/182/4 203/192/4 204/193/4
f 195/183/4 204/193/4 205/194/4
f 196/184/4 205/194/4 138/195/4
f 197/196/4 206/206/4 207/197/4
f 198/187/4 207/197/4 208/198/4
f 199/188/4 208/198/4 209/199/4
f 200/189/4 209/199/4 210/200/4
f 201/190/4 210/200/4 211/201/4
f 202/191/4 211/201/4 212/202/4
f 203/192/4 212/202/4 213/203/4
f 204/193/4 213/203/4 214/204/4
f 205/194/4 214/204/4 139/205/4
f 206/206/4 215/216/4 216/207/4
f 207/197/4 216/207/4 217/208/4
f 208/198/4 217/208/4 218/209/4
f 209/199/4 218/209/4 219/210/4
f 210/200/4 219/210/4 220/211/4
f 211/201/4 220/211/4 221/212/4
f 212/202/4 221/212/4 222/213/4
f 213/203/4 222/213/4 223/214/4
f 214/204/4 223/214/4 140/215/4
f 215/216/4 224/226/4 225/217/4
f 216/207/4 225/217/4 226/218/4
f 217/208/4 226/218/4 227/219/4
f 218/209/4 227/219/4 228/220/4
f 219/210/4 228/220/4 229/221/4
f 220/211/4 229/221/4 230/222/4
f 221/212/4 230/222/4 231/223/4
f 222/213/4 231/223/4 232/224/4
f 223/214/4 232/224/4 141/225/4
f 224/226/4 233/236/4 234/227/4
f 225/217/4 234/227/4 235/228/4
f 226/218/4 235/228/4 236/229/4
f 227/219/4 236/229/4 237/230/4
f 228/220/4 237/230/4 238/231/4
f 229/221/4 238/231/4 239/232/4
f 230/222/4 239/232/4 240/233/4
f 231/223/4 240/233/4 241/234/4
f 232/224/4 241/234/4 10/235/4
f 233/236/4 242/615/4 243/237/4
f 234/227/4 243/237/4 244/238/4
f 235/228/4 244/238/4 245/239/4
f 236/229/4 245/239/4 246/240/4
f 237/230/4 246/240/4 247/241/4
f 238/231/4 247/241/4 248/242/4
f 239/232/4 248/242/4 249/243/4
f 240/233/4 249/243/4 250/244/4
f 241/234/4 250/244/4 251/245/4
f 253/246/2 255/249/2 254/247/2
f 255/249/2 257/251/2 256/250/2
f 257/251/2 259/253/2 258/252/2
f 259/253/2 261/255/2 260/254/2
f 261/255/2 263/257/2 262/256/2
f 263/257/2 265/259/2 264/258/2
f 265/259/2 267/261/2 266/260/2
f 267/261/2 269/263/2 268/262/2
f 269/263/2 7/4/2 9/6/2
f 279/264/2 289/283/2 280/265/2
f 270/266/2 280/265/2 281/267/2
f 271/268/2 281/267/2 282/269/2
f 272/270/2 282/269/2 283/271/2
f 273/272/2 283/271/2 284/273/2
f 274/274/2 284/273/2 285/275/2
f 275/276/2 285/275/2 286/277/2
f 276/278/2 286/277/2 287/279/2
f 277/280/2 287/279/2 288/281/2
f 278/282/2 288/281/2 255/249/2
f 289/283/2 299/293/2 290/284/2
f 280/265/2 290/284/2 291/285/2
f 281/267/2 291/285/2 292/286/2
f 282/269/2 292/286/2 293/287/2
f 283/271/2 293/287/2 294/288/2
f 284/273/2 294/288/2 295/289/2
f 285/275/2 295/289/2 296/290/2
f 286/277/2 296/290/2 297/291/2
f 287/279/2 297/291/2 298/292/2
f 288/281/2 298/292/2 257/251/2
f 299/293/2 309/303/2 300/294/2
f 290/284/2 300/294/2 301/295/2
f 291/285/2 301/295/2 302/296/2
f 292/286/2 302/296/2 303/297/2
f 293/287/2 303/297/2 304/298/2
f 294/288/2 304/298/2 305/299/2
f 295/289/2 305/299/2 306/300/2
f 296/290/2 306/300/2 307/301/2
f 297/291/2 307/301/2 308/302/2
f 298/292/2 308/302/2 259/253/2
f 309/303/2 319/313/2 310/304/2
f 300/294/2 310/304/2 311/305/2
f 301/295/2 311/305/2 312/306/2
f 302/296/2 312/306/2 313/307/2
f 303/297/2 313/307/2 314/308/2
f 304/298/2 314/308/2 315/309/2
f 305/299/2 315/309/2 316/310/2
f 306/300/2 316/310/2 317/311/2
f 307/301/2 317/311/2 318/312/2
f 308/302/2 318/312/2 261/255/2
f 319/313/2 329/323/2 320/314/2
f 310/304/2 320/314/2 321/315/2
f 311/305/2 321/315/2 322/316/2
f 312/306/2 322/316/2 323/317/2
f 313/307/2 323/317/2 324/318/2
f 314/308/2 324/318/2 325/319/2
f 315/309/2 325/319/2 326/320/2
f 316/310/2 326/320/2 327/321/2
f 317/311/2 327/321/2 328/322/2
f 318/312/2 328/322/2 263/257/2
f 329/323/2 339/333/2 330/324/2
f 320/314/2 330/324/2 331/325/2
f 321/315/2 331/325/2 332/326/2
f 322/316/2 332/326/2 333/327/2
f 323/317/2 333/327/2 334/328/2
f 324/318/2 334/328/2 335/329/2
f 325/319/2 335/329/2 336/330/2
f 326/320/2 336/330/2 337/331/2
f 327/321/2 337/331/2 338/332/2
f 328/322/2 338/332/2 265/259/2
f 339/333/2 349/343/2 340/334/2
f 330/324/2 340/334/2 341/335/2
f 331/325/2 341/335/2 342/336/2
f 332/326/2 342/336/2 343/337/2
f 333/327/2 343/337/2 344/338/2
f 334/328/2 344/338/2 345/339/2
f 335/329/2 345/339/2 346/340/2
f 336/330/2 346/340/2 347/341/2
f 337/331/2 347/341/2 348/342/2
f 338/332/2 348/342/2 267/261/2
f 349/343/2 359/353/2 350/344/2
f 340/334/2 350/344/2 351/345/2
f 341/335/2 351/345/2 352/346/2
f 342/336/2 352/346/2 353/347/2
f 343/337/2 353/347/2 354/348/2
f 344/338/2 354/348/2 355/349/2
f 345/339/2 355/349/2 356/350/2
f 346/340/2 356/350/2 357/351/2
f 347/341/2 357/351/2 358/352/2
f 348/342/2 358/352/2 269/263/2
f 359/353/2 6/616/2 360/354/2
f 350/344/2 360/354/2 361/355/2
f 351/345/2 361/355/2 362/356/2
f 352/346/2 362/356/2 363/357/2
f 353/347/2 363/357/2 364/358/2
f 354/348/2 364/358/2 365/359/2
f 355/349/2 365/359/2 366/360/2
f 356/350/2 366/360/2 367/361/2
f 357/351/2 367/361/2 368/362/2
f 358/352/2 368/362/2 7/4/2
f 378/363/5 379/366/5 370/364/5
f 379/366/5 380/368/5 371/367/5
f 380/368/5 381/370/5 372/369/5
f 381/370/5 382/372/5 373/371/5
f 382/372/5 383/374/5 374/373/5
f 383/374/5 384/376/5 375/375/5
f 384/376/5 385/378/5 376/377/5
f 385/378/5 386/380/5 377/379/5
f 386/380/5 4/481/5 5/381/5
f 142/483/5 396/382/5 387/384/5
f 396/382/5 406/401/5 397/383/5
f 387/384/5 397/383/5 398/385/5
f 388/386/5 398/385/5 399/387/5
f 389/388/5 399/387/5 400/389/5
f 390/390/5 400/389/5 401/391/5
f 391/392/5 401/391/5 402/393/5
f 392/394/5 402/393/5 403/395/5
f 393/396/5 403/395/5 404/397/5
f 394/398/5 404/397/5 405/399/5
f 395/400/5 405/399/5 379/366/5
f 406/401/5 416/411/5 407/402/5
f 397/383/5 407/402/5 408/403/5
f 398/385/5 408/403/5 409/404/5
f 399/387/5 409/404/5 410/405/5
f 400/389/5 410/405/5 411/406/5
f 401/391/5 411/406/5 412/407/5
f 402/393/5 412/407/5 413/408/5
f 403/395/5 413/408/5 414/409/5
f 404/397/5 414/409/5 415/410/5
f 405/399/5 415/410/5 380/368/5
f 416/411/5 426/421/5 417/412/5
f 407/402/5 417/412/5 418/413/5
f 408/403/5 418/413/5 419/414/5
f 409/404/5 419/414/5 420/415/5
f 410/405/5 420/415/5 421/416/5
f 411/406/5 421/416/5 422/417/5
f 412/407/5 422/417/5 423/418/5
f 413/408/5 423/418/5 424/419/5
f 414/409/5 424/419/5 425/420/5
f 415/410/5 425/420/5 381/370/5
f 426/421/5 436/431/5 427/422/5
f 417/412/5 427/422/5 428/423/5
f 418/413/5 428/423/5 429/424/5
f 419/414/5 429/424/5 430/425/5
f 420/415/5 430/425/5 431/426/5
f 421/416/5 431/426/5 432/427/5
f 422/417/5 432/427/5 433/428/5
f 423/418/5 433/428/5 434/429/5
f 424/419/5 434/429/5 435/430/5
f 425/420/5 435/430/5 382/372/5
f 436/431/5 446/441/5 437/432/5
f 427/422/5 437/432/5 438/433/5
f 428/423/5 438/433/5 439/434/5
f 429/424/5 439/434/5 440/435/5
f 430/425/5 440/435/5 441/436/5
f 431/426/5 441/436/5 442/437/5
f 432/427/5 442/437/5 443/438/5
f 433/428/5 443/438/5 444/439/5
f 434/429/5 444/439/5 445/440/5
f 435/430/5 445/440/5 383/374/5
f 446/441/5 456/451/5 447/442/5
f 437/432/5 447/442/5 448/443/5
f 438/433/5 448/443/5 449/444/5
f 439/434/5 449/444/5 450/445/5
f 440/435/5 450/445/5 451/446/5
f 441/436/5 451/446/5 452/447/5
f 442/437/5 452/447/5 453/448/5
f 443/438/5 453/448/5 454/449/5
f 444/439/5 454/449/5 455/450/5
f 445/440/5 455/450/5 384/376/5
f 456/451/5 466/461/5 457/452/5
f 447/442/5 457/452/5 458/453/5
f 448/443/5 458/453/5 459/454/5
f 449/444/5 459/454/5 460/455/5
f 450/445/5 460/455/5 461/456/5
f 451/446/5 461/456/5 462/457/5
f 452/447/5 462/457/5 463/458/5
f 453/448/5 463/458/5 464/459/5
f 454/449/5 464/459/5 465/460/5
f 455/450/5 465/460/5 385/378/5
f 466/461/5 476/471/5 467/462/5
f 457/452/5 467/462/5 468/463/5
f 458/453/5 468/463/5 469/464/5
f 459/454/5 469/464/5 470/465/5
f 460/455/5 470/465/5 471/466/5
f 461/456/5 471/466/5 472/467/5
f 462/457/5 472/467/5 473/468/5
f 463/458/5 473/468/5 474/469/5
f 464/459/5 474/469/5 475/470/5
f 465/460/5 475/470/5 386/380/5
f 476/471/5 3/3/5 477/472/5
f 467/462/5 477/472/5 478/473/5
f 468/463/5 478/473/5 479/474/5
f 469/464/5 479/474/5 480/475/5
f 470/465/5 480/475/5 481/476/5
f 471/466/5 481/476/5 482/477/5
f 472/467/5 482/477/5 483/478/5
f 473/468/5 483/478/5 484/479/5
f 474/469/5 484/479/5 485/480/5
f 475/470/5 485/480/5 4/481/5
f 144/482/1 486/484/1 396/382/1
f 486/484/1 487/485/1 406/401/1
f 487/485/1 488/486/1 416/411/1
f 488/486/1 489/487/1 426/421/1
f 489/487/1 490/488/1 436/431/1
f 490/488/1 491/489/1 446/441/1
f 491/489/1 492/490/1 456/451/1
f 492/490/1 493/491/1 466/461/1
f 493/491/1 494/492/1 476/471/1
f 494/492/1 1/1/1 3/3/1
f 132/493/1 252/512/1 495/494/1
f 131/495/1 495/494/1 496/496/1
f 160/497/1 496/496/1 497/498/1
f 158/499/1 497/498/1 498/500/1
f 156/501/1 498/500/1 499/502/1
f 154/503/1 499/502/1 500/504/1
f 152/505/1 500/504/1 501/506/1
f 150/507/1 501/506/1 502/508/1
f 148/509/1 502/508/1 503/510/1
f 146/511/1 503/510/1 486/484/1
f 252/512/1 254/522/1 504/513/1
f 495/494/1 504/513/1 505/514/1
f 496/496/1 505/514/1 506/515/1
f 497/498/1 506/515/1 507/516/1
f 498/500/1 507/516/1 508/517/1
f 499/502/1 508/517/1 509/518/1
f 500/504/1 509/518/1 510/519/1
f 501/506/1 510/519/1 511/520/1
f 502/508/1 511/520/1 512/521/1
f 503/510/1 512/521/1 487/485/1
f 254/522/1 256/532/1 513/523/1
f 504/513/1 513/523/1 514/524/1
f 505/514/1 514/524/1 515/525/1
f 506/515/1 515/525/1 516/526/1
f 507/516/1 516/526/1 517/527/1
f 508/517/1 517/527/1 518/528/1
f 509/518/1 518/528/1 519/529/1
f 510/519/1 519/529/1 520/530/1
f 511/520/1 520/530/1 521/531/1
f 512/521/1 521/531/1 488/486/1
f 256/532/1 258/542/1 522/533/1
f 513/523/1 522/533/1 523/534/1
f 514/524/1 523/534/1 524/535/1
f 515/525/1 524/535/1 525/536/1
f 516/526/1 525/536/1 526/537/1
f 517/527/1 526/537/1 527/538/1
f 518/528/1 527/538/1 528/539/1
f 519/529/1 528/539/1 529/540/1
f 520/530/1 529/540/1 530/541/1
f 521/531/1 530/541/1 489/487/1
f 258/542/1 260/552/1 531/543/1
f 522/533/1 531/543/1 532/544/1
f 523/534/1 532/544/1 533/545/1
f 524/535/1 533/545/1 534/546/1
f 525/536/1 534/546/1 535/547/1
f 526/537/1 535/547/1 536/548/1
f 527/538/1 536/548/1 537/549/1
f 528/539/1 537/549/1 538/550/1
f 529/540/1 538/550/1 539/551/1
f 530/541/1 539/551/1 490/488/1
f 260/552/1 262/562/1 540/553/1
f 531/543/1 540/553/1 541/554/1
f 532/544/1 541/554/1 542/555/1
f 533/545/1 542/555/1 543/556/1
f 534/546/1 543/556/1 544/557/1
f 535/547/1 544/557/1 545/558/1
f 536/548/1 545/558/1 546/559/1
f 537/549/1 546/559/1 547/560/1
f 538/550/1 547/560/1 548/561/1
f 539/551/1 548/561/1 491/489/1
f 262/562/1 264/572/1 549/563/1
f 540/553/1 549/563/1 550/564/1
f 541/554/1 550/564/1 551/565/1
f 542/555/1 551/565/1 552/566/1
f 543/556/1 552/566/1 553/567/1
f 544/557/1 553/567/1 554/568/1
f 545/558/1 554/568/1 555/569/1
f 546/559/1 555/569/1 556/570/1
f 547/560/1 556/570/1 557/571/1
f 548/561/1 557/571/1 492/490/1
f 264/572/1 266/582/1 558/573/1
f 549/563/1 558/573/1 559/574/1
f 550/564/1 559/574/1 560/575/1
f 551/565/1 560/575/1 561/576/1
f 552/566/1 561/576/1 562/577/1
f 553/567/1 562/577/1 563/578/1
f 554/568/1 563/578/1 564/579/1
f 555/569/1 564/579/1 565/580/1
f 556/570/1 565/580/1 566/581/1
f 557/571/1 566/581/1 493/491/1
f 266/582/1 268/592/1 567/583/1
f 558/573/1 567/583/1 568/584/1
f 559/574/1 568/584/1 569/585/1
f 560/575/1 569/585/1 570/586/1
f 561/576/1 570/586/1 571/587/1
f 562/577/1 571/587/1 572/588/1
f 563/578/1 572/588/1 573/589/1
f 564/579/1 573/589/1 574/590/1
f 565/580/1 574/590/1 575/591/1
f 566/581/1 575/591/1 494/492/1
f 268/592/1 9/602/1 576/593/1
f 567/583/1 576/593/1 577/594/1
f 568/584/1 577/594/1 578/595/1
f 569/585/1 578/595/1 579/596/1
f 570/586/1 579/596/1 580/597/1
f 571/587/1 580/597/1 581/598/1
f 572/588/1 581/598/1 582/599/1
f 573/589/1 582/599/1 583/600/1
f 574/590/1 583/600/1 584/601/1
f 575/591/1 584/601/1 1/1/1
f 9/602/1 8/617/1 130/603/1
f 576/593/1 130/603/1 129/604/1
f 577/594/1 129/604/1 128/605/1
f 578/595/1 128/605/1 127/606/1
f 579/596/1 127/606/1 126/607/1
f 580/597/1 126/607/1 125/608/1
f 581/598/1 125/608/1 124/609/1
f 582/599/1 124/609/1 123/610/1
f 583/600/1 123/610/1 122/611/1
f 584/601/1 122/611/1 121/612/1
