# Blender v3.1.2 OBJ File: ''
# www.blender.org
o Cube
v 0.187699 0.104518 -1.812828
v 1.000000 -1.000000 -1.000000
v 0.795175 -1.278957 0.745117
v -1.025534 1.084944 -1.073595
v 0.232823 0.446186 0.148486
v -1.812301 0.104518 0.187172
v -1.007318 -0.990645 0.998754
vt 0.820299 0.216129
vt 0.820299 0.704016
vt 0.416367 0.490669
vt 0.419333 0.000091
vt 0.000091 0.276937
vt 0.413688 0.999909
vt 0.007404 0.796682
vn 0.5624 0.8123 -0.1545
vn 0.9195 0.3568 0.1650
vn 0.8381 0.5338 -0.1123
vn -0.1264 0.8197 0.5586
vn -0.0773 0.5563 0.8274
vn 0.1877 0.3751 0.9078
s off
f 1/1/1 4/2/1 5/3/1
f 2/4/2 5/3/2 3/5/2
f 2/4/3 1/1/3 5/3/3
f 4/2/4 6/6/4 5/3/4
f 5/3/5 6/6/5 7/7/5
f 5/3/6 7/7/6 3/5/6
