# Blender v3.1.2 OBJ File: ''
# www.blender.org
o Icosphere
v 0.276388 0.447220 0.850649
v 0.000000 0.000000 1.000000
v 0.587786 0.000000 0.809017
v 0.688189 0.525736 0.499997
v -0.262869 0.525738 0.809012
v 0.162456 0.850654 0.499995
vt 0.181819 0.314921
vt 0.272728 0.314921
vt 0.227273 0.393651
vt 0.090910 0.314921
vt 0.136365 0.393651
vt 0.136365 0.236191
vt 0.227273 0.236191
vn 0.4089 0.6617 0.6284
vn 0.0385 0.6617 0.7488
vn -0.0247 0.3304 0.9435
vn 0.5746 0.3304 0.7488
vn 0.3066 0.1256 0.9435
s off
f 1/1/1 4/2/1 6/3/1
f 5/4/2 1/1/2 6/5/2
f 2/6/3 1/1/3 5/4/3
f 3/7/4 4/2/4 1/1/4
f 2/6/5 3/7/5 1/1/5
